M48
; DRILL file KiCad 10.0.2 date 2026-07-02T18:12:53
; FORMAT={-:-/ absolute / metric / decimal}
; #@! TF.CreationDate,2026-07-02T18:12:53-04:00
; #@! TF.GenerationSoftware,Kicad,Pcbnew,10.0.2
; #@! TF.FileFunction,MixedPlating,1,4
FMAT,2
METRIC
; #@! TA.AperFunction,Plated,PTH,ViaDrill
T1C0.250
; #@! TA.AperFunction,Plated,PTH,ViaDrill
T2C0.300
; #@! TA.AperFunction,Plated,PTH,ViaDrill
T3C0.400
; #@! TA.AperFunction,Plated,PTH,ComponentDrill
T4C0.600
; #@! TA.AperFunction,Plated,PTH,ComponentDrill
T5C1.000
; #@! TA.AperFunction,Plated,PTH,ComponentDrill
T6C1.500
; #@! TA.AperFunction,NonPlated,NPTH,ComponentDrill
T7C0.650
; #@! TA.AperFunction,NonPlated,NPTH,ComponentDrill
T8C2.700
%
G90
G05
T1
X105.087Y-117.505
X108.794Y-139.176
X109.3Y-124.95
X109.862Y-136.325
X109.862Y-136.975
X110.531Y-115.746
X111.192Y-125.84
X111.444Y-139.176
X111.965Y-104.073
X112.138Y-133.925
X112.138Y-135.675
X112.575Y-114.7
X113.438Y-110.05
X113.438Y-111.95
X113.696Y-128.446
X114.192Y-126.94
X114.965Y-104.073
X115.1Y-121.01
X116.804Y-128.446
X117.112Y-114.105
X117.438Y-123.2
X117.462Y-132.0
X117.544Y-117.613
X117.691Y-118.787
X117.748Y-121.007
X117.827Y-127.9
X118.0Y-124.6
X118.3Y-113.5
X119.738Y-131.05
X120.194Y-118.713
X120.466Y-122.543
X120.536Y-124.951
X121.6Y-123.7
X122.54Y-117.154
X122.554Y-124.144
X122.568Y-121.636
X122.614Y-126.391
X123.65Y-130.1
X124.104Y-124.144
X124.164Y-125.291
X124.287Y-110.295
X124.287Y-110.295
X124.3Y-109.0
X124.6Y-126.7
X124.9Y-120.536
X125.19Y-118.254
X125.35Y-127.9
X125.387Y-110.295
X125.5Y-109.6
X125.6Y-119.6
X126.45Y-129.2
X127.6Y-138.05
X127.6Y-146.05
X128.0Y-118.6
X128.852Y-146.269
X129.95Y-133.522
X130.6Y-125.6
X130.9Y-123.3
X131.05Y-135.072
X131.585Y-142.316
X131.76Y-137.269
X131.852Y-145.169
X131.953Y-112.28
X132.6Y-118.9
X134.0Y-113.6
X134.0Y-115.55
X134.0Y-116.75
X134.153Y-113.83
X134.3Y-113.6
X134.616Y-133.586
X134.75Y-143.655
X134.959Y-140.309
X135.174Y-113.614
X135.25Y-118.25
X135.25Y-119.25
X135.25Y-122.55
X135.25Y-123.55
X135.316Y-135.948
X135.417Y-106.827
X136.35Y-145.405
X136.724Y-114.714
X137.2Y-107.8
X137.55Y-146.105
X137.667Y-111.38
X137.933Y-112.547
X138.0Y-136.138
X138.556Y-108.951
X138.65Y-145.405
X139.167Y-106.827
X140.35Y-146.105
X141.25Y-143.655
X141.683Y-112.547
X142.45Y-121.225
X142.45Y-122.775
X143.5Y-110.5
X144.159Y-127.532
X146.238Y-132.124
X147.986Y-142.099
X149.72Y-117.0
X149.875Y-139.0
X149.92Y-136.061
X149.945Y-112.977
X150.22Y-108.5
X150.625Y-125.905
X151.3Y-104.8
X152.635Y-114.08
X154.763Y-132.463
X155.938Y-136.0
X157.038Y-125.1
X157.527Y-119.572
X157.574Y-141.531
X160.726Y-128.564
X162.55Y-147.65
X164.112Y-145.0
X167.475Y-111.7
X168.575Y-102.359
T2
X106.0Y-106.0
X106.0Y-122.0
X106.0Y-130.0
X106.0Y-138.0
X110.891Y-123.762
X113.259Y-133.275
X118.654Y-122.891
X119.419Y-115.63
X120.276Y-119.515
X120.5Y-141.286
X123.019Y-110.962
X123.207Y-105.772
X126.57Y-116.575
X126.848Y-124.27
X127.473Y-119.27
X127.816Y-121.6
X127.829Y-123.541
X127.932Y-120.834
X129.0Y-120.0
X129.0Y-121.0
X129.0Y-122.0
X129.854Y-137.984
X129.934Y-127.142
X130.0Y-120.0
X130.0Y-121.0
X130.0Y-122.0
X131.0Y-120.0
X131.0Y-121.0
X131.0Y-122.0
X131.419Y-118.455
X131.516Y-138.222
X131.715Y-135.948
X131.748Y-115.486
X131.996Y-112.983
X132.073Y-119.376
X132.077Y-123.53
X132.479Y-122.335
X132.533Y-121.199
X133.552Y-126.569
X134.139Y-125.188
X136.403Y-126.621
X139.596Y-127.532
X139.84Y-126.78
X139.914Y-121.208
X140.058Y-106.836
X140.798Y-105.306
X144.072Y-126.141
X145.159Y-121.873
X146.0Y-114.0
X147.464Y-104.174
X150.198Y-103.605
X155.666Y-142.916
X160.246Y-145.052
X162.0Y-130.0
X170.0Y-130.0
X172.505Y-102.221
T3
X107.331Y-114.646
X108.231Y-114.646
X110.8Y-118.5
X111.7Y-118.5
X143.68Y-117.0
X144.18Y-108.5
X144.58Y-117.0
X145.08Y-108.5
X157.038Y-125.6
X157.038Y-137.6
X157.938Y-125.6
X157.938Y-137.6
X172.3Y-122.0
X172.3Y-136.0
X173.2Y-122.0
X173.2Y-136.0
T5
X102.9Y-122.5
X102.9Y-125.0
X102.9Y-132.0
X102.9Y-134.5
X102.9Y-141.5
X102.9Y-144.0
X119.65Y-104.4
X119.65Y-106.94
X122.19Y-104.4
X122.19Y-106.94
X124.73Y-104.4
X124.73Y-106.94
X127.27Y-104.4
X127.27Y-106.94
X129.81Y-104.4
X129.81Y-106.94
X132.35Y-104.4
X132.35Y-106.94
X148.0Y-146.0
X150.54Y-146.0
X153.08Y-146.0
X155.0Y-108.5
X155.0Y-111.0
X155.0Y-113.5
X169.5Y-108.5
X169.5Y-113.5
X173.6Y-122.0
X173.6Y-124.5
X173.6Y-136.0
X173.6Y-138.5
T7
X135.11Y-145.1
X140.89Y-145.1
T8
X103.0Y-103.0
X111.0Y-147.0
X139.5Y-102.5
X173.0Y-147.0
T4
X133.68Y-144.02G85X133.68Y-145.12
G05
X133.68Y-148.45G85X133.68Y-149.05
G05
X142.32Y-144.02G85X142.32Y-145.12
G05
X142.32Y-148.45G85X142.32Y-149.05
G05
T6
X161.85Y-105.4G85X163.15Y-105.4
G05
X161.85Y-116.6G85X163.15Y-116.6
G05
M30
