%TF.GenerationSoftware,KiCad,Pcbnew,10.0.2*%
%TF.CreationDate,2026-07-02T18:12:53-04:00*%
%TF.ProjectId,wigglecam,77696767-6c65-4636-916d-2e6b69636164,rev?*%
%TF.SameCoordinates,Original*%
%TF.FileFunction,Copper,L4,Bot*%
%TF.FilePolarity,Positive*%
%FSLAX46Y46*%
G04 Gerber Fmt 4.6, Leading zero omitted, Abs format (unit mm)*
G04 Created by KiCad (PCBNEW 10.0.2) date 2026-07-02 18:12:53*
%MOMM*%
%LPD*%
G01*
G04 APERTURE LIST*
G04 Aperture macros list*
%AMRoundRect*
0 Rectangle with rounded corners*
0 $1 Rounding radius*
0 $2 $3 $4 $5 $6 $7 $8 $9 X,Y pos of 4 corners*
0 Add a 4 corners polygon primitive as box body*
4,1,4,$2,$3,$4,$5,$6,$7,$8,$9,$2,$3,0*
0 Add four circle primitives for the rounded corners*
1,1,$1+$1,$2,$3*
1,1,$1+$1,$4,$5*
1,1,$1+$1,$6,$7*
1,1,$1+$1,$8,$9*
0 Add four rect primitives between the rounded corners*
20,1,$1+$1,$2,$3,$4,$5,0*
20,1,$1+$1,$4,$5,$6,$7,0*
20,1,$1+$1,$6,$7,$8,$9,0*
20,1,$1+$1,$8,$9,$2,$3,0*%
G04 Aperture macros list end*
%TA.AperFunction,ComponentPad*%
%ADD10R,2.000000X2.000000*%
%TD*%
%TA.AperFunction,ComponentPad*%
%ADD11C,2.000000*%
%TD*%
%TA.AperFunction,ComponentPad*%
%ADD12R,3.200000X2.000000*%
%TD*%
%TA.AperFunction,ComponentPad*%
%ADD13RoundRect,0.250000X0.750000X-0.600000X0.750000X0.600000X-0.750000X0.600000X-0.750000X-0.600000X0*%
%TD*%
%TA.AperFunction,ComponentPad*%
%ADD14O,2.000000X1.700000*%
%TD*%
%TA.AperFunction,ComponentPad*%
%ADD15R,1.700000X1.700000*%
%TD*%
%TA.AperFunction,ComponentPad*%
%ADD16C,1.700000*%
%TD*%
%TA.AperFunction,ComponentPad*%
%ADD17RoundRect,0.250000X-0.750000X0.600000X-0.750000X-0.600000X0.750000X-0.600000X0.750000X0.600000X0*%
%TD*%
%TA.AperFunction,ComponentPad*%
%ADD18O,1.000000X2.100000*%
%TD*%
%TA.AperFunction,ComponentPad*%
%ADD19O,1.000000X1.600000*%
%TD*%
%TA.AperFunction,ViaPad*%
%ADD20C,0.600000*%
%TD*%
%TA.AperFunction,ViaPad*%
%ADD21C,0.500000*%
%TD*%
%TA.AperFunction,ViaPad*%
%ADD22C,0.800000*%
%TD*%
%TA.AperFunction,Conductor*%
%ADD23C,0.200000*%
%TD*%
%TA.AperFunction,Conductor*%
%ADD24C,0.250000*%
%TD*%
%TA.AperFunction,Conductor*%
%ADD25C,0.300000*%
%TD*%
G04 APERTURE END LIST*
D10*
%TO.P,SW3,A*%
%TO.N,ENC_A_RAW*%
X155000000Y-108500000D03*
D11*
%TO.P,SW3,B*%
%TO.N,ENC_B_RAW*%
X155000000Y-113500000D03*
%TO.P,SW3,C*%
%TO.N,GND*%
X155000000Y-111000000D03*
D12*
%TO.P,SW3,MP*%
%TO.N,N/C*%
X162500000Y-105400000D03*
X162500000Y-116600000D03*
D11*
%TO.P,SW3,S1*%
%TO.N,ENC_SW1_RAW*%
X169500000Y-113500000D03*
%TO.P,SW3,S2*%
%TO.N,GND*%
X169500000Y-108500000D03*
%TD*%
D13*
%TO.P,J5,1*%
%TO.N,VBAT_IN*%
X102900000Y-134500000D03*
D14*
%TO.P,J5,2*%
%TO.N,GND*%
X102900000Y-132000000D03*
%TD*%
D15*
%TO.P,J1,1*%
%TO.N,N$1*%
X148000000Y-146000000D03*
D16*
%TO.P,J1,2*%
%TO.N,GND*%
X150540000Y-146000000D03*
%TO.P,J1,3*%
%TO.N,N$2*%
X153080000Y-146000000D03*
%TD*%
D15*
%TO.P,J8,1*%
%TO.N,N/C*%
X119650000Y-104400000D03*
D16*
%TO.P,J8,2*%
%TO.N,PI5V_RAW*%
X119650000Y-106940000D03*
%TO.P,J8,3*%
%TO.N,PI_SDA*%
X122190000Y-104400000D03*
%TO.P,J8,4*%
%TO.N,PI5V_RAW*%
X122190000Y-106940000D03*
%TO.P,J8,5*%
%TO.N,PI_SCL*%
X124730000Y-104400000D03*
%TO.P,J8,6*%
%TO.N,GND*%
X124730000Y-106940000D03*
%TO.P,J8,7*%
%TO.N,N/C*%
X127270000Y-104400000D03*
%TO.P,J8,8*%
%TO.N,UART_RX_HDR*%
X127270000Y-106940000D03*
%TO.P,J8,9*%
%TO.N,GND*%
X129810000Y-104400000D03*
%TO.P,J8,10*%
%TO.N,UART_TX_HDR*%
X129810000Y-106940000D03*
%TO.P,J8,11*%
%TO.N,CAM_SYNC_HDR*%
X132350000Y-104400000D03*
%TO.P,J8,12*%
%TO.N,SPARE_IO_HDR*%
X132350000Y-106940000D03*
%TD*%
D13*
%TO.P,J7,1*%
%TO.N,SHUTTER_RAW*%
X102900000Y-125000000D03*
D14*
%TO.P,J7,2*%
%TO.N,GND*%
X102900000Y-122500000D03*
%TD*%
D17*
%TO.P,J4,1*%
%TO.N,VLED*%
X173600000Y-136000000D03*
D14*
%TO.P,J4,2*%
%TO.N,N$10*%
X173600000Y-138500000D03*
%TD*%
D13*
%TO.P,J6,1*%
%TO.N,VBAT_OUT*%
X102900000Y-144000000D03*
D14*
%TO.P,J6,2*%
%TO.N,GND*%
X102900000Y-141500000D03*
%TD*%
D18*
%TO.P,J2,SH*%
%TO.N,GND*%
X133680000Y-144570000D03*
D19*
X133680000Y-148750000D03*
D18*
X142320000Y-144570000D03*
D19*
X142320000Y-148750000D03*
%TD*%
D17*
%TO.P,J3,1*%
%TO.N,VLED*%
X173600000Y-122000000D03*
D14*
%TO.P,J3,2*%
%TO.N,N$7*%
X173600000Y-124500000D03*
%TD*%
D20*
%TO.N,FLASH_PWM*%
X134139000Y-125188300D03*
X139595900Y-127532400D03*
%TO.N,VSYS*%
X139839600Y-126780200D03*
X136403200Y-126621500D03*
D21*
%TO.N,GND*%
X139167000Y-106827000D03*
D22*
X157038000Y-137600000D03*
D21*
X131760000Y-137269000D03*
X108794000Y-139176000D03*
X154763000Y-132463000D03*
D20*
X131000000Y-121000000D03*
D21*
X122554000Y-124144000D03*
X134959000Y-140309000D03*
X157038000Y-125100000D03*
D20*
X131000000Y-120000000D03*
D21*
X122540000Y-117154000D03*
X123650000Y-130100000D03*
X122614000Y-126391000D03*
X142450000Y-121225000D03*
D20*
X106000000Y-130000000D03*
D21*
X112138000Y-135675000D03*
D22*
X157938000Y-125600000D03*
D21*
X117112000Y-114105000D03*
X137667000Y-111380000D03*
X114192000Y-126940000D03*
X125350000Y-127900000D03*
D20*
X130000000Y-120000000D03*
D21*
X147986000Y-142099000D03*
X134750000Y-143655000D03*
X114965000Y-104073000D03*
X138000000Y-136138000D03*
D20*
X170000000Y-130000000D03*
D21*
X113438000Y-111950000D03*
D20*
X130000000Y-121000000D03*
D21*
X164112000Y-145000000D03*
X131953000Y-112280000D03*
X160726000Y-128564000D03*
X146238000Y-132124000D03*
D20*
X129000000Y-121000000D03*
D21*
X127600000Y-138050000D03*
X131050000Y-135072000D03*
X134616000Y-133586000D03*
X113696000Y-128446000D03*
X109862000Y-136325000D03*
X127600000Y-146050000D03*
X149875000Y-139000000D03*
X135316000Y-135948000D03*
X117748000Y-121007000D03*
D20*
X131000000Y-122000000D03*
D22*
X157938000Y-137600000D03*
D20*
X129000000Y-122000000D03*
D21*
X150625000Y-125905000D03*
X150220000Y-108500000D03*
X149920000Y-136061000D03*
D20*
X106000000Y-138000000D03*
D21*
X136724000Y-114714000D03*
X155938000Y-136000000D03*
X131585000Y-142316000D03*
D20*
X129000000Y-120000000D03*
X130000000Y-122000000D03*
D21*
X110531000Y-115746000D03*
D20*
X106000000Y-122000000D03*
D21*
X157527000Y-119572000D03*
X138556000Y-108951000D03*
X131852000Y-145169000D03*
X149720000Y-117000000D03*
X122568000Y-121636000D03*
X162550000Y-147650000D03*
X109300000Y-124950000D03*
D20*
X106000000Y-106000000D03*
X146000000Y-114000000D03*
D21*
X117438000Y-123200000D03*
X117827000Y-127900000D03*
X141250000Y-143655000D03*
X141683000Y-112547000D03*
D20*
X162000000Y-130000000D03*
D21*
X116804000Y-128446000D03*
X117544000Y-117613000D03*
X157574000Y-141531000D03*
X112138000Y-133925000D03*
X117462000Y-132000000D03*
X144159000Y-127532000D03*
D22*
X157038000Y-125600000D03*
D21*
%TO.N,+3V3*%
X125387000Y-110295000D03*
X132600000Y-118900000D03*
X152635000Y-114080000D03*
X135250000Y-123550000D03*
X125190000Y-118254000D03*
X135417000Y-106827000D03*
X128000000Y-118600000D03*
X167475000Y-111700000D03*
X119738000Y-131050000D03*
X124164000Y-125291000D03*
X135250000Y-118250000D03*
X135174000Y-113614000D03*
X134153000Y-113830000D03*
X117691000Y-118787000D03*
X142450000Y-122775000D03*
X134000000Y-113600000D03*
X124104000Y-124144000D03*
X124287500Y-110295000D03*
X135250000Y-119250000D03*
X111444000Y-139176000D03*
X130900000Y-123300000D03*
X149945000Y-112977000D03*
X120466000Y-122543000D03*
X168575000Y-102359000D03*
X137933000Y-112547000D03*
X125500000Y-109600000D03*
X128852000Y-146269000D03*
X124287500Y-110295000D03*
X135250000Y-122550000D03*
X111192000Y-125840000D03*
X120194000Y-118713000D03*
X109862000Y-136975000D03*
X134300000Y-113600000D03*
X120536000Y-124951000D03*
X112575000Y-114700000D03*
X105087000Y-117505000D03*
D20*
%TO.N,ENC_B*%
X131715500Y-135948400D03*
X150197900Y-103604700D03*
X126847600Y-124269700D03*
%TO.N,QSPI_SS*%
X120500000Y-141286100D03*
X119418900Y-115629900D03*
%TO.N,ENC_SW1*%
X127828800Y-123541400D03*
X172505500Y-102220600D03*
X129854000Y-137983700D03*
D22*
%TO.N,VLED*%
X172300000Y-122000000D03*
D21*
X111965000Y-104073000D03*
D22*
X144180000Y-108500000D03*
X107331000Y-114646000D03*
X145080000Y-108500000D03*
X173200000Y-136000000D03*
X172300000Y-136000000D03*
X173200000Y-122000000D03*
X143680000Y-117000000D03*
D21*
X113438000Y-110050000D03*
D22*
X110800000Y-118500000D03*
X111700000Y-118500000D03*
X144580000Y-117000000D03*
X108231000Y-114646000D03*
D20*
%TO.N,RUN*%
X131516000Y-138222200D03*
X120276100Y-119515000D03*
X132076600Y-123529900D03*
D21*
%TO.N,VREG_1V1*%
X124900000Y-120536000D03*
D20*
X131748200Y-115486200D03*
X129934500Y-127141800D03*
X131419000Y-118455200D03*
X123019100Y-110962100D03*
D21*
X130600000Y-125600000D03*
D20*
%TO.N,SHUTTER_RAW*%
X110890700Y-123762500D03*
%TO.N,WS_DIN*%
X132533100Y-121199000D03*
X139913800Y-121208200D03*
%TO.N,WS_DIN_R*%
X155666100Y-142916400D03*
X144072300Y-126141000D03*
D21*
%TO.N,USB_DP_CONN*%
X140350000Y-146105000D03*
X137550000Y-146105000D03*
%TO.N,USB_DM_CONN*%
X136350000Y-145405000D03*
X138650000Y-145405000D03*
D20*
%TO.N,UART_TX*%
X126570300Y-116575000D03*
X131996300Y-112982600D03*
D21*
%TO.N,XIN*%
X129950000Y-133522000D03*
X126450000Y-129200000D03*
D20*
%TO.N,I2C0_SCL*%
X113258700Y-133274900D03*
X118654100Y-122891500D03*
%TO.N,N$12*%
X145159300Y-121873000D03*
X160246200Y-145052200D03*
%TO.N,UART_RX*%
X127473300Y-119270300D03*
X123207300Y-105772100D03*
D21*
%TO.N,PI_SDA*%
X125600000Y-119600000D03*
D20*
%TO.N,PI_SCL*%
X140798400Y-105305600D03*
X132073500Y-119375700D03*
%TO.N,CAM_SYNC*%
X127931700Y-120834200D03*
X140057700Y-106836400D03*
%TO.N,SPARE_IO*%
X127816500Y-121600000D03*
X147464300Y-104174400D03*
D21*
%TO.N,ENC_A*%
X143500000Y-110500000D03*
X118300000Y-113500000D03*
X118000000Y-124600000D03*
X151300000Y-104800000D03*
X124300000Y-109000000D03*
X115100000Y-121010000D03*
X137200000Y-107800000D03*
X124600000Y-126700000D03*
X121600000Y-123700000D03*
D20*
%TO.N,N$1*%
X133552100Y-126568500D03*
%TO.N,N$2*%
X132479200Y-122335500D03*
D21*
%TO.N,USB_DM*%
X134000000Y-116750000D03*
X134000000Y-115550000D03*
%TD*%
%TO.N,FLASH_PWM*%
D23*
X136483100Y-127532400D02*
X134139000Y-125188300D01*
X139595900Y-127532400D02*
X136483100Y-127532400D01*
%TO.N,VSYS*%
X139839600Y-126780200D02*
X139680900Y-126621500D01*
X139680900Y-126621500D02*
X136403200Y-126621500D01*
%TO.N,ENC_B*%
X127215400Y-120770400D02*
X127215400Y-124269700D01*
X131715500Y-125923300D02*
X131715500Y-135948400D01*
X127215400Y-124269700D02*
X130061900Y-124269700D01*
X138557600Y-106701000D02*
X138557600Y-107399300D01*
X130061900Y-124269700D02*
X131715500Y-125923300D01*
X141653900Y-103604700D02*
X138557600Y-106701000D01*
X128885000Y-117071900D02*
X128885000Y-118779500D01*
X138557600Y-107399300D02*
X128885000Y-117071900D01*
X127880500Y-119784000D02*
X127880500Y-120105400D01*
X150197900Y-103604700D02*
X141653900Y-103604700D01*
X126847600Y-124269700D02*
X127215400Y-124269700D01*
X128885000Y-118779500D02*
X127880500Y-119784000D01*
X127880400Y-120105400D02*
X127215400Y-120770400D01*
%TO.N,QSPI_SS*%
X119223600Y-140009700D02*
X119223600Y-115825200D01*
X119223600Y-115825200D02*
X119418900Y-115629900D01*
X120500000Y-141286100D02*
X119223600Y-140009700D01*
%TO.N,ENC_SW1*%
X131402900Y-123545500D02*
X131132300Y-123816100D01*
X132241000Y-121783700D02*
X140424400Y-121783700D01*
X140424400Y-121783700D02*
X142990600Y-119217500D01*
X142990600Y-119217500D02*
X155508600Y-119217500D01*
X155508600Y-119217500D02*
X172505500Y-102220600D01*
X132703800Y-123373700D02*
X132209600Y-122879500D01*
X131920100Y-122104600D02*
X132241000Y-121783700D01*
X131920100Y-122879500D02*
X131920100Y-122104600D01*
X132703800Y-137838600D02*
X132703800Y-123373700D01*
X132209600Y-122879500D02*
X131920100Y-122879500D01*
X131132300Y-123816100D02*
X128103500Y-123816100D01*
X128103500Y-123816100D02*
X127828800Y-123541400D01*
X131920100Y-122879500D02*
X131402900Y-123396700D01*
X130644300Y-138774000D02*
X131768400Y-138774000D01*
X131768400Y-138774000D02*
X132703800Y-137838600D01*
X129854000Y-137983700D02*
X130644300Y-138774000D01*
X131402900Y-123396700D02*
X131402900Y-123545500D01*
%TO.N,RUN*%
X124173100Y-130879300D02*
X131516000Y-138222200D01*
X131616000Y-138222200D02*
X132291100Y-137547100D01*
X120276100Y-119515000D02*
X121057200Y-120296100D01*
X123649300Y-126566400D02*
X123649300Y-126866300D01*
X124173100Y-127390000D02*
X124173100Y-130879300D01*
X131516000Y-138222200D02*
X131616000Y-138222200D01*
X123649300Y-126866300D02*
X124173000Y-127390000D01*
X121057200Y-120296100D02*
X121057200Y-123974300D01*
X132291100Y-137547100D02*
X132291100Y-123744400D01*
X121057200Y-123974300D02*
X123649300Y-126566400D01*
X132291100Y-123744400D02*
X132076600Y-123529900D01*
%TO.N,VREG_1V1*%
X129934500Y-126865500D02*
X130600000Y-126200000D01*
X131748200Y-118126000D02*
X131748200Y-115486200D01*
X126101700Y-119365800D02*
X125569600Y-118833700D01*
X129934500Y-127141800D02*
X129934500Y-126865500D01*
D24*
X130600000Y-126200000D02*
X124900000Y-126200000D01*
D23*
X125569600Y-118833700D02*
X125044900Y-118833700D01*
X124900000Y-121566800D02*
X126101700Y-120365100D01*
D24*
X124900000Y-121566800D02*
X124900000Y-120536000D01*
D23*
X125044900Y-118833700D02*
X123019100Y-116807900D01*
X126101700Y-120365100D02*
X126101700Y-119365800D01*
D24*
X130600000Y-125600000D02*
X130600000Y-126200000D01*
D23*
X123019100Y-116807900D02*
X123019100Y-110962100D01*
X131419000Y-118455200D02*
X131748200Y-118126000D01*
D24*
X124900000Y-126200000D02*
X124900000Y-121566800D01*
%TO.N,SHUTTER_RAW*%
D23*
X102900000Y-125000000D02*
X104137500Y-123762500D01*
X104137500Y-123762500D02*
X110890700Y-123762500D01*
%TO.N,WS_DIN*%
X132533100Y-121199000D02*
X139904600Y-121199000D01*
%TO.N,WS_DIN_R*%
X155666100Y-137734800D02*
X155666100Y-142916400D01*
X144072300Y-126141000D02*
X155666100Y-137734800D01*
%TO.N,USB_DP_CONN*%
D25*
X137550000Y-146105000D02*
X140350000Y-146105000D01*
%TO.N,USB_DM_CONN*%
X136350000Y-145405000D02*
X138650000Y-145405000D01*
%TO.N,UART_TX*%
D23*
X130162700Y-112982600D02*
X131996300Y-112982600D01*
X126570300Y-116575000D02*
X130162700Y-112982600D01*
%TO.N,XIN*%
X129950000Y-133522000D02*
X129950000Y-129200000D01*
X129950000Y-129200000D02*
X126450000Y-129200000D01*
%TO.N,I2C0_SCL*%
X113258700Y-133274900D02*
X118654100Y-127879500D01*
X118654100Y-127879500D02*
X118654100Y-122891500D01*
%TO.N,N$12*%
X160246200Y-136959900D02*
X160246200Y-145052200D01*
X145159300Y-121873000D02*
X160246200Y-136959900D01*
%TO.N,UART_RX*%
X123628300Y-115425300D02*
X127473300Y-119270300D01*
X123628300Y-106193100D02*
X123628300Y-115425300D01*
X123207300Y-105772100D02*
X123628300Y-106193100D01*
%TO.N,PI_SDA*%
D24*
X125600000Y-119600000D02*
X121000000Y-119600000D01*
X121000000Y-104500000D02*
X122190000Y-104500000D01*
X122190000Y-104500000D02*
X122190000Y-104400000D01*
X121000000Y-119600000D02*
X121000000Y-104500000D01*
%TO.N,PI_SCL*%
D23*
X134470000Y-117698200D02*
X133074700Y-117698200D01*
X140798400Y-111369800D02*
X134470000Y-117698200D01*
X133074700Y-117698200D02*
X132073500Y-118699400D01*
X132073500Y-118699400D02*
X132073500Y-119375700D01*
X140798400Y-105305600D02*
X140798400Y-111369800D01*
%TO.N,CAM_SYNC*%
X131137500Y-117026200D02*
X128413400Y-119750300D01*
X128413400Y-120352500D02*
X127931700Y-120834200D01*
X138999500Y-107894600D02*
X138559600Y-107894600D01*
X138559600Y-107894600D02*
X131137500Y-115316700D01*
X140057700Y-106836400D02*
X138999500Y-107894600D01*
X128413400Y-119750300D02*
X128413400Y-120352500D01*
X131137500Y-115316700D02*
X131137500Y-117026200D01*
%TO.N,SPARE_IO*%
X142439200Y-110242600D02*
X131568400Y-121113400D01*
X128781200Y-122564700D02*
X127816500Y-121600000D01*
X131243500Y-122564700D02*
X128781200Y-122564700D01*
X142439200Y-109199500D02*
X142439200Y-110242600D01*
X131568400Y-121113400D02*
X131568400Y-122239800D01*
X131568400Y-122239800D02*
X131243500Y-122564700D01*
X147464300Y-104174400D02*
X142439200Y-109199500D01*
%TO.N,ENC_A*%
X118000000Y-113500000D02*
X118000000Y-113800000D01*
X124300000Y-126700000D02*
X124600000Y-126700000D01*
X133000000Y-108700000D02*
X132699999Y-108700000D01*
X124300000Y-108700000D02*
X124300000Y-109000000D01*
X123400000Y-124900000D02*
X123400000Y-125200000D01*
X125500000Y-108700000D02*
X125200000Y-108700000D01*
X132100000Y-108700000D02*
X131800000Y-108700000D01*
X150700000Y-104800000D02*
X150400000Y-104800000D01*
X134800000Y-107800000D02*
X134500000Y-107800000D01*
X129100000Y-108700000D02*
X128800000Y-108700000D01*
X116500000Y-123400000D02*
X116800000Y-123400000D01*
X116500000Y-121000000D02*
X116500000Y-121300000D01*
X116500000Y-119800000D02*
X116500000Y-120100000D01*
X133600000Y-108400000D02*
X133300000Y-108400000D01*
X126700000Y-108700000D02*
X126400000Y-108700000D01*
X151000000Y-104800000D02*
X150700000Y-104800000D01*
X123700000Y-125800000D02*
X123700000Y-126100000D01*
X145300000Y-109300000D02*
X145000000Y-109300000D01*
X146500000Y-105700000D02*
X146500000Y-106000000D01*
X118300000Y-113500000D02*
X118000000Y-113500000D01*
X127000000Y-108700000D02*
X126700000Y-108700000D01*
X131500000Y-108700000D02*
X131199999Y-108700000D01*
X128800000Y-108700000D02*
X128500000Y-108700000D01*
X136600000Y-107800000D02*
X136300000Y-107800000D01*
X116800000Y-124000000D02*
X117100000Y-124000000D01*
X145900000Y-106900000D02*
X145900000Y-107200000D01*
X116500000Y-122500000D02*
X116500000Y-122800000D01*
X116500000Y-118000000D02*
X116500000Y-118300000D01*
X147100000Y-105400000D02*
X146800000Y-105400000D01*
X123400000Y-123700000D02*
X123400000Y-124000000D01*
X116500000Y-119500000D02*
X116500000Y-119800000D01*
X125800000Y-108700000D02*
X125500000Y-108700000D01*
X145900000Y-109000000D02*
X145900000Y-109300000D01*
X146800000Y-105700000D02*
X146500000Y-105700000D01*
X145900000Y-107200000D02*
X145900000Y-107500000D01*
X146500000Y-106000000D02*
X146200000Y-106000000D01*
X145900000Y-106600000D02*
X145900000Y-106900000D01*
X133900000Y-108100000D02*
X133600000Y-108100000D01*
X117400000Y-124000000D02*
X117700000Y-124000000D01*
X145900000Y-108100000D02*
X145900000Y-108400000D01*
X144100000Y-109300000D02*
X143800000Y-109300000D01*
X129400000Y-108700000D02*
X129100000Y-108700000D01*
X130000000Y-108700000D02*
X129699999Y-108700000D01*
X116500000Y-116500000D02*
X116500000Y-116800000D01*
X122200000Y-123400000D02*
X122500000Y-123400000D01*
X116500000Y-117700000D02*
X116500000Y-118000000D01*
X151300000Y-104800000D02*
X151000000Y-104800000D01*
X116500000Y-115300000D02*
X116500000Y-115600000D01*
X144700000Y-109300000D02*
X144400000Y-109300000D01*
X122500000Y-123400000D02*
X122800000Y-123400000D01*
X116500000Y-117100000D02*
X116500000Y-117400000D01*
X121900000Y-123700000D02*
X121900000Y-123400000D01*
X143500000Y-109900000D02*
X143500000Y-110200000D01*
X148000000Y-105100000D02*
X147700000Y-105100000D01*
X124300000Y-126400000D02*
X124300000Y-126700000D01*
X133300000Y-108700000D02*
X133000000Y-108700000D01*
X126400000Y-108700000D02*
X126100000Y-108700000D01*
X116500000Y-120700000D02*
X116500000Y-121000000D01*
X148600000Y-104800000D02*
X148300000Y-104800000D01*
X117100000Y-124000000D02*
X117400000Y-124000000D01*
X145900000Y-107800000D02*
X145900000Y-108100000D01*
X128199999Y-108700000D02*
X127900000Y-108700000D01*
X148000000Y-104800000D02*
X148000000Y-105100000D01*
X128500000Y-108700000D02*
X128199999Y-108700000D01*
X116500000Y-121300000D02*
X116500000Y-121600000D01*
X116500000Y-120100000D02*
X116500000Y-120400000D01*
X124000000Y-126100000D02*
X124300000Y-126100000D01*
X124300000Y-126100000D02*
X124300000Y-126400000D01*
X147400000Y-105100000D02*
X147100000Y-105100000D01*
X117700000Y-124000000D02*
X118000000Y-124000000D01*
X117400000Y-114700000D02*
X117400000Y-115000000D01*
X137200000Y-107800000D02*
X136900000Y-107800000D01*
X116500000Y-120400000D02*
X116500000Y-120700000D01*
X148900000Y-104800000D02*
X148600000Y-104800000D01*
X117100000Y-115000000D02*
X116800000Y-115000000D01*
X118000000Y-124000000D02*
X118000000Y-124300000D01*
X143500000Y-110200000D02*
X143500000Y-110500000D01*
X117700000Y-114400000D02*
X117700000Y-114700000D01*
X127300000Y-108700000D02*
X127000000Y-108700000D01*
X116800000Y-123400000D02*
X116800000Y-123700000D01*
X135100000Y-107800000D02*
X134800000Y-107800000D01*
X135400000Y-107800000D02*
X135100000Y-107800000D01*
X121900000Y-123400000D02*
X122200000Y-123400000D01*
X116500000Y-115600000D02*
X116500000Y-115900000D01*
X116500000Y-122800000D02*
X116500000Y-123100000D01*
X123400000Y-123400000D02*
X123400000Y-123700000D01*
X133300000Y-108400000D02*
X133300000Y-108700000D01*
X116500000Y-115000000D02*
X116500000Y-115300000D01*
X145900000Y-106300000D02*
X145900000Y-106600000D01*
X123100000Y-123400000D02*
X123400000Y-123400000D01*
X131199999Y-108700000D02*
X130900000Y-108700000D01*
X133600000Y-108100000D02*
X133600000Y-108400000D01*
X146200000Y-106000000D02*
X146200000Y-106300000D01*
X116800000Y-115000000D02*
X116500000Y-115000000D01*
X127600000Y-108700000D02*
X127300000Y-108700000D01*
X130300000Y-108700000D02*
X130000000Y-108700000D01*
X146800000Y-105400000D02*
X146800000Y-105700000D01*
D24*
X115100000Y-121010000D02*
X116500000Y-121010000D01*
D23*
X130600000Y-108700000D02*
X130300000Y-108700000D01*
X144400000Y-109300000D02*
X144100000Y-109300000D01*
X150400000Y-104800000D02*
X150100000Y-104800000D01*
X118000000Y-114400000D02*
X117700000Y-114400000D01*
X123400000Y-124600000D02*
X123400000Y-124900000D01*
X116500000Y-116200000D02*
X116500000Y-116500000D01*
X148300000Y-104800000D02*
X148000000Y-104800000D01*
X145000000Y-109300000D02*
X144700000Y-109300000D01*
X136900000Y-107800000D02*
X136600000Y-107800000D01*
X136300000Y-107800000D02*
X136000000Y-107800000D01*
X147700000Y-105100000D02*
X147400000Y-105100000D01*
X130900000Y-108700000D02*
X130600000Y-108700000D01*
X117700000Y-114700000D02*
X117400000Y-114700000D01*
X123400000Y-125500000D02*
X123400000Y-125800000D01*
X116500000Y-116800000D02*
X116500000Y-117100000D01*
X126100000Y-108700000D02*
X125800000Y-108700000D01*
X132699999Y-108700000D02*
X132400000Y-108700000D01*
X149200000Y-104800000D02*
X148900000Y-104800000D01*
X149500000Y-104800000D02*
X149200000Y-104800000D01*
X116500000Y-121900000D02*
X116500000Y-122200000D01*
X123400000Y-125200000D02*
X123400000Y-125500000D01*
X145600000Y-109300000D02*
X145300000Y-109300000D01*
X147100000Y-105100000D02*
X147100000Y-105400000D01*
X145900000Y-108400000D02*
X145900000Y-108700000D01*
X149800000Y-104800000D02*
X149500000Y-104800000D01*
X116800000Y-123700000D02*
X116800000Y-124000000D01*
X116500000Y-118900000D02*
X116500000Y-119200000D01*
X134500000Y-107800000D02*
X134199999Y-107800000D01*
X116500000Y-115900000D02*
X116500000Y-116200000D01*
X124600000Y-108700000D02*
X124300000Y-108700000D01*
X116500000Y-122200000D02*
X116500000Y-122500000D01*
X123400000Y-124000000D02*
X123400000Y-124300000D01*
X125200000Y-108700000D02*
X124900000Y-108700000D01*
X145900000Y-107500000D02*
X145900000Y-107800000D01*
X116500000Y-118300000D02*
X116500000Y-118600000D01*
X117400000Y-115000000D02*
X117100000Y-115000000D01*
X131800000Y-108700000D02*
X131500000Y-108700000D01*
X129699999Y-108700000D02*
X129400000Y-108700000D01*
X150100000Y-104800000D02*
X149800000Y-104800000D01*
X124900000Y-108700000D02*
X124600000Y-108700000D01*
X145900000Y-108700000D02*
X145900000Y-109000000D01*
X123700000Y-126100000D02*
X124000000Y-126100000D01*
X143500000Y-109300000D02*
X143500000Y-109600000D01*
X123400000Y-125800000D02*
X123700000Y-125800000D01*
X121600000Y-123700000D02*
X121900000Y-123700000D01*
X116500000Y-123100000D02*
X116500000Y-123400000D01*
X133900000Y-107800000D02*
X133900000Y-108100000D01*
X134199999Y-107800000D02*
X133900000Y-107800000D01*
X118000000Y-114100000D02*
X118000000Y-114400000D01*
X143800000Y-109300000D02*
X143500000Y-109300000D01*
X143500000Y-109600000D02*
X143500000Y-109900000D01*
X123400000Y-124300000D02*
X123400000Y-124600000D01*
X118000000Y-113800000D02*
X118000000Y-114100000D01*
X145900000Y-109300000D02*
X145600000Y-109300000D01*
X132400000Y-108700000D02*
X132100000Y-108700000D01*
X127900000Y-108700000D02*
X127600000Y-108700000D01*
X116500000Y-119200000D02*
X116500000Y-119500000D01*
X146200000Y-106300000D02*
X145900000Y-106300000D01*
X116500000Y-118600000D02*
X116500000Y-118900000D01*
X116500000Y-121600000D02*
X116500000Y-121900000D01*
X122800000Y-123400000D02*
X123100000Y-123400000D01*
X136000000Y-107800000D02*
X135700000Y-107800000D01*
X118000000Y-124300000D02*
X118000000Y-124600000D01*
X135700000Y-107800000D02*
X135400000Y-107800000D01*
X116500000Y-117400000D02*
X116500000Y-117700000D01*
%TO.N,N$1*%
X148000000Y-146000000D02*
X148000000Y-144898300D01*
X133552100Y-130450400D02*
X133552100Y-126568500D01*
X148000000Y-144898300D02*
X133552100Y-130450400D01*
%TO.N,N$2*%
X153080000Y-146000000D02*
X153080000Y-144947900D01*
X133415500Y-123271800D02*
X132479200Y-122335500D01*
X153080000Y-144947900D02*
X133415500Y-125283400D01*
X133415500Y-125283400D02*
X133415500Y-123271800D01*
%TO.N,USB_DM*%
D25*
X134000000Y-115550000D02*
X134000000Y-116750000D01*
%TD*%
%TA.AperFunction,Conductor*%
%TO.N,GND*%
G36*
X131118991Y-125844030D02*
G01*
X131121331Y-125843897D01*
X131135377Y-125852926D01*
X131166155Y-125869637D01*
X131336004Y-126039486D01*
X131363781Y-126094003D01*
X131365000Y-126109490D01*
X131365000Y-135479368D01*
X131346093Y-135537559D01*
X131336004Y-135549371D01*
X131274991Y-135610384D01*
X131274987Y-135610389D01*
X131202517Y-135735910D01*
X131165000Y-135875925D01*
X131165000Y-136020874D01*
X131202517Y-136160889D01*
X131274987Y-136286410D01*
X131274989Y-136286412D01*
X131274991Y-136286415D01*
X131377485Y-136388909D01*
X131377487Y-136388910D01*
X131377489Y-136388912D01*
X131503011Y-136461382D01*
X131503012Y-136461382D01*
X131503015Y-136461384D01*
X131643025Y-136498900D01*
X131643026Y-136498900D01*
X131787975Y-136498900D01*
X131815976Y-136491397D01*
X131877077Y-136494598D01*
X131924627Y-136533102D01*
X131940600Y-136587023D01*
X131940600Y-137360910D01*
X131921693Y-137419101D01*
X131911603Y-137430914D01*
X131693832Y-137648684D01*
X131639316Y-137676461D01*
X131618968Y-137677561D01*
X131608411Y-137677042D01*
X131588475Y-137671700D01*
X131499750Y-137671700D01*
X131497329Y-137671581D01*
X131470894Y-137661531D01*
X131443999Y-137652793D01*
X131440863Y-137650115D01*
X131440137Y-137649839D01*
X131439626Y-137649058D01*
X131432186Y-137642704D01*
X124552596Y-130763114D01*
X124524819Y-130708597D01*
X124523600Y-130693110D01*
X124523600Y-129134108D01*
X125949500Y-129134108D01*
X125949500Y-129265892D01*
X125979579Y-129378151D01*
X125983609Y-129393190D01*
X126049496Y-129507309D01*
X126049498Y-129507311D01*
X126049500Y-129507314D01*
X126142686Y-129600500D01*
X126142688Y-129600501D01*
X126142690Y-129600503D01*
X126256810Y-129666390D01*
X126256808Y-129666390D01*
X126256812Y-129666391D01*
X126256814Y-129666392D01*
X126384108Y-129700500D01*
X126384110Y-129700500D01*
X126515890Y-129700500D01*
X126515892Y-129700500D01*
X126643186Y-129666392D01*
X126643188Y-129666390D01*
X126643190Y-129666390D01*
X126757309Y-129600503D01*
X126757309Y-129600502D01*
X126757314Y-129600500D01*
X126778319Y-129579494D01*
X126832834Y-129551719D01*
X126848321Y-129550500D01*
X129500500Y-129550500D01*
X129558691Y-129569407D01*
X129594655Y-129618907D01*
X129599500Y-129649500D01*
X129599500Y-133123678D01*
X129580593Y-133181869D01*
X129570505Y-133193680D01*
X129549501Y-133214684D01*
X129549496Y-133214690D01*
X129483609Y-133328809D01*
X129469734Y-133380593D01*
X129449500Y-133456108D01*
X129449500Y-133587892D01*
X129456205Y-133612915D01*
X129483609Y-133715190D01*
X129549496Y-133829309D01*
X129549498Y-133829311D01*
X129549500Y-133829314D01*
X129642686Y-133922500D01*
X129642688Y-133922501D01*
X129642690Y-133922503D01*
X129756810Y-133988390D01*
X129756808Y-133988390D01*
X129756812Y-133988391D01*
X129756814Y-133988392D01*
X129884108Y-134022500D01*
X129884110Y-134022500D01*
X130015890Y-134022500D01*
X130015892Y-134022500D01*
X130143186Y-133988392D01*
X130143188Y-133988390D01*
X130143190Y-133988390D01*
X130257309Y-133922503D01*
X130257309Y-133922502D01*
X130257314Y-133922500D01*
X130350500Y-133829314D01*
X130416262Y-133715412D01*
X130416390Y-133715190D01*
X130416390Y-133715188D01*
X130416392Y-133715186D01*
X130450500Y-133587892D01*
X130450500Y-133456108D01*
X130416392Y-133328814D01*
X130416390Y-133328811D01*
X130416390Y-133328809D01*
X130350503Y-133214690D01*
X130350498Y-133214684D01*
X130329495Y-133193680D01*
X130301719Y-133139163D01*
X130300500Y-133123678D01*
X130300500Y-129153857D01*
X130300500Y-129153856D01*
X130276614Y-129064712D01*
X130230469Y-128984788D01*
X130165212Y-128919531D01*
X130085288Y-128873386D01*
X129996144Y-128849500D01*
X129996142Y-128849500D01*
X126848321Y-128849500D01*
X126790130Y-128830593D01*
X126778323Y-128820509D01*
X126757314Y-128799500D01*
X126757311Y-128799498D01*
X126757309Y-128799496D01*
X126643189Y-128733609D01*
X126643191Y-128733609D01*
X126593799Y-128720375D01*
X126515892Y-128699500D01*
X126384108Y-128699500D01*
X126306200Y-128720375D01*
X126256809Y-128733609D01*
X126142690Y-128799496D01*
X126049496Y-128892690D01*
X125983609Y-129006809D01*
X125983608Y-129006814D01*
X125949500Y-129134108D01*
X124523600Y-129134108D01*
X124523600Y-127343857D01*
X124523034Y-127341743D01*
X124518580Y-127325121D01*
X124521783Y-127264022D01*
X124560288Y-127216472D01*
X124614207Y-127200500D01*
X124665890Y-127200500D01*
X124665892Y-127200500D01*
X124793186Y-127166392D01*
X124793188Y-127166390D01*
X124793190Y-127166390D01*
X124907309Y-127100503D01*
X124907309Y-127100502D01*
X124907314Y-127100500D01*
X125000500Y-127007314D01*
X125049523Y-126922404D01*
X125066390Y-126893190D01*
X125066390Y-126893188D01*
X125066392Y-126893186D01*
X125100500Y-126765892D01*
X125100500Y-126674500D01*
X125119407Y-126616309D01*
X125168907Y-126580345D01*
X125199500Y-126575500D01*
X129483269Y-126575500D01*
X129541460Y-126594407D01*
X129577424Y-126643907D01*
X129577424Y-126705093D01*
X129553274Y-126744501D01*
X129516791Y-126780985D01*
X129493988Y-126803788D01*
X129493987Y-126803789D01*
X129421517Y-126929310D01*
X129384000Y-127069325D01*
X129384000Y-127214274D01*
X129421517Y-127354289D01*
X129493987Y-127479810D01*
X129493989Y-127479812D01*
X129493991Y-127479815D01*
X129596485Y-127582309D01*
X129596487Y-127582310D01*
X129596489Y-127582312D01*
X129722011Y-127654782D01*
X129722012Y-127654782D01*
X129722015Y-127654784D01*
X129862025Y-127692300D01*
X129862026Y-127692300D01*
X130006974Y-127692300D01*
X130006975Y-127692300D01*
X130146985Y-127654784D01*
X130146987Y-127654782D01*
X130146989Y-127654782D01*
X130272510Y-127582312D01*
X130272510Y-127582311D01*
X130272515Y-127582309D01*
X130375009Y-127479815D01*
X130375012Y-127479810D01*
X130447482Y-127354289D01*
X130447482Y-127354287D01*
X130447484Y-127354285D01*
X130485000Y-127214275D01*
X130485000Y-127069325D01*
X130447484Y-126929315D01*
X130447483Y-126929313D01*
X130445804Y-126923047D01*
X130448203Y-126922404D01*
X130444233Y-126872095D01*
X130470497Y-126825183D01*
X130737700Y-126557980D01*
X130758196Y-126542254D01*
X130830562Y-126500475D01*
X130900475Y-126430562D01*
X130935222Y-126370377D01*
X130949908Y-126344942D01*
X130949908Y-126344940D01*
X130949910Y-126344938D01*
X130975500Y-126249435D01*
X130975500Y-125973321D01*
X130991223Y-125919787D01*
X130996975Y-125910838D01*
X131000500Y-125907314D01*
X131011596Y-125888093D01*
X131012874Y-125886107D01*
X131034819Y-125868167D01*
X131055882Y-125849201D01*
X131058335Y-125848943D01*
X131060245Y-125847382D01*
X131088541Y-125845767D01*
X131116733Y-125842804D01*
X131118991Y-125844030D01*
G37*
%TD.AperFunction*%
%TA.AperFunction,Conductor*%
G36*
X123008691Y-123769407D02*
G01*
X123044655Y-123818907D01*
X123049500Y-123849500D01*
X123049500Y-125231910D01*
X123030593Y-125290101D01*
X122981093Y-125326065D01*
X122919907Y-125326065D01*
X122880496Y-125301914D01*
X121853851Y-124275269D01*
X121826074Y-124220752D01*
X121835645Y-124160320D01*
X121862514Y-124127559D01*
X121868143Y-124123115D01*
X121907314Y-124100500D01*
X121946749Y-124061063D01*
X121951307Y-124057466D01*
X121964312Y-124052658D01*
X121987023Y-124039546D01*
X122035288Y-124026614D01*
X122115212Y-123980469D01*
X122180469Y-123915212D01*
X122226614Y-123835288D01*
X122229671Y-123823875D01*
X122262995Y-123772563D01*
X122320116Y-123750636D01*
X122325298Y-123750500D01*
X122453856Y-123750500D01*
X122753856Y-123750500D01*
X122950500Y-123750500D01*
X123008691Y-123769407D01*
G37*
%TD.AperFunction*%
%TA.AperFunction,Conductor*%
G36*
X124571870Y-119994407D02*
G01*
X124607834Y-120043907D01*
X124607834Y-120105093D01*
X124583684Y-120144501D01*
X124508268Y-120219918D01*
X124499497Y-120228689D01*
X124499496Y-120228690D01*
X124433609Y-120342809D01*
X124417463Y-120403068D01*
X124399500Y-120470108D01*
X124399500Y-120601892D01*
X124429579Y-120714151D01*
X124433609Y-120729190D01*
X124499496Y-120843309D01*
X124503449Y-120848460D01*
X124501086Y-120850273D01*
X124523281Y-120893834D01*
X124524500Y-120909321D01*
X124524500Y-123637374D01*
X124505593Y-123695565D01*
X124456093Y-123731529D01*
X124394907Y-123731529D01*
X124376000Y-123723111D01*
X124297187Y-123677608D01*
X124233658Y-123660586D01*
X124169892Y-123643500D01*
X124038108Y-123643500D01*
X123982429Y-123658419D01*
X123910812Y-123677608D01*
X123898997Y-123684430D01*
X123839148Y-123697148D01*
X123783253Y-123672260D01*
X123752663Y-123619270D01*
X123750500Y-123598691D01*
X123750500Y-123353857D01*
X123750500Y-123353856D01*
X123726614Y-123264712D01*
X123680469Y-123184788D01*
X123615212Y-123119531D01*
X123593182Y-123106812D01*
X123535290Y-123073387D01*
X123535289Y-123073386D01*
X123535288Y-123073386D01*
X123446144Y-123049500D01*
X123146144Y-123049500D01*
X122846144Y-123049500D01*
X122546144Y-123049500D01*
X122246144Y-123049500D01*
X121946144Y-123049500D01*
X121853856Y-123049500D01*
X121764712Y-123073386D01*
X121764711Y-123073386D01*
X121764709Y-123073387D01*
X121684790Y-123119529D01*
X121684788Y-123119530D01*
X121684788Y-123119531D01*
X121633813Y-123170505D01*
X121629709Y-123172596D01*
X121627259Y-123176496D01*
X121609216Y-123183037D01*
X121579299Y-123198281D01*
X121570472Y-123199276D01*
X121567150Y-123199500D01*
X121534108Y-123199500D01*
X121522996Y-123202477D01*
X121513360Y-123203127D01*
X121492594Y-123197894D01*
X121471213Y-123196772D01*
X121463568Y-123190580D01*
X121454029Y-123188177D01*
X121440305Y-123171739D01*
X121423667Y-123158263D01*
X121420704Y-123148261D01*
X121414817Y-123141209D01*
X121413697Y-123124600D01*
X121407700Y-123104351D01*
X121407700Y-120249957D01*
X121407700Y-120249956D01*
X121383814Y-120160812D01*
X121368622Y-120134499D01*
X121362557Y-120123995D01*
X121355910Y-120092714D01*
X121349839Y-120064154D01*
X121349840Y-120064150D01*
X121349840Y-120064147D01*
X121360611Y-120039957D01*
X121374724Y-120008258D01*
X121374729Y-120008253D01*
X121398713Y-119994407D01*
X121427711Y-119977664D01*
X121427717Y-119977663D01*
X121427719Y-119977663D01*
X121448297Y-119975500D01*
X124513679Y-119975500D01*
X124571870Y-119994407D01*
G37*
%TD.AperFunction*%
%TA.AperFunction,Conductor*%
G36*
X131343645Y-117412480D02*
G01*
X131386910Y-117455745D01*
X131397700Y-117500690D01*
X131397700Y-117815022D01*
X131378793Y-117873213D01*
X131329293Y-117909177D01*
X131324324Y-117910648D01*
X131206515Y-117942215D01*
X131206511Y-117942217D01*
X131080989Y-118014687D01*
X130978487Y-118117189D01*
X130906017Y-118242710D01*
X130886408Y-118315892D01*
X130868500Y-118382725D01*
X130868500Y-118527675D01*
X130876441Y-118557311D01*
X130906017Y-118667689D01*
X130978487Y-118793210D01*
X130978489Y-118793212D01*
X130978491Y-118793215D01*
X131080985Y-118895709D01*
X131080987Y-118895710D01*
X131080989Y-118895712D01*
X131206511Y-118968182D01*
X131206512Y-118968182D01*
X131206515Y-118968184D01*
X131346525Y-119005700D01*
X131346526Y-119005700D01*
X131479984Y-119005700D01*
X131538175Y-119024607D01*
X131574139Y-119074107D01*
X131574139Y-119135293D01*
X131565720Y-119154200D01*
X131560517Y-119163210D01*
X131536353Y-119253390D01*
X131523000Y-119303225D01*
X131523000Y-119448175D01*
X131536343Y-119497970D01*
X131560517Y-119588189D01*
X131632987Y-119713710D01*
X131632989Y-119713712D01*
X131632991Y-119713715D01*
X131735485Y-119816209D01*
X131735487Y-119816210D01*
X131735489Y-119816212D01*
X131861011Y-119888682D01*
X131861012Y-119888682D01*
X131861015Y-119888684D01*
X132001025Y-119926200D01*
X132001026Y-119926200D01*
X132020909Y-119926200D01*
X132079100Y-119945107D01*
X132115064Y-119994607D01*
X132115064Y-120055793D01*
X132090913Y-120095203D01*
X131287930Y-120898187D01*
X131258304Y-120949501D01*
X131258303Y-120949500D01*
X131241788Y-120978107D01*
X131241786Y-120978110D01*
X131241786Y-120978112D01*
X131224547Y-121042450D01*
X131217900Y-121067257D01*
X131217900Y-122053610D01*
X131215431Y-122061207D01*
X131216681Y-122069097D01*
X131206156Y-122089752D01*
X131198993Y-122111801D01*
X131188904Y-122123614D01*
X131127314Y-122185204D01*
X131072797Y-122212981D01*
X131057310Y-122214200D01*
X128967390Y-122214200D01*
X128909199Y-122195293D01*
X128897386Y-122185204D01*
X128395996Y-121683814D01*
X128368219Y-121629297D01*
X128367000Y-121613810D01*
X128367000Y-121527525D01*
X128341111Y-121430907D01*
X128329484Y-121387515D01*
X128329482Y-121387512D01*
X128329482Y-121387510D01*
X128304300Y-121343894D01*
X128291578Y-121284046D01*
X128316464Y-121228150D01*
X128320014Y-121224409D01*
X128372209Y-121172215D01*
X128393277Y-121135725D01*
X128444682Y-121046689D01*
X128444682Y-121046687D01*
X128444684Y-121046685D01*
X128482200Y-120906675D01*
X128482200Y-120820389D01*
X128501107Y-120762198D01*
X128511190Y-120750391D01*
X128693870Y-120567712D01*
X128740014Y-120487788D01*
X128751804Y-120443786D01*
X128763900Y-120398644D01*
X128763900Y-119936490D01*
X128782807Y-119878299D01*
X128792896Y-119866486D01*
X131228696Y-117430686D01*
X131283213Y-117402909D01*
X131343645Y-117412480D01*
G37*
%TD.AperFunction*%
%TA.AperFunction,Conductor*%
G36*
X123258893Y-107561554D02*
G01*
X123277800Y-107619745D01*
X123277800Y-110332479D01*
X123258893Y-110390670D01*
X123209393Y-110426634D01*
X123153177Y-110428106D01*
X123116401Y-110418252D01*
X123091575Y-110411600D01*
X122946625Y-110411600D01*
X122890518Y-110426634D01*
X122806610Y-110449117D01*
X122681089Y-110521587D01*
X122578587Y-110624089D01*
X122506117Y-110749610D01*
X122468600Y-110889625D01*
X122468600Y-111034574D01*
X122506117Y-111174589D01*
X122578587Y-111300110D01*
X122578589Y-111300112D01*
X122578591Y-111300115D01*
X122639605Y-111361129D01*
X122667381Y-111415644D01*
X122668600Y-111431131D01*
X122668600Y-116854044D01*
X122690724Y-116936612D01*
X122690723Y-116936612D01*
X122692484Y-116943184D01*
X122692485Y-116943186D01*
X122692486Y-116943188D01*
X122738630Y-117023112D01*
X124771016Y-119055498D01*
X124798792Y-119110013D01*
X124789221Y-119170445D01*
X124745956Y-119213710D01*
X124701011Y-119224500D01*
X121474500Y-119224500D01*
X121416309Y-119205593D01*
X121380345Y-119156093D01*
X121375500Y-119125500D01*
X121375500Y-107902822D01*
X121394407Y-107844631D01*
X121443907Y-107808667D01*
X121505093Y-107808667D01*
X121532691Y-107822730D01*
X121603944Y-107874499D01*
X121613212Y-107881232D01*
X121767555Y-107959873D01*
X121767557Y-107959873D01*
X121767558Y-107959874D01*
X121767561Y-107959876D01*
X121932293Y-108013401D01*
X121932297Y-108013402D01*
X122103386Y-108040500D01*
X122103389Y-108040500D01*
X122276614Y-108040500D01*
X122447702Y-108013402D01*
X122447706Y-108013401D01*
X122612438Y-107959876D01*
X122612440Y-107959874D01*
X122612445Y-107959873D01*
X122766788Y-107881232D01*
X122906928Y-107779414D01*
X123029414Y-107656928D01*
X123098708Y-107561553D01*
X123148208Y-107525590D01*
X123209393Y-107525590D01*
X123258893Y-107561554D01*
G37*
%TD.AperFunction*%
%TA.AperFunction,Conductor*%
G36*
X136828557Y-108159233D02*
G01*
X136855837Y-108166627D01*
X136864426Y-108172240D01*
X136892686Y-108200500D01*
X137006814Y-108266392D01*
X137009666Y-108267156D01*
X137019144Y-108273350D01*
X137057512Y-108321011D01*
X137060538Y-108382121D01*
X137034990Y-108426227D01*
X132667065Y-112794152D01*
X132612548Y-112821929D01*
X132552116Y-112812358D01*
X132511325Y-112773648D01*
X132436812Y-112644589D01*
X132436810Y-112644587D01*
X132436809Y-112644585D01*
X132334315Y-112542091D01*
X132334312Y-112542089D01*
X132334310Y-112542087D01*
X132208788Y-112469617D01*
X132208789Y-112469617D01*
X132179196Y-112461687D01*
X132068775Y-112432100D01*
X131923825Y-112432100D01*
X131862090Y-112448641D01*
X131783810Y-112469617D01*
X131658289Y-112542087D01*
X131658284Y-112542091D01*
X131597271Y-112603104D01*
X131542754Y-112630881D01*
X131527268Y-112632100D01*
X130208844Y-112632100D01*
X130116556Y-112632100D01*
X130027412Y-112655986D01*
X129947488Y-112702130D01*
X126654114Y-115995504D01*
X126599597Y-116023281D01*
X126584110Y-116024500D01*
X126497825Y-116024500D01*
X126436090Y-116041041D01*
X126357810Y-116062017D01*
X126232289Y-116134487D01*
X126129787Y-116236989D01*
X126057317Y-116362510D01*
X126040965Y-116423538D01*
X126019800Y-116502525D01*
X126019800Y-116647475D01*
X126029616Y-116684108D01*
X126057317Y-116787489D01*
X126129787Y-116913010D01*
X126129789Y-116913012D01*
X126129791Y-116913015D01*
X126232285Y-117015509D01*
X126232287Y-117015510D01*
X126232289Y-117015512D01*
X126357811Y-117087982D01*
X126357812Y-117087982D01*
X126357815Y-117087984D01*
X126497825Y-117125500D01*
X126497826Y-117125500D01*
X126642774Y-117125500D01*
X126642775Y-117125500D01*
X126782785Y-117087984D01*
X126782787Y-117087982D01*
X126782789Y-117087982D01*
X126908310Y-117015512D01*
X126908310Y-117015511D01*
X126908315Y-117015509D01*
X127010809Y-116913015D01*
X127020354Y-116896483D01*
X127083282Y-116787489D01*
X127083282Y-116787487D01*
X127083284Y-116787485D01*
X127120800Y-116647475D01*
X127120800Y-116561190D01*
X127139707Y-116502999D01*
X127149796Y-116491186D01*
X130278886Y-113362096D01*
X130333403Y-113334319D01*
X130348890Y-113333100D01*
X131527268Y-113333100D01*
X131585459Y-113352007D01*
X131597271Y-113362096D01*
X131658284Y-113423108D01*
X131658289Y-113423112D01*
X131787348Y-113497625D01*
X131828289Y-113543094D01*
X131834685Y-113603945D01*
X131807852Y-113653365D01*
X128604529Y-116856689D01*
X128581554Y-116896483D01*
X128558386Y-116936610D01*
X128542462Y-116996041D01*
X128535209Y-117023112D01*
X128534500Y-117025757D01*
X128534500Y-118187679D01*
X128515593Y-118245870D01*
X128466093Y-118281834D01*
X128404907Y-118281834D01*
X128365498Y-118257684D01*
X128307314Y-118199500D01*
X128307311Y-118199498D01*
X128307309Y-118199496D01*
X128193189Y-118133609D01*
X128193191Y-118133609D01*
X128131603Y-118117107D01*
X128065892Y-118099500D01*
X127934108Y-118099500D01*
X127868397Y-118117107D01*
X127806809Y-118133609D01*
X127692690Y-118199496D01*
X127599496Y-118292690D01*
X127533609Y-118406809D01*
X127515237Y-118475376D01*
X127505140Y-118513061D01*
X127499500Y-118534109D01*
X127499500Y-118561810D01*
X127480593Y-118620001D01*
X127431093Y-118655965D01*
X127369907Y-118655965D01*
X127330496Y-118631814D01*
X124007796Y-115309114D01*
X123980019Y-115254597D01*
X123978800Y-115239110D01*
X123978800Y-110859459D01*
X123997707Y-110801268D01*
X124047207Y-110765304D01*
X124103420Y-110763832D01*
X124221608Y-110795500D01*
X124221610Y-110795500D01*
X124353390Y-110795500D01*
X124353392Y-110795500D01*
X124480686Y-110761392D01*
X124480688Y-110761390D01*
X124480690Y-110761390D01*
X124594809Y-110695503D01*
X124594809Y-110695502D01*
X124594814Y-110695500D01*
X124688000Y-110602314D01*
X124689393Y-110599901D01*
X124751514Y-110492306D01*
X124796983Y-110451365D01*
X124857833Y-110444969D01*
X124910821Y-110475562D01*
X124922986Y-110492306D01*
X124986496Y-110602309D01*
X124986498Y-110602311D01*
X124986500Y-110602314D01*
X125079686Y-110695500D01*
X125079688Y-110695501D01*
X125079690Y-110695503D01*
X125193810Y-110761390D01*
X125193808Y-110761390D01*
X125193812Y-110761391D01*
X125193814Y-110761392D01*
X125321108Y-110795500D01*
X125321110Y-110795500D01*
X125452890Y-110795500D01*
X125452892Y-110795500D01*
X125580186Y-110761392D01*
X125580188Y-110761390D01*
X125580190Y-110761390D01*
X125694309Y-110695503D01*
X125694309Y-110695502D01*
X125694314Y-110695500D01*
X125787500Y-110602314D01*
X125808528Y-110565892D01*
X125853390Y-110488190D01*
X125853390Y-110488188D01*
X125853392Y-110488186D01*
X125887500Y-110360892D01*
X125887500Y-110229108D01*
X125853392Y-110101814D01*
X125853313Y-110101678D01*
X125837426Y-110074161D01*
X125824703Y-110014313D01*
X125849588Y-109958417D01*
X125853139Y-109954674D01*
X125900500Y-109907314D01*
X125907898Y-109894500D01*
X125966390Y-109793190D01*
X125966390Y-109793188D01*
X125966392Y-109793186D01*
X126000500Y-109665892D01*
X126000500Y-109534108D01*
X125966392Y-109406814D01*
X125966390Y-109406811D01*
X125966390Y-109406809D01*
X125900503Y-109292690D01*
X125900501Y-109292688D01*
X125900500Y-109292686D01*
X125827315Y-109219501D01*
X125799540Y-109164987D01*
X125809111Y-109104555D01*
X125852376Y-109061290D01*
X125897321Y-109050500D01*
X133346142Y-109050500D01*
X133346144Y-109050500D01*
X133435288Y-109026614D01*
X133515212Y-108980469D01*
X133580469Y-108915212D01*
X133626614Y-108835288D01*
X133634786Y-108804788D01*
X133668108Y-108753475D01*
X133704787Y-108734786D01*
X133735288Y-108726614D01*
X133815212Y-108680469D01*
X133880469Y-108615212D01*
X133926614Y-108535288D01*
X133934786Y-108504788D01*
X133968108Y-108453475D01*
X134004787Y-108434786D01*
X134035288Y-108426614D01*
X134115212Y-108380469D01*
X134180469Y-108315212D01*
X134226614Y-108235288D01*
X134229671Y-108223875D01*
X134262995Y-108172563D01*
X134320116Y-108150636D01*
X134325298Y-108150500D01*
X134453856Y-108150500D01*
X134753856Y-108150500D01*
X135053856Y-108150500D01*
X135353856Y-108150500D01*
X135653856Y-108150500D01*
X135953856Y-108150500D01*
X136253856Y-108150500D01*
X136553856Y-108150500D01*
X136801679Y-108150500D01*
X136828557Y-108159233D01*
G37*
%TD.AperFunction*%
%TA.AperFunction,Conductor*%
G36*
X140415143Y-107344681D02*
G01*
X140445736Y-107397669D01*
X140447900Y-107418253D01*
X140447900Y-111183610D01*
X140428993Y-111241801D01*
X140418904Y-111253614D01*
X134631406Y-117041111D01*
X134576889Y-117068888D01*
X134516457Y-117059317D01*
X134473192Y-117016052D01*
X134463621Y-116955620D01*
X134465775Y-116945484D01*
X134466389Y-116943190D01*
X134466392Y-116943186D01*
X134500500Y-116815892D01*
X134500500Y-116684108D01*
X134466392Y-116556814D01*
X134466390Y-116556811D01*
X134466390Y-116556809D01*
X134413764Y-116465659D01*
X134400500Y-116416159D01*
X134400500Y-115883840D01*
X134413763Y-115834341D01*
X134466392Y-115743186D01*
X134500500Y-115615892D01*
X134500500Y-115484108D01*
X134466392Y-115356814D01*
X134466390Y-115356811D01*
X134466390Y-115356809D01*
X134400503Y-115242690D01*
X134400501Y-115242688D01*
X134400500Y-115242686D01*
X134307314Y-115149500D01*
X134307311Y-115149498D01*
X134307309Y-115149496D01*
X134193189Y-115083609D01*
X134193191Y-115083609D01*
X134143799Y-115070375D01*
X134065892Y-115049500D01*
X133934108Y-115049500D01*
X133856200Y-115070375D01*
X133806809Y-115083609D01*
X133692690Y-115149496D01*
X133599496Y-115242690D01*
X133533609Y-115356809D01*
X133517370Y-115417415D01*
X133499500Y-115484108D01*
X133499500Y-115615892D01*
X133533608Y-115743186D01*
X133586236Y-115834341D01*
X133599500Y-115883840D01*
X133599500Y-116416159D01*
X133586236Y-116465659D01*
X133533609Y-116556809D01*
X133533608Y-116556814D01*
X133499500Y-116684108D01*
X133499500Y-116815892D01*
X133525524Y-116913015D01*
X133533609Y-116943190D01*
X133599496Y-117057309D01*
X133599498Y-117057311D01*
X133599500Y-117057314D01*
X133692686Y-117150500D01*
X133692688Y-117150501D01*
X133692690Y-117150503D01*
X133714273Y-117162964D01*
X133755214Y-117208433D01*
X133761610Y-117269283D01*
X133731017Y-117322271D01*
X133675121Y-117347158D01*
X133664773Y-117347700D01*
X133028556Y-117347700D01*
X133020024Y-117349985D01*
X132988183Y-117358517D01*
X132988183Y-117358518D01*
X132963797Y-117365052D01*
X132939411Y-117371586D01*
X132885159Y-117402909D01*
X132868582Y-117412480D01*
X132859485Y-117417732D01*
X132267703Y-118009513D01*
X132213187Y-118037290D01*
X132152755Y-118027719D01*
X132109490Y-117984454D01*
X132098700Y-117939509D01*
X132098700Y-115955231D01*
X132117607Y-115897040D01*
X132127690Y-115885233D01*
X132188709Y-115824215D01*
X132198570Y-115807135D01*
X132261182Y-115698689D01*
X132261182Y-115698687D01*
X132261184Y-115698685D01*
X132298700Y-115558675D01*
X132298700Y-115413725D01*
X132261184Y-115273715D01*
X132261182Y-115273712D01*
X132261182Y-115273710D01*
X132188712Y-115148189D01*
X132188710Y-115148187D01*
X132188709Y-115148185D01*
X132086215Y-115045691D01*
X132086212Y-115045689D01*
X132086210Y-115045687D01*
X132082548Y-115043573D01*
X132041608Y-114998103D01*
X132035214Y-114937252D01*
X132062044Y-114887836D01*
X133332709Y-113617171D01*
X133387224Y-113589396D01*
X133447656Y-113598967D01*
X133490921Y-113642232D01*
X133498338Y-113661554D01*
X133499500Y-113665890D01*
X133499500Y-113665892D01*
X133523070Y-113753856D01*
X133533609Y-113793190D01*
X133599496Y-113907309D01*
X133599500Y-113907314D01*
X133657322Y-113965137D01*
X133682944Y-114009514D01*
X133686607Y-114023186D01*
X133686609Y-114023189D01*
X133752496Y-114137309D01*
X133752498Y-114137311D01*
X133752500Y-114137314D01*
X133845686Y-114230500D01*
X133845688Y-114230501D01*
X133845690Y-114230503D01*
X133959810Y-114296390D01*
X133959808Y-114296390D01*
X133959812Y-114296391D01*
X133959814Y-114296392D01*
X134087108Y-114330500D01*
X134087110Y-114330500D01*
X134218890Y-114330500D01*
X134218892Y-114330500D01*
X134346186Y-114296392D01*
X134346188Y-114296390D01*
X134346190Y-114296390D01*
X134460309Y-114230503D01*
X134460309Y-114230502D01*
X134460314Y-114230500D01*
X134553500Y-114137314D01*
X134619392Y-114023186D01*
X134625250Y-114001322D01*
X134650869Y-113956943D01*
X134659999Y-113947813D01*
X134714512Y-113920039D01*
X134774944Y-113929610D01*
X134799999Y-113947813D01*
X134866686Y-114014500D01*
X134866688Y-114014501D01*
X134866690Y-114014503D01*
X134980810Y-114080390D01*
X134980808Y-114080390D01*
X134980812Y-114080391D01*
X134980814Y-114080392D01*
X135108108Y-114114500D01*
X135108110Y-114114500D01*
X135239890Y-114114500D01*
X135239892Y-114114500D01*
X135367186Y-114080392D01*
X135367188Y-114080390D01*
X135367190Y-114080390D01*
X135481309Y-114014503D01*
X135481309Y-114014502D01*
X135481314Y-114014500D01*
X135574500Y-113921314D01*
X135640392Y-113807186D01*
X135674500Y-113679892D01*
X135674500Y-113548108D01*
X135640392Y-113420814D01*
X135640390Y-113420811D01*
X135640390Y-113420809D01*
X135574503Y-113306690D01*
X135574501Y-113306688D01*
X135574500Y-113306686D01*
X135481314Y-113213500D01*
X135481311Y-113213498D01*
X135481309Y-113213496D01*
X135367189Y-113147609D01*
X135367191Y-113147609D01*
X135317799Y-113134375D01*
X135239892Y-113113500D01*
X135108108Y-113113500D01*
X135030200Y-113134375D01*
X134980809Y-113147609D01*
X134866690Y-113213496D01*
X134866684Y-113213501D01*
X134814001Y-113266183D01*
X134759484Y-113293959D01*
X134699052Y-113284387D01*
X134673998Y-113266184D01*
X134607314Y-113199500D01*
X134607311Y-113199498D01*
X134607309Y-113199496D01*
X134493189Y-113133609D01*
X134493191Y-113133609D01*
X134443799Y-113120375D01*
X134365892Y-113099500D01*
X134234108Y-113099500D01*
X134234105Y-113099500D01*
X134175621Y-113115170D01*
X134124379Y-113115170D01*
X134061556Y-113098338D01*
X134010241Y-113065015D01*
X133988313Y-113007894D01*
X134004148Y-112948793D01*
X134017168Y-112932712D01*
X134468772Y-112481108D01*
X137432500Y-112481108D01*
X137432500Y-112612892D01*
X137437647Y-112632100D01*
X137466609Y-112740190D01*
X137532496Y-112854309D01*
X137532498Y-112854311D01*
X137532500Y-112854314D01*
X137625686Y-112947500D01*
X137625688Y-112947501D01*
X137625690Y-112947503D01*
X137739810Y-113013390D01*
X137739808Y-113013390D01*
X137739812Y-113013391D01*
X137739814Y-113013392D01*
X137867108Y-113047500D01*
X137867110Y-113047500D01*
X137998890Y-113047500D01*
X137998892Y-113047500D01*
X138126186Y-113013392D01*
X138126188Y-113013390D01*
X138126190Y-113013390D01*
X138240309Y-112947503D01*
X138240309Y-112947502D01*
X138240314Y-112947500D01*
X138333500Y-112854314D01*
X138352198Y-112821929D01*
X138399390Y-112740190D01*
X138399390Y-112740188D01*
X138399392Y-112740186D01*
X138433500Y-112612892D01*
X138433500Y-112481108D01*
X138399392Y-112353814D01*
X138399390Y-112353811D01*
X138399390Y-112353809D01*
X138333503Y-112239690D01*
X138333501Y-112239688D01*
X138333500Y-112239686D01*
X138240314Y-112146500D01*
X138240311Y-112146498D01*
X138240309Y-112146496D01*
X138126189Y-112080609D01*
X138126191Y-112080609D01*
X138076799Y-112067375D01*
X137998892Y-112046500D01*
X137867108Y-112046500D01*
X137789200Y-112067375D01*
X137739809Y-112080609D01*
X137625690Y-112146496D01*
X137532496Y-112239690D01*
X137466609Y-112353809D01*
X137466608Y-112353814D01*
X137432500Y-112481108D01*
X134468772Y-112481108D01*
X138675786Y-108274096D01*
X138730303Y-108246319D01*
X138745790Y-108245100D01*
X139045642Y-108245100D01*
X139045644Y-108245100D01*
X139134788Y-108221214D01*
X139135280Y-108220930D01*
X139214712Y-108175070D01*
X139973886Y-107415896D01*
X140028403Y-107388119D01*
X140043890Y-107386900D01*
X140130174Y-107386900D01*
X140130175Y-107386900D01*
X140270185Y-107349384D01*
X140299399Y-107332516D01*
X140359247Y-107319795D01*
X140415143Y-107344681D01*
G37*
%TD.AperFunction*%
%TA.AperFunction,Conductor*%
G36*
X140251066Y-105553561D02*
G01*
X140271670Y-105552455D01*
X140280603Y-105558239D01*
X140291118Y-105559905D01*
X140308180Y-105576097D01*
X140323028Y-105585711D01*
X140327983Y-105591814D01*
X140357891Y-105643615D01*
X140422524Y-105708248D01*
X140425755Y-105712227D01*
X140435002Y-105736223D01*
X140446681Y-105759144D01*
X140445852Y-105764376D01*
X140447757Y-105769319D01*
X140447900Y-105774631D01*
X140447900Y-106254546D01*
X140428993Y-106312737D01*
X140379493Y-106348701D01*
X140318307Y-106348701D01*
X140299401Y-106340283D01*
X140270188Y-106323417D01*
X140270185Y-106323416D01*
X140130175Y-106285900D01*
X139985225Y-106285900D01*
X139923490Y-106302441D01*
X139845210Y-106323417D01*
X139719689Y-106395887D01*
X139617187Y-106498389D01*
X139544717Y-106623910D01*
X139507200Y-106763925D01*
X139507200Y-106850209D01*
X139488293Y-106908400D01*
X139478204Y-106920213D01*
X139077104Y-107321313D01*
X139022587Y-107349090D01*
X138962155Y-107339519D01*
X138918890Y-107296254D01*
X138908100Y-107251309D01*
X138908100Y-106887189D01*
X138927007Y-106828998D01*
X138937090Y-106817191D01*
X140176171Y-105578109D01*
X140194555Y-105568742D01*
X140210573Y-105555737D01*
X140221202Y-105555166D01*
X140230686Y-105550334D01*
X140251066Y-105553561D01*
G37*
%TD.AperFunction*%
%TA.AperFunction,Conductor*%
G36*
X175459191Y-100518907D02*
G01*
X175495155Y-100568407D01*
X175500000Y-100599000D01*
X175500000Y-149401000D01*
X175481093Y-149459191D01*
X175431593Y-149495155D01*
X175401000Y-149500000D01*
X100599000Y-149500000D01*
X100540809Y-149481093D01*
X100504845Y-149431593D01*
X100500000Y-149401000D01*
X100500000Y-146873720D01*
X109395500Y-146873720D01*
X109395500Y-147126279D01*
X109435007Y-147375716D01*
X109435009Y-147375721D01*
X109513052Y-147615914D01*
X109627709Y-147840941D01*
X109776156Y-148045261D01*
X109954739Y-148223844D01*
X110159059Y-148372291D01*
X110384086Y-148486948D01*
X110624279Y-148564991D01*
X110624280Y-148564991D01*
X110624283Y-148564992D01*
X110873720Y-148604500D01*
X110873723Y-148604500D01*
X111126280Y-148604500D01*
X111375716Y-148564992D01*
X111375717Y-148564991D01*
X111375721Y-148564991D01*
X111615914Y-148486948D01*
X111840941Y-148372291D01*
X112045261Y-148223844D01*
X112223844Y-148045261D01*
X112372291Y-147840941D01*
X112486948Y-147615914D01*
X112564991Y-147375721D01*
X112604500Y-147126277D01*
X112604500Y-146873723D01*
X112592796Y-146799829D01*
X112564992Y-146624283D01*
X112549406Y-146576314D01*
X112486948Y-146384086D01*
X112394735Y-146203108D01*
X128351500Y-146203108D01*
X128351500Y-146334892D01*
X128374960Y-146422445D01*
X128385609Y-146462190D01*
X128451496Y-146576309D01*
X128451498Y-146576311D01*
X128451500Y-146576314D01*
X128544686Y-146669500D01*
X128544688Y-146669501D01*
X128544690Y-146669503D01*
X128658810Y-146735390D01*
X128658808Y-146735390D01*
X128658812Y-146735391D01*
X128658814Y-146735392D01*
X128786108Y-146769500D01*
X128786110Y-146769500D01*
X128917890Y-146769500D01*
X128917892Y-146769500D01*
X129045186Y-146735392D01*
X129045188Y-146735390D01*
X129045190Y-146735390D01*
X129159309Y-146669503D01*
X129159309Y-146669502D01*
X129159314Y-146669500D01*
X129252500Y-146576314D01*
X129318392Y-146462186D01*
X129352500Y-146334892D01*
X129352500Y-146203108D01*
X129318392Y-146075814D01*
X129318390Y-146075811D01*
X129318390Y-146075809D01*
X129252503Y-145961690D01*
X129252501Y-145961688D01*
X129252500Y-145961686D01*
X129159314Y-145868500D01*
X129159311Y-145868498D01*
X129159309Y-145868496D01*
X129045189Y-145802609D01*
X129045191Y-145802609D01*
X128995799Y-145789375D01*
X128917892Y-145768500D01*
X128786108Y-145768500D01*
X128708200Y-145789375D01*
X128658809Y-145802609D01*
X128544690Y-145868496D01*
X128451496Y-145961690D01*
X128385609Y-146075809D01*
X128385608Y-146075814D01*
X128351500Y-146203108D01*
X112394735Y-146203108D01*
X112372292Y-146159060D01*
X112319657Y-146086614D01*
X112223844Y-145954739D01*
X112045261Y-145776156D01*
X111840941Y-145627709D01*
X111840940Y-145627708D01*
X111840938Y-145627707D01*
X111615914Y-145513052D01*
X111375716Y-145435007D01*
X111126280Y-145395500D01*
X111126277Y-145395500D01*
X110873723Y-145395500D01*
X110873720Y-145395500D01*
X110624283Y-145435007D01*
X110384085Y-145513052D01*
X110159061Y-145627707D01*
X109954740Y-145776155D01*
X109776155Y-145954740D01*
X109627707Y-146159061D01*
X109513052Y-146384085D01*
X109435007Y-146624283D01*
X109395500Y-146873720D01*
X100500000Y-146873720D01*
X100500000Y-141249999D01*
X101524014Y-141249999D01*
X101524015Y-141250000D01*
X102466988Y-141250000D01*
X102434075Y-141307007D01*
X102400000Y-141434174D01*
X102400000Y-141565826D01*
X102434075Y-141692993D01*
X102466988Y-141750000D01*
X101524015Y-141750000D01*
X101530777Y-141792704D01*
X101591580Y-141979833D01*
X101680903Y-142155142D01*
X101680907Y-142155148D01*
X101796549Y-142314314D01*
X101935685Y-142453450D01*
X102094851Y-142569092D01*
X102094857Y-142569096D01*
X102270166Y-142658419D01*
X102417665Y-142706345D01*
X102467165Y-142742309D01*
X102486072Y-142800500D01*
X102467165Y-142858691D01*
X102417665Y-142894655D01*
X102387072Y-142899500D01*
X102102133Y-142899500D01*
X102102129Y-142899500D01*
X102102128Y-142899501D01*
X102094949Y-142900272D01*
X102042519Y-142905908D01*
X102042514Y-142905909D01*
X101907670Y-142956202D01*
X101792458Y-143042450D01*
X101792450Y-143042458D01*
X101706202Y-143157670D01*
X101655910Y-143292511D01*
X101655908Y-143292522D01*
X101649500Y-143352129D01*
X101649500Y-144647866D01*
X101649501Y-144647870D01*
X101655908Y-144707480D01*
X101655909Y-144707485D01*
X101706202Y-144842329D01*
X101791858Y-144956750D01*
X101792454Y-144957546D01*
X101792457Y-144957548D01*
X101792458Y-144957549D01*
X101907670Y-145043797D01*
X102042511Y-145094089D01*
X102042512Y-145094089D01*
X102042517Y-145094091D01*
X102102127Y-145100500D01*
X103697872Y-145100499D01*
X103757483Y-145094091D01*
X103852189Y-145058768D01*
X103892329Y-145043797D01*
X103892329Y-145043796D01*
X103892331Y-145043796D01*
X103919166Y-145023707D01*
X134530500Y-145023707D01*
X134530500Y-145176292D01*
X134569993Y-145323682D01*
X134646281Y-145455816D01*
X134646283Y-145455818D01*
X134646285Y-145455821D01*
X134754179Y-145563715D01*
X134754181Y-145563716D01*
X134754183Y-145563718D01*
X134886318Y-145640006D01*
X134886319Y-145640006D01*
X134886322Y-145640008D01*
X135033707Y-145679500D01*
X135033708Y-145679500D01*
X135186292Y-145679500D01*
X135186293Y-145679500D01*
X135333678Y-145640008D01*
X135333680Y-145640006D01*
X135333682Y-145640006D01*
X135465816Y-145563718D01*
X135465816Y-145563717D01*
X135465821Y-145563715D01*
X135573715Y-145455821D01*
X135592542Y-145423212D01*
X135641100Y-145339108D01*
X135849500Y-145339108D01*
X135849500Y-145470892D01*
X135874765Y-145565182D01*
X135883609Y-145598190D01*
X135949496Y-145712309D01*
X135949498Y-145712311D01*
X135949500Y-145712314D01*
X136042686Y-145805500D01*
X136042688Y-145805501D01*
X136042690Y-145805503D01*
X136156810Y-145871390D01*
X136156808Y-145871390D01*
X136156812Y-145871391D01*
X136156814Y-145871392D01*
X136284108Y-145905500D01*
X136284110Y-145905500D01*
X136415890Y-145905500D01*
X136415892Y-145905500D01*
X136543186Y-145871392D01*
X136634341Y-145818763D01*
X136683840Y-145805500D01*
X136983076Y-145805500D01*
X137041267Y-145824407D01*
X137077231Y-145873907D01*
X137078702Y-145930120D01*
X137049500Y-146039108D01*
X137049500Y-146170892D01*
X137072762Y-146257706D01*
X137083609Y-146298190D01*
X137149496Y-146412309D01*
X137149498Y-146412311D01*
X137149500Y-146412314D01*
X137242686Y-146505500D01*
X137242688Y-146505501D01*
X137242690Y-146505503D01*
X137356810Y-146571390D01*
X137356808Y-146571390D01*
X137356812Y-146571391D01*
X137356814Y-146571392D01*
X137484108Y-146605500D01*
X137484110Y-146605500D01*
X137615890Y-146605500D01*
X137615892Y-146605500D01*
X137743186Y-146571392D01*
X137834341Y-146518763D01*
X137883840Y-146505500D01*
X140016160Y-146505500D01*
X140065658Y-146518763D01*
X140156814Y-146571392D01*
X140284108Y-146605500D01*
X140284110Y-146605500D01*
X140415890Y-146605500D01*
X140415892Y-146605500D01*
X140543186Y-146571392D01*
X140543188Y-146571390D01*
X140543190Y-146571390D01*
X140657309Y-146505503D01*
X140657309Y-146505502D01*
X140657314Y-146505500D01*
X140750500Y-146412314D01*
X140750503Y-146412309D01*
X140816390Y-146298190D01*
X140816390Y-146298188D01*
X140816392Y-146298186D01*
X140850500Y-146170892D01*
X140850500Y-146039108D01*
X140816392Y-145911814D01*
X140768002Y-145828000D01*
X140755281Y-145768152D01*
X140780168Y-145712256D01*
X140833156Y-145681663D01*
X140853739Y-145679500D01*
X140966292Y-145679500D01*
X140966293Y-145679500D01*
X141113678Y-145640008D01*
X141113680Y-145640006D01*
X141113682Y-145640006D01*
X141245816Y-145563718D01*
X141245816Y-145563717D01*
X141245821Y-145563715D01*
X141353715Y-145455821D01*
X141372542Y-145423212D01*
X141430006Y-145323682D01*
X141430006Y-145323680D01*
X141430008Y-145323678D01*
X141469500Y-145176293D01*
X141469500Y-145023707D01*
X141430008Y-144876322D01*
X141430006Y-144876319D01*
X141430006Y-144876317D01*
X141353718Y-144744183D01*
X141353716Y-144744181D01*
X141353715Y-144744179D01*
X141245821Y-144636285D01*
X141245818Y-144636283D01*
X141245816Y-144636281D01*
X141113681Y-144559993D01*
X141113682Y-144559993D01*
X141082532Y-144551646D01*
X140966293Y-144520500D01*
X140813707Y-144520500D01*
X140748720Y-144537913D01*
X140666317Y-144559993D01*
X140534183Y-144636281D01*
X140426281Y-144744183D01*
X140349993Y-144876317D01*
X140310500Y-145023707D01*
X140310500Y-145176292D01*
X140349993Y-145323682D01*
X140426388Y-145456000D01*
X140439110Y-145515848D01*
X140414224Y-145571744D01*
X140361236Y-145602337D01*
X140340652Y-145604500D01*
X140284108Y-145604500D01*
X140156814Y-145638608D01*
X140156813Y-145638608D01*
X140156811Y-145638609D01*
X140108750Y-145666357D01*
X140065658Y-145691236D01*
X140016160Y-145704500D01*
X139216924Y-145704500D01*
X139158733Y-145685593D01*
X139122769Y-145636093D01*
X139121297Y-145579879D01*
X139150500Y-145470892D01*
X139150500Y-145339108D01*
X139116392Y-145211814D01*
X139116390Y-145211811D01*
X139116390Y-145211809D01*
X139050503Y-145097690D01*
X139050501Y-145097688D01*
X139050500Y-145097686D01*
X138957314Y-145004500D01*
X138957311Y-145004498D01*
X138957309Y-145004496D01*
X138843189Y-144938609D01*
X138843191Y-144938609D01*
X138793799Y-144925375D01*
X138715892Y-144904500D01*
X138584108Y-144904500D01*
X138456814Y-144938608D01*
X138456813Y-144938608D01*
X138456811Y-144938609D01*
X138424007Y-144957549D01*
X138365658Y-144991236D01*
X138316160Y-145004500D01*
X136683840Y-145004500D01*
X136634341Y-144991236D01*
X136543186Y-144938608D01*
X136415892Y-144904500D01*
X136284108Y-144904500D01*
X136206200Y-144925375D01*
X136156809Y-144938609D01*
X136042690Y-145004496D01*
X135949496Y-145097690D01*
X135883623Y-145211785D01*
X135883621Y-145211790D01*
X135883608Y-145211814D01*
X135849500Y-145339108D01*
X135641100Y-145339108D01*
X135650006Y-145323682D01*
X135650006Y-145323680D01*
X135650008Y-145323678D01*
X135689500Y-145176293D01*
X135689500Y-145023707D01*
X135650008Y-144876322D01*
X135650006Y-144876319D01*
X135650006Y-144876317D01*
X135573718Y-144744183D01*
X135573716Y-144744181D01*
X135573715Y-144744179D01*
X135465821Y-144636285D01*
X135465818Y-144636283D01*
X135465816Y-144636281D01*
X135333681Y-144559993D01*
X135333682Y-144559993D01*
X135302532Y-144551646D01*
X135186293Y-144520500D01*
X135033707Y-144520500D01*
X134968720Y-144537913D01*
X134886317Y-144559993D01*
X134754183Y-144636281D01*
X134646281Y-144744183D01*
X134569993Y-144876317D01*
X134530500Y-145023707D01*
X103919166Y-145023707D01*
X104007546Y-144957546D01*
X104093796Y-144842331D01*
X104104881Y-144812612D01*
X104144089Y-144707488D01*
X104144090Y-144707485D01*
X104144091Y-144707483D01*
X104150500Y-144647873D01*
X104150499Y-143352128D01*
X104144091Y-143292517D01*
X104129878Y-143254410D01*
X104093797Y-143157670D01*
X104007549Y-143042458D01*
X104007548Y-143042457D01*
X104007546Y-143042454D01*
X103935974Y-142988875D01*
X103892329Y-142956202D01*
X103757488Y-142905910D01*
X103757483Y-142905909D01*
X103757481Y-142905908D01*
X103757477Y-142905908D01*
X103726249Y-142902550D01*
X103697873Y-142899500D01*
X103697870Y-142899500D01*
X103412929Y-142899500D01*
X103354738Y-142880593D01*
X103318774Y-142831093D01*
X103318774Y-142769907D01*
X103354738Y-142720407D01*
X103382336Y-142706345D01*
X103529833Y-142658419D01*
X103705142Y-142569096D01*
X103705148Y-142569092D01*
X103864314Y-142453450D01*
X104003450Y-142314314D01*
X104119092Y-142155148D01*
X104119096Y-142155142D01*
X104208419Y-141979833D01*
X104269222Y-141792704D01*
X104275985Y-141750000D01*
X103333012Y-141750000D01*
X103365925Y-141692993D01*
X103400000Y-141565826D01*
X103400000Y-141434174D01*
X103365925Y-141307007D01*
X103333012Y-141250000D01*
X104275985Y-141250000D01*
X104275985Y-141249999D01*
X104269222Y-141207295D01*
X104208419Y-141020166D01*
X104119096Y-140844857D01*
X104119092Y-140844851D01*
X104003450Y-140685685D01*
X103864314Y-140546549D01*
X103705148Y-140430907D01*
X103705142Y-140430903D01*
X103529829Y-140341578D01*
X103529826Y-140341576D01*
X103342714Y-140280779D01*
X103342710Y-140280778D01*
X103150000Y-140250256D01*
X103150000Y-141066988D01*
X103092993Y-141034075D01*
X102965826Y-141000000D01*
X102834174Y-141000000D01*
X102707007Y-141034075D01*
X102650000Y-141066988D01*
X102650000Y-140250256D01*
X102457289Y-140280778D01*
X102457285Y-140280779D01*
X102270173Y-140341576D01*
X102270170Y-140341578D01*
X102094857Y-140430903D01*
X102094851Y-140430907D01*
X101935685Y-140546549D01*
X101796549Y-140685685D01*
X101680907Y-140844851D01*
X101680903Y-140844857D01*
X101591580Y-141020166D01*
X101530777Y-141207295D01*
X101524014Y-141249999D01*
X100500000Y-141249999D01*
X100500000Y-139110108D01*
X110943500Y-139110108D01*
X110943500Y-139241892D01*
X110969631Y-139339414D01*
X110977609Y-139369190D01*
X111043496Y-139483309D01*
X111043498Y-139483311D01*
X111043500Y-139483314D01*
X111136686Y-139576500D01*
X111136688Y-139576501D01*
X111136690Y-139576503D01*
X111250810Y-139642390D01*
X111250808Y-139642390D01*
X111250812Y-139642391D01*
X111250814Y-139642392D01*
X111378108Y-139676500D01*
X111378110Y-139676500D01*
X111509890Y-139676500D01*
X111509892Y-139676500D01*
X111637186Y-139642392D01*
X111637188Y-139642390D01*
X111637190Y-139642390D01*
X111751309Y-139576503D01*
X111751309Y-139576502D01*
X111751314Y-139576500D01*
X111844500Y-139483314D01*
X111910392Y-139369186D01*
X111944500Y-139241892D01*
X111944500Y-139110108D01*
X111910392Y-138982814D01*
X111910390Y-138982811D01*
X111910390Y-138982809D01*
X111844503Y-138868690D01*
X111844501Y-138868688D01*
X111844500Y-138868686D01*
X111751314Y-138775500D01*
X111751311Y-138775498D01*
X111751309Y-138775496D01*
X111637189Y-138709609D01*
X111637191Y-138709609D01*
X111587799Y-138696375D01*
X111509892Y-138675500D01*
X111378108Y-138675500D01*
X111300200Y-138696375D01*
X111250809Y-138709609D01*
X111136690Y-138775496D01*
X111043496Y-138868690D01*
X110977609Y-138982809D01*
X110977608Y-138982814D01*
X110943500Y-139110108D01*
X100500000Y-139110108D01*
X100500000Y-136909108D01*
X109361500Y-136909108D01*
X109361500Y-137040892D01*
X109385538Y-137130603D01*
X109395609Y-137168190D01*
X109461496Y-137282309D01*
X109461498Y-137282311D01*
X109461500Y-137282314D01*
X109554686Y-137375500D01*
X109554688Y-137375501D01*
X109554690Y-137375503D01*
X109668810Y-137441390D01*
X109668808Y-137441390D01*
X109668812Y-137441391D01*
X109668814Y-137441392D01*
X109796108Y-137475500D01*
X109796110Y-137475500D01*
X109927890Y-137475500D01*
X109927892Y-137475500D01*
X110055186Y-137441392D01*
X110055188Y-137441390D01*
X110055190Y-137441390D01*
X110169309Y-137375503D01*
X110169309Y-137375502D01*
X110169314Y-137375500D01*
X110262500Y-137282314D01*
X110328392Y-137168186D01*
X110362500Y-137040892D01*
X110362500Y-136909108D01*
X110328392Y-136781814D01*
X110328390Y-136781811D01*
X110328390Y-136781809D01*
X110262503Y-136667690D01*
X110262501Y-136667688D01*
X110262500Y-136667686D01*
X110169314Y-136574500D01*
X110169311Y-136574498D01*
X110169309Y-136574496D01*
X110055189Y-136508609D01*
X110055191Y-136508609D01*
X109990953Y-136491397D01*
X109927892Y-136474500D01*
X109796108Y-136474500D01*
X109733047Y-136491397D01*
X109668809Y-136508609D01*
X109554690Y-136574496D01*
X109461496Y-136667690D01*
X109395609Y-136781809D01*
X109395608Y-136781814D01*
X109361500Y-136909108D01*
X100500000Y-136909108D01*
X100500000Y-131749999D01*
X101524014Y-131749999D01*
X101524015Y-131750000D01*
X102466988Y-131750000D01*
X102434075Y-131807007D01*
X102400000Y-131934174D01*
X102400000Y-132065826D01*
X102434075Y-132192993D01*
X102466988Y-132250000D01*
X101524015Y-132250000D01*
X101530777Y-132292704D01*
X101591580Y-132479833D01*
X101680903Y-132655142D01*
X101680907Y-132655148D01*
X101796549Y-132814314D01*
X101935685Y-132953450D01*
X102094851Y-133069092D01*
X102094857Y-133069096D01*
X102270166Y-133158419D01*
X102417665Y-133206345D01*
X102467165Y-133242309D01*
X102486072Y-133300500D01*
X102467165Y-133358691D01*
X102417665Y-133394655D01*
X102387072Y-133399500D01*
X102102133Y-133399500D01*
X102102129Y-133399500D01*
X102102128Y-133399501D01*
X102094949Y-133400272D01*
X102042519Y-133405908D01*
X102042514Y-133405909D01*
X101907670Y-133456202D01*
X101792458Y-133542450D01*
X101792450Y-133542458D01*
X101706202Y-133657670D01*
X101655910Y-133792511D01*
X101655908Y-133792522D01*
X101649500Y-133852129D01*
X101649500Y-135147866D01*
X101649501Y-135147870D01*
X101655908Y-135207480D01*
X101655909Y-135207485D01*
X101706202Y-135342329D01*
X101792450Y-135457541D01*
X101792454Y-135457546D01*
X101792457Y-135457548D01*
X101792458Y-135457549D01*
X101907670Y-135543797D01*
X102042511Y-135594089D01*
X102042512Y-135594089D01*
X102042517Y-135594091D01*
X102102127Y-135600500D01*
X103697872Y-135600499D01*
X103757483Y-135594091D01*
X103877384Y-135549371D01*
X103892329Y-135543797D01*
X103892329Y-135543796D01*
X103892331Y-135543796D01*
X104007546Y-135457546D01*
X104093796Y-135342331D01*
X104112376Y-135292517D01*
X104144089Y-135207488D01*
X104144090Y-135207485D01*
X104144091Y-135207483D01*
X104150500Y-135147873D01*
X104150499Y-133852128D01*
X104144091Y-133792517D01*
X104115250Y-133715190D01*
X104093797Y-133657670D01*
X104007549Y-133542458D01*
X104007548Y-133542457D01*
X104007546Y-133542454D01*
X103933989Y-133487389D01*
X103892329Y-133456202D01*
X103757488Y-133405910D01*
X103757483Y-133405909D01*
X103757481Y-133405908D01*
X103757477Y-133405908D01*
X103726249Y-133402550D01*
X103697873Y-133399500D01*
X103697870Y-133399500D01*
X103412929Y-133399500D01*
X103354738Y-133380593D01*
X103318774Y-133331093D01*
X103318774Y-133269907D01*
X103354738Y-133220407D01*
X103382336Y-133206345D01*
X103394400Y-133202425D01*
X112708200Y-133202425D01*
X112708200Y-133347374D01*
X112745717Y-133487389D01*
X112818187Y-133612910D01*
X112818189Y-133612912D01*
X112818191Y-133612915D01*
X112920685Y-133715409D01*
X112920687Y-133715410D01*
X112920689Y-133715412D01*
X113046211Y-133787882D01*
X113046212Y-133787882D01*
X113046215Y-133787884D01*
X113186225Y-133825400D01*
X113186226Y-133825400D01*
X113331174Y-133825400D01*
X113331175Y-133825400D01*
X113471185Y-133787884D01*
X113471187Y-133787882D01*
X113471189Y-133787882D01*
X113596710Y-133715412D01*
X113596710Y-133715411D01*
X113596715Y-133715409D01*
X113699209Y-133612915D01*
X113713657Y-133587890D01*
X113771682Y-133487389D01*
X113771682Y-133487387D01*
X113771684Y-133487385D01*
X113809200Y-133347375D01*
X113809200Y-133261090D01*
X113828107Y-133202899D01*
X113838196Y-133191086D01*
X118704096Y-128325186D01*
X118758613Y-128297409D01*
X118819045Y-128306980D01*
X118862310Y-128350245D01*
X118873100Y-128395190D01*
X118873100Y-140055844D01*
X118896986Y-140144988D01*
X118943130Y-140224912D01*
X119920505Y-141202287D01*
X119948281Y-141256802D01*
X119949500Y-141272289D01*
X119949500Y-141358574D01*
X119987017Y-141498589D01*
X120059487Y-141624110D01*
X120059489Y-141624112D01*
X120059491Y-141624115D01*
X120161985Y-141726609D01*
X120161987Y-141726610D01*
X120161989Y-141726612D01*
X120287511Y-141799082D01*
X120287512Y-141799082D01*
X120287515Y-141799084D01*
X120427525Y-141836600D01*
X120427526Y-141836600D01*
X120572474Y-141836600D01*
X120572475Y-141836600D01*
X120712485Y-141799084D01*
X120712487Y-141799082D01*
X120712489Y-141799082D01*
X120838010Y-141726612D01*
X120838010Y-141726611D01*
X120838015Y-141726609D01*
X120940509Y-141624115D01*
X121012984Y-141498585D01*
X121050500Y-141358575D01*
X121050500Y-141213625D01*
X121012984Y-141073615D01*
X121012982Y-141073612D01*
X121012982Y-141073610D01*
X120940512Y-140948089D01*
X120940510Y-140948087D01*
X120940509Y-140948085D01*
X120838015Y-140845591D01*
X120838012Y-140845589D01*
X120838010Y-140845587D01*
X120712488Y-140773117D01*
X120712489Y-140773117D01*
X120682896Y-140765187D01*
X120572475Y-140735600D01*
X120572474Y-140735600D01*
X120486190Y-140735600D01*
X120427999Y-140716693D01*
X120416186Y-140706604D01*
X119603096Y-139893514D01*
X119575319Y-139838997D01*
X119574100Y-139823510D01*
X119574100Y-131649500D01*
X119593007Y-131591309D01*
X119642507Y-131555345D01*
X119673100Y-131550500D01*
X119803890Y-131550500D01*
X119803892Y-131550500D01*
X119931186Y-131516392D01*
X119931188Y-131516390D01*
X119931190Y-131516390D01*
X120045309Y-131450503D01*
X120045309Y-131450502D01*
X120045314Y-131450500D01*
X120138500Y-131357314D01*
X120204392Y-131243186D01*
X120238500Y-131115892D01*
X120238500Y-130984108D01*
X120204392Y-130856814D01*
X120204390Y-130856811D01*
X120204390Y-130856809D01*
X120138503Y-130742690D01*
X120138501Y-130742688D01*
X120138500Y-130742686D01*
X120045314Y-130649500D01*
X120045311Y-130649498D01*
X120045309Y-130649496D01*
X119931189Y-130583609D01*
X119931191Y-130583609D01*
X119859884Y-130564503D01*
X119803892Y-130549500D01*
X119673100Y-130549500D01*
X119614909Y-130530593D01*
X119578945Y-130481093D01*
X119574100Y-130450500D01*
X119574100Y-124885108D01*
X120035500Y-124885108D01*
X120035500Y-125016892D01*
X120060958Y-125111905D01*
X120069609Y-125144190D01*
X120135496Y-125258309D01*
X120135498Y-125258311D01*
X120135500Y-125258314D01*
X120228686Y-125351500D01*
X120228688Y-125351501D01*
X120228690Y-125351503D01*
X120342810Y-125417390D01*
X120342808Y-125417390D01*
X120342812Y-125417391D01*
X120342814Y-125417392D01*
X120470108Y-125451500D01*
X120470110Y-125451500D01*
X120601890Y-125451500D01*
X120601892Y-125451500D01*
X120729186Y-125417392D01*
X120729188Y-125417390D01*
X120729190Y-125417390D01*
X120843309Y-125351503D01*
X120843309Y-125351502D01*
X120843314Y-125351500D01*
X120936500Y-125258314D01*
X120936503Y-125258309D01*
X121002390Y-125144190D01*
X121002390Y-125144188D01*
X121002392Y-125144186D01*
X121036500Y-125016892D01*
X121036500Y-124885108D01*
X121002392Y-124757814D01*
X121002390Y-124757811D01*
X121002390Y-124757809D01*
X120936503Y-124643690D01*
X120936501Y-124643688D01*
X120936500Y-124643686D01*
X120843314Y-124550500D01*
X120843311Y-124550498D01*
X120843309Y-124550496D01*
X120729189Y-124484609D01*
X120729191Y-124484609D01*
X120679799Y-124471375D01*
X120601892Y-124450500D01*
X120470108Y-124450500D01*
X120392200Y-124471375D01*
X120342809Y-124484609D01*
X120228690Y-124550496D01*
X120135496Y-124643690D01*
X120069609Y-124757809D01*
X120060850Y-124790500D01*
X120035500Y-124885108D01*
X119574100Y-124885108D01*
X119574100Y-119768867D01*
X119593007Y-119710676D01*
X119642507Y-119674712D01*
X119703693Y-119674712D01*
X119753193Y-119710676D01*
X119759559Y-119722045D01*
X119759871Y-119721866D01*
X119835587Y-119853010D01*
X119835589Y-119853012D01*
X119835591Y-119853015D01*
X119938085Y-119955509D01*
X119938087Y-119955510D01*
X119938089Y-119955512D01*
X120063611Y-120027982D01*
X120063612Y-120027982D01*
X120063615Y-120027984D01*
X120203625Y-120065500D01*
X120289910Y-120065500D01*
X120348101Y-120084407D01*
X120359914Y-120094496D01*
X120677704Y-120412286D01*
X120705481Y-120466803D01*
X120706700Y-120482290D01*
X120706700Y-121960320D01*
X120687793Y-122018511D01*
X120638293Y-122054475D01*
X120582078Y-122055947D01*
X120562580Y-122050722D01*
X120531892Y-122042500D01*
X120400108Y-122042500D01*
X120349923Y-122055947D01*
X120272809Y-122076609D01*
X120158690Y-122142496D01*
X120065496Y-122235690D01*
X119999609Y-122349809D01*
X119980986Y-122419314D01*
X119965500Y-122477108D01*
X119965500Y-122608892D01*
X119992353Y-122709108D01*
X119999609Y-122736190D01*
X120065496Y-122850309D01*
X120065498Y-122850311D01*
X120065500Y-122850314D01*
X120158686Y-122943500D01*
X120158688Y-122943501D01*
X120158690Y-122943503D01*
X120272810Y-123009390D01*
X120272808Y-123009390D01*
X120272812Y-123009391D01*
X120272814Y-123009392D01*
X120400108Y-123043500D01*
X120400110Y-123043500D01*
X120531891Y-123043500D01*
X120531892Y-123043500D01*
X120582077Y-123030053D01*
X120643178Y-123033254D01*
X120690728Y-123071759D01*
X120706700Y-123125679D01*
X120706700Y-124020444D01*
X120713658Y-124046411D01*
X120727098Y-124096570D01*
X120727098Y-124096571D01*
X120730583Y-124109581D01*
X120730585Y-124109584D01*
X120730586Y-124109588D01*
X120776730Y-124189512D01*
X123269805Y-126682587D01*
X123297581Y-126737102D01*
X123298800Y-126752589D01*
X123298800Y-126912444D01*
X123321031Y-126995412D01*
X123321032Y-126995415D01*
X123322686Y-127001588D01*
X123322687Y-127001591D01*
X123357570Y-127062009D01*
X123368830Y-127081512D01*
X123793605Y-127506287D01*
X123821381Y-127560802D01*
X123822600Y-127576289D01*
X123822600Y-130925444D01*
X123846486Y-131014588D01*
X123892630Y-131094512D01*
X130081642Y-137283524D01*
X130109418Y-137338039D01*
X130099847Y-137398471D01*
X130056582Y-137441736D01*
X129996150Y-137451307D01*
X129986015Y-137449153D01*
X129926475Y-137433200D01*
X129781525Y-137433200D01*
X129749669Y-137441736D01*
X129641510Y-137470717D01*
X129515989Y-137543187D01*
X129413487Y-137645689D01*
X129341017Y-137771210D01*
X129335826Y-137790584D01*
X129303500Y-137911225D01*
X129303500Y-138056175D01*
X129325528Y-138138385D01*
X129341017Y-138196189D01*
X129413487Y-138321710D01*
X129413489Y-138321712D01*
X129413491Y-138321715D01*
X129515985Y-138424209D01*
X129515987Y-138424210D01*
X129515989Y-138424212D01*
X129641511Y-138496682D01*
X129641512Y-138496682D01*
X129641515Y-138496684D01*
X129781525Y-138534200D01*
X129867810Y-138534200D01*
X129926001Y-138553107D01*
X129937814Y-138563196D01*
X130429088Y-139054470D01*
X130456445Y-139070264D01*
X130483801Y-139086059D01*
X130483802Y-139086059D01*
X130509012Y-139100614D01*
X130598156Y-139124500D01*
X130598158Y-139124500D01*
X131814542Y-139124500D01*
X131814544Y-139124500D01*
X131903688Y-139100614D01*
X131928898Y-139086059D01*
X131983612Y-139054470D01*
X132984269Y-138053812D01*
X133030414Y-137973888D01*
X133030429Y-137973831D01*
X133054300Y-137884744D01*
X133054300Y-130658658D01*
X133073207Y-130600467D01*
X133122707Y-130564503D01*
X133183893Y-130564503D01*
X133233393Y-130600467D01*
X133239036Y-130609158D01*
X133267615Y-130658658D01*
X133271630Y-130665612D01*
X140333216Y-137727198D01*
X147336514Y-144730496D01*
X147364291Y-144785013D01*
X147354720Y-144845445D01*
X147311455Y-144888710D01*
X147266510Y-144899500D01*
X147125326Y-144899500D01*
X147125325Y-144899500D01*
X147125315Y-144899501D01*
X147052263Y-144914033D01*
X147052257Y-144914035D01*
X146969400Y-144969397D01*
X146969397Y-144969400D01*
X146914035Y-145052257D01*
X146914033Y-145052263D01*
X146899501Y-145125315D01*
X146899500Y-145125327D01*
X146899500Y-146874672D01*
X146899501Y-146874684D01*
X146914033Y-146947736D01*
X146914035Y-146947742D01*
X146969397Y-147030599D01*
X146969399Y-147030601D01*
X147052260Y-147085966D01*
X147107808Y-147097015D01*
X147125315Y-147100498D01*
X147125320Y-147100498D01*
X147125326Y-147100500D01*
X147125327Y-147100500D01*
X148874673Y-147100500D01*
X148874674Y-147100500D01*
X148947740Y-147085966D01*
X149030601Y-147030601D01*
X149085966Y-146947740D01*
X149100500Y-146874674D01*
X149100500Y-145125326D01*
X149085966Y-145052260D01*
X149059444Y-145012566D01*
X149030602Y-144969400D01*
X149030599Y-144969397D01*
X148947742Y-144914035D01*
X148947740Y-144914034D01*
X148947737Y-144914033D01*
X148947736Y-144914033D01*
X148874684Y-144899501D01*
X148874674Y-144899500D01*
X148874673Y-144899500D01*
X148439151Y-144899500D01*
X148412608Y-144890875D01*
X148385619Y-144883779D01*
X148384018Y-144881586D01*
X148380960Y-144880593D01*
X148346893Y-144836408D01*
X148344926Y-144831356D01*
X148326614Y-144763012D01*
X148304959Y-144725505D01*
X148280470Y-144683088D01*
X133931596Y-130334214D01*
X133903819Y-130279697D01*
X133902600Y-130264210D01*
X133902600Y-127037531D01*
X133921507Y-126979340D01*
X133931590Y-126967533D01*
X133992609Y-126906515D01*
X134009137Y-126877888D01*
X134065082Y-126780989D01*
X134065082Y-126780987D01*
X134065084Y-126780985D01*
X134095157Y-126668750D01*
X134128482Y-126617436D01*
X134185603Y-126595510D01*
X134244704Y-126611346D01*
X134260788Y-126624370D01*
X152534035Y-144897617D01*
X152561812Y-144952134D01*
X152552241Y-145012566D01*
X152508977Y-145055830D01*
X152503217Y-145058764D01*
X152503215Y-145058765D01*
X152363073Y-145160585D01*
X152240585Y-145283073D01*
X152138766Y-145423214D01*
X152060125Y-145577558D01*
X152060123Y-145577561D01*
X152006598Y-145742293D01*
X152006597Y-145742297D01*
X151979500Y-145913385D01*
X151979500Y-146086614D01*
X152006597Y-146257702D01*
X152006598Y-146257706D01*
X152060123Y-146422438D01*
X152060125Y-146422441D01*
X152138523Y-146576309D01*
X152138768Y-146576788D01*
X152240586Y-146716928D01*
X152363072Y-146839414D01*
X152503212Y-146941232D01*
X152657555Y-147019873D01*
X152657557Y-147019873D01*
X152657558Y-147019874D01*
X152657561Y-147019876D01*
X152822293Y-147073401D01*
X152822297Y-147073402D01*
X152993386Y-147100500D01*
X152993389Y-147100500D01*
X153166614Y-147100500D01*
X153337702Y-147073402D01*
X153337706Y-147073401D01*
X153502438Y-147019876D01*
X153502440Y-147019874D01*
X153502445Y-147019873D01*
X153656788Y-146941232D01*
X153749710Y-146873720D01*
X171395500Y-146873720D01*
X171395500Y-147126279D01*
X171435007Y-147375716D01*
X171435009Y-147375721D01*
X171513052Y-147615914D01*
X171627709Y-147840941D01*
X171776156Y-148045261D01*
X171954739Y-148223844D01*
X172159059Y-148372291D01*
X172384086Y-148486948D01*
X172624279Y-148564991D01*
X172624280Y-148564991D01*
X172624283Y-148564992D01*
X172873720Y-148604500D01*
X172873723Y-148604500D01*
X173126280Y-148604500D01*
X173375716Y-148564992D01*
X173375717Y-148564991D01*
X173375721Y-148564991D01*
X173615914Y-148486948D01*
X173840941Y-148372291D01*
X174045261Y-148223844D01*
X174223844Y-148045261D01*
X174372291Y-147840941D01*
X174486948Y-147615914D01*
X174564991Y-147375721D01*
X174604500Y-147126277D01*
X174604500Y-146873723D01*
X174592796Y-146799829D01*
X174564992Y-146624283D01*
X174549406Y-146576314D01*
X174486948Y-146384086D01*
X174372291Y-146159059D01*
X174223844Y-145954739D01*
X174045261Y-145776156D01*
X173840941Y-145627709D01*
X173840940Y-145627708D01*
X173840938Y-145627707D01*
X173615914Y-145513052D01*
X173375716Y-145435007D01*
X173126280Y-145395500D01*
X173126277Y-145395500D01*
X172873723Y-145395500D01*
X172873720Y-145395500D01*
X172624283Y-145435007D01*
X172384085Y-145513052D01*
X172159061Y-145627707D01*
X171954740Y-145776155D01*
X171776155Y-145954740D01*
X171627707Y-146159061D01*
X171513052Y-146384085D01*
X171435007Y-146624283D01*
X171395500Y-146873720D01*
X153749710Y-146873720D01*
X153796928Y-146839414D01*
X153919414Y-146716928D01*
X154021232Y-146576788D01*
X154099873Y-146422445D01*
X154099874Y-146422440D01*
X154099876Y-146422438D01*
X154153401Y-146257706D01*
X154153402Y-146257702D01*
X154180500Y-146086614D01*
X154180500Y-145913385D01*
X154153402Y-145742297D01*
X154153401Y-145742293D01*
X154099876Y-145577561D01*
X154099874Y-145577558D01*
X154099873Y-145577557D01*
X154099873Y-145577555D01*
X154021232Y-145423212D01*
X153919414Y-145283072D01*
X153796928Y-145160586D01*
X153656788Y-145058768D01*
X153656787Y-145058767D01*
X153656785Y-145058766D01*
X153502448Y-144980128D01*
X153502445Y-144980127D01*
X153497465Y-144978509D01*
X153447968Y-144942544D01*
X153433601Y-144913985D01*
X153430500Y-144904098D01*
X153430500Y-144901756D01*
X153406614Y-144812612D01*
X153401544Y-144803831D01*
X153396083Y-144794373D01*
X153396083Y-144794371D01*
X153360471Y-144732690D01*
X153360470Y-144732688D01*
X136679686Y-128051904D01*
X136651909Y-127997387D01*
X136661480Y-127936955D01*
X136704745Y-127893690D01*
X136749690Y-127882900D01*
X139126868Y-127882900D01*
X139185059Y-127901807D01*
X139196871Y-127911896D01*
X139257884Y-127972908D01*
X139257889Y-127972912D01*
X139383411Y-128045382D01*
X139383412Y-128045382D01*
X139383415Y-128045384D01*
X139523425Y-128082900D01*
X139523426Y-128082900D01*
X139668374Y-128082900D01*
X139668375Y-128082900D01*
X139808385Y-128045384D01*
X139808387Y-128045382D01*
X139808389Y-128045382D01*
X139933910Y-127972912D01*
X139933910Y-127972911D01*
X139933915Y-127972909D01*
X140036409Y-127870415D01*
X140098244Y-127763314D01*
X140108882Y-127744889D01*
X140108882Y-127744887D01*
X140108884Y-127744885D01*
X140146400Y-127604875D01*
X140146400Y-127459925D01*
X140114732Y-127341740D01*
X140117934Y-127280641D01*
X140156439Y-127233091D01*
X140160846Y-127230390D01*
X140177615Y-127220709D01*
X140280109Y-127118215D01*
X140352584Y-126992685D01*
X140390100Y-126852675D01*
X140390100Y-126707725D01*
X140352584Y-126567715D01*
X140352582Y-126567712D01*
X140352582Y-126567710D01*
X140280112Y-126442189D01*
X140280110Y-126442187D01*
X140280109Y-126442185D01*
X140177615Y-126339691D01*
X140177612Y-126339689D01*
X140177610Y-126339687D01*
X140052088Y-126267217D01*
X140052089Y-126267217D01*
X139995646Y-126252093D01*
X139912075Y-126229700D01*
X139767125Y-126229700D01*
X139627115Y-126267216D01*
X139627112Y-126267217D01*
X139625584Y-126267627D01*
X139599960Y-126271000D01*
X136872232Y-126271000D01*
X136870226Y-126270348D01*
X136868194Y-126270918D01*
X136857348Y-126266164D01*
X136814041Y-126252093D01*
X136810823Y-126249653D01*
X136806300Y-126246076D01*
X136741215Y-126180991D01*
X136655382Y-126131435D01*
X136615686Y-126108516D01*
X136520063Y-126082894D01*
X136475675Y-126071000D01*
X136330725Y-126071000D01*
X136286337Y-126082894D01*
X136190710Y-126108517D01*
X136065189Y-126180987D01*
X135962687Y-126283489D01*
X135941979Y-126319356D01*
X135896509Y-126360296D01*
X135835658Y-126366690D01*
X135786240Y-126339858D01*
X135514907Y-126068525D01*
X143521800Y-126068525D01*
X143521800Y-126213475D01*
X143546697Y-126306390D01*
X143559317Y-126353489D01*
X143631787Y-126479010D01*
X143631789Y-126479012D01*
X143631791Y-126479015D01*
X143734285Y-126581509D01*
X143734287Y-126581510D01*
X143734289Y-126581512D01*
X143859811Y-126653982D01*
X143859812Y-126653982D01*
X143859815Y-126653984D01*
X143999825Y-126691500D01*
X144086110Y-126691500D01*
X144144301Y-126710407D01*
X144156114Y-126720496D01*
X155286604Y-137850986D01*
X155314381Y-137905503D01*
X155315600Y-137920990D01*
X155315600Y-142447368D01*
X155296693Y-142505559D01*
X155286604Y-142517371D01*
X155225591Y-142578384D01*
X155225587Y-142578389D01*
X155153117Y-142703910D01*
X155115600Y-142843925D01*
X155115600Y-142988874D01*
X155153117Y-143128889D01*
X155225587Y-143254410D01*
X155225589Y-143254412D01*
X155225591Y-143254415D01*
X155328085Y-143356909D01*
X155328087Y-143356910D01*
X155328089Y-143356912D01*
X155453611Y-143429382D01*
X155453612Y-143429382D01*
X155453615Y-143429384D01*
X155593625Y-143466900D01*
X155593626Y-143466900D01*
X155738574Y-143466900D01*
X155738575Y-143466900D01*
X155878585Y-143429384D01*
X155878587Y-143429382D01*
X155878589Y-143429382D01*
X156004110Y-143356912D01*
X156004110Y-143356911D01*
X156004115Y-143356909D01*
X156106609Y-143254415D01*
X156162465Y-143157670D01*
X156179082Y-143128889D01*
X156179082Y-143128887D01*
X156179084Y-143128885D01*
X156216600Y-142988875D01*
X156216600Y-142843925D01*
X156179084Y-142703915D01*
X156179082Y-142703912D01*
X156179082Y-142703910D01*
X156106612Y-142578389D01*
X156106608Y-142578384D01*
X156045596Y-142517371D01*
X156017819Y-142462854D01*
X156016600Y-142447368D01*
X156016600Y-137688657D01*
X156013332Y-137676461D01*
X155992714Y-137599512D01*
X155980987Y-137579200D01*
X155980986Y-137579198D01*
X155980986Y-137579197D01*
X155960195Y-137543187D01*
X155946570Y-137519588D01*
X144651796Y-126224814D01*
X144624019Y-126170297D01*
X144622800Y-126154810D01*
X144622800Y-126068525D01*
X144613331Y-126033186D01*
X144585284Y-125928515D01*
X144585282Y-125928512D01*
X144585282Y-125928510D01*
X144512812Y-125802989D01*
X144512810Y-125802987D01*
X144512809Y-125802985D01*
X144410315Y-125700491D01*
X144410312Y-125700489D01*
X144410310Y-125700487D01*
X144284788Y-125628017D01*
X144284789Y-125628017D01*
X144255196Y-125620087D01*
X144144775Y-125590500D01*
X143999825Y-125590500D01*
X143962505Y-125600500D01*
X143859810Y-125628017D01*
X143734289Y-125700487D01*
X143631787Y-125802989D01*
X143559317Y-125928510D01*
X143521812Y-126068482D01*
X143521800Y-126068525D01*
X135514907Y-126068525D01*
X134718496Y-125272114D01*
X134690719Y-125217597D01*
X134689500Y-125202110D01*
X134689500Y-125115825D01*
X134667533Y-125033844D01*
X134651984Y-124975815D01*
X134651982Y-124975812D01*
X134651982Y-124975810D01*
X134579512Y-124850289D01*
X134579510Y-124850287D01*
X134579509Y-124850285D01*
X134477015Y-124747791D01*
X134477012Y-124747789D01*
X134477010Y-124747787D01*
X134351488Y-124675317D01*
X134351489Y-124675317D01*
X134316307Y-124665890D01*
X134211475Y-124637800D01*
X134066525Y-124637800D01*
X134041521Y-124644500D01*
X133926513Y-124675316D01*
X133914500Y-124682253D01*
X133854652Y-124694974D01*
X133798756Y-124670087D01*
X133768163Y-124617099D01*
X133766000Y-124596516D01*
X133766000Y-123225657D01*
X133766000Y-123225656D01*
X133742114Y-123136512D01*
X133741666Y-123135736D01*
X133736398Y-123126611D01*
X133695971Y-123056590D01*
X133695970Y-123056588D01*
X133058696Y-122419314D01*
X133055948Y-122413922D01*
X133050920Y-122410558D01*
X133043876Y-122390228D01*
X133030919Y-122364797D01*
X133029774Y-122353143D01*
X133029700Y-122351233D01*
X133029700Y-122263025D01*
X133025704Y-122248113D01*
X133025275Y-122237033D01*
X133030727Y-122217739D01*
X133031777Y-122197720D01*
X133038855Y-122188978D01*
X133041915Y-122178154D01*
X133057666Y-122165751D01*
X133070283Y-122150171D01*
X133081774Y-122146767D01*
X133089986Y-122140301D01*
X133105654Y-122139693D01*
X133124201Y-122134200D01*
X134740661Y-122134200D01*
X134798852Y-122153107D01*
X134834816Y-122202607D01*
X134834816Y-122263793D01*
X134826397Y-122282700D01*
X134783609Y-122356809D01*
X134775792Y-122385984D01*
X134749500Y-122484108D01*
X134749500Y-122615892D01*
X134758773Y-122650499D01*
X134783609Y-122743190D01*
X134849496Y-122857309D01*
X134849498Y-122857311D01*
X134849500Y-122857314D01*
X134942686Y-122950500D01*
X134942688Y-122950501D01*
X134966525Y-122964264D01*
X135007465Y-123009734D01*
X135013860Y-123070584D01*
X134983267Y-123123572D01*
X134966525Y-123135736D01*
X134942688Y-123149498D01*
X134849496Y-123242690D01*
X134783609Y-123356809D01*
X134772170Y-123399500D01*
X134749500Y-123484108D01*
X134749500Y-123615892D01*
X134767865Y-123684430D01*
X134783609Y-123743190D01*
X134849496Y-123857309D01*
X134849498Y-123857311D01*
X134849500Y-123857314D01*
X134942686Y-123950500D01*
X134942688Y-123950501D01*
X134942690Y-123950503D01*
X135056810Y-124016390D01*
X135056808Y-124016390D01*
X135056812Y-124016391D01*
X135056814Y-124016392D01*
X135184108Y-124050500D01*
X135184110Y-124050500D01*
X135315890Y-124050500D01*
X135315892Y-124050500D01*
X135443186Y-124016392D01*
X135443188Y-124016390D01*
X135443190Y-124016390D01*
X135557309Y-123950503D01*
X135557309Y-123950502D01*
X135557314Y-123950500D01*
X135650500Y-123857314D01*
X135650503Y-123857309D01*
X135716390Y-123743190D01*
X135716390Y-123743188D01*
X135716392Y-123743186D01*
X135750500Y-123615892D01*
X135750500Y-123484108D01*
X135716392Y-123356814D01*
X135716390Y-123356811D01*
X135716390Y-123356809D01*
X135650503Y-123242690D01*
X135650501Y-123242688D01*
X135650500Y-123242686D01*
X135557314Y-123149500D01*
X135533474Y-123135735D01*
X135492534Y-123090267D01*
X135486138Y-123029417D01*
X135516731Y-122976429D01*
X135533474Y-122964264D01*
X135557314Y-122950500D01*
X135650500Y-122857314D01*
X135650503Y-122857309D01*
X135716390Y-122743190D01*
X135716390Y-122743188D01*
X135716392Y-122743186D01*
X135725523Y-122709108D01*
X141949500Y-122709108D01*
X141949500Y-122840892D01*
X141976994Y-122943503D01*
X141983609Y-122968190D01*
X142049496Y-123082309D01*
X142049498Y-123082311D01*
X142049500Y-123082314D01*
X142142686Y-123175500D01*
X142142688Y-123175501D01*
X142142690Y-123175503D01*
X142256810Y-123241390D01*
X142256808Y-123241390D01*
X142256812Y-123241391D01*
X142256814Y-123241392D01*
X142384108Y-123275500D01*
X142384110Y-123275500D01*
X142515890Y-123275500D01*
X142515892Y-123275500D01*
X142643186Y-123241392D01*
X142643188Y-123241390D01*
X142643190Y-123241390D01*
X142757309Y-123175503D01*
X142757309Y-123175502D01*
X142757314Y-123175500D01*
X142850500Y-123082314D01*
X142866930Y-123053856D01*
X142916390Y-122968190D01*
X142916390Y-122968188D01*
X142916392Y-122968186D01*
X142950500Y-122840892D01*
X142950500Y-122709108D01*
X142916392Y-122581814D01*
X142916390Y-122581811D01*
X142916390Y-122581809D01*
X142850503Y-122467690D01*
X142850501Y-122467688D01*
X142850500Y-122467686D01*
X142757314Y-122374500D01*
X142757311Y-122374498D01*
X142757309Y-122374496D01*
X142643189Y-122308609D01*
X142643191Y-122308609D01*
X142593799Y-122295375D01*
X142515892Y-122274500D01*
X142384108Y-122274500D01*
X142306200Y-122295375D01*
X142256809Y-122308609D01*
X142142690Y-122374496D01*
X142049496Y-122467690D01*
X141983609Y-122581809D01*
X141965908Y-122647873D01*
X141949500Y-122709108D01*
X135725523Y-122709108D01*
X135750500Y-122615892D01*
X135750500Y-122484108D01*
X135716392Y-122356814D01*
X135716390Y-122356811D01*
X135716390Y-122356809D01*
X135673603Y-122282700D01*
X135660881Y-122222852D01*
X135685768Y-122166956D01*
X135738756Y-122136363D01*
X135759339Y-122134200D01*
X140470542Y-122134200D01*
X140470544Y-122134200D01*
X140559688Y-122110314D01*
X140569737Y-122104512D01*
X140639612Y-122064170D01*
X140903257Y-121800525D01*
X144608800Y-121800525D01*
X144608800Y-121945475D01*
X144612778Y-121960320D01*
X144646317Y-122085489D01*
X144718787Y-122211010D01*
X144718789Y-122211012D01*
X144718791Y-122211015D01*
X144821285Y-122313509D01*
X144821287Y-122313510D01*
X144821289Y-122313512D01*
X144946811Y-122385982D01*
X144946812Y-122385982D01*
X144946815Y-122385984D01*
X145086825Y-122423500D01*
X145173110Y-122423500D01*
X145231301Y-122442407D01*
X145243114Y-122452496D01*
X159866704Y-137076086D01*
X159894481Y-137130603D01*
X159895700Y-137146090D01*
X159895700Y-144583168D01*
X159876793Y-144641359D01*
X159866704Y-144653171D01*
X159805691Y-144714184D01*
X159805687Y-144714189D01*
X159733217Y-144839710D01*
X159717701Y-144897617D01*
X159695700Y-144979725D01*
X159695700Y-145124675D01*
X159708277Y-145171612D01*
X159733217Y-145264689D01*
X159805687Y-145390210D01*
X159805689Y-145390212D01*
X159805691Y-145390215D01*
X159908185Y-145492709D01*
X159908187Y-145492710D01*
X159908189Y-145492712D01*
X160033711Y-145565182D01*
X160033712Y-145565182D01*
X160033715Y-145565184D01*
X160173725Y-145602700D01*
X160173726Y-145602700D01*
X160318674Y-145602700D01*
X160318675Y-145602700D01*
X160458685Y-145565184D01*
X160458687Y-145565182D01*
X160458689Y-145565182D01*
X160584210Y-145492712D01*
X160584210Y-145492711D01*
X160584215Y-145492709D01*
X160686709Y-145390215D01*
X160748568Y-145283073D01*
X160759182Y-145264689D01*
X160759182Y-145264687D01*
X160759184Y-145264685D01*
X160796700Y-145124675D01*
X160796700Y-144979725D01*
X160759184Y-144839715D01*
X160759182Y-144839712D01*
X160759182Y-144839710D01*
X160686712Y-144714189D01*
X160686708Y-144714184D01*
X160625696Y-144653171D01*
X160597919Y-144598654D01*
X160596700Y-144583168D01*
X160596700Y-138413385D01*
X172349500Y-138413385D01*
X172349500Y-138586614D01*
X172376597Y-138757702D01*
X172376598Y-138757706D01*
X172430123Y-138922438D01*
X172430125Y-138922441D01*
X172497396Y-139054470D01*
X172508768Y-139076788D01*
X172610586Y-139216928D01*
X172733072Y-139339414D01*
X172873212Y-139441232D01*
X173027555Y-139519873D01*
X173027557Y-139519873D01*
X173027558Y-139519874D01*
X173027561Y-139519876D01*
X173192293Y-139573401D01*
X173192297Y-139573402D01*
X173363386Y-139600500D01*
X173363389Y-139600500D01*
X173836614Y-139600500D01*
X174007702Y-139573402D01*
X174007706Y-139573401D01*
X174172438Y-139519876D01*
X174172440Y-139519874D01*
X174172445Y-139519873D01*
X174326788Y-139441232D01*
X174466928Y-139339414D01*
X174589414Y-139216928D01*
X174691232Y-139076788D01*
X174769873Y-138922445D01*
X174769874Y-138922440D01*
X174769876Y-138922438D01*
X174823401Y-138757706D01*
X174823402Y-138757702D01*
X174850500Y-138586614D01*
X174850500Y-138413385D01*
X174823402Y-138242297D01*
X174823401Y-138242293D01*
X174769876Y-138077561D01*
X174769874Y-138077558D01*
X174769873Y-138077557D01*
X174769873Y-138077555D01*
X174691232Y-137923212D01*
X174589414Y-137783072D01*
X174466928Y-137660586D01*
X174326788Y-137558768D01*
X174326787Y-137558767D01*
X174326785Y-137558766D01*
X174172441Y-137480125D01*
X174172438Y-137480123D01*
X174007706Y-137426598D01*
X174007702Y-137426597D01*
X173836614Y-137399500D01*
X173836611Y-137399500D01*
X173363389Y-137399500D01*
X173363386Y-137399500D01*
X173192297Y-137426597D01*
X173192293Y-137426598D01*
X173027561Y-137480123D01*
X173027558Y-137480125D01*
X172873214Y-137558766D01*
X172733073Y-137660585D01*
X172610585Y-137783073D01*
X172508766Y-137923214D01*
X172430125Y-138077558D01*
X172430123Y-138077561D01*
X172376598Y-138242293D01*
X172376597Y-138242297D01*
X172349500Y-138413385D01*
X160596700Y-138413385D01*
X160596700Y-136913757D01*
X160595455Y-136909109D01*
X160572814Y-136824612D01*
X160526670Y-136744688D01*
X159717913Y-135935931D01*
X171649500Y-135935931D01*
X171649500Y-136064069D01*
X171668759Y-136160889D01*
X171674499Y-136189742D01*
X171674500Y-136189747D01*
X171723534Y-136308125D01*
X171723538Y-136308133D01*
X171766365Y-136372226D01*
X171794724Y-136414669D01*
X171885331Y-136505276D01*
X171926976Y-136533102D01*
X171991866Y-136576461D01*
X171991870Y-136576463D01*
X171991873Y-136576465D01*
X172110256Y-136625501D01*
X172235931Y-136650500D01*
X172265918Y-136650500D01*
X172324109Y-136669407D01*
X172358676Y-136714903D01*
X172406203Y-136842330D01*
X172459673Y-136913757D01*
X172492454Y-136957546D01*
X172492457Y-136957548D01*
X172492458Y-136957549D01*
X172607670Y-137043797D01*
X172742511Y-137094089D01*
X172742512Y-137094089D01*
X172742517Y-137094091D01*
X172802127Y-137100500D01*
X174397872Y-137100499D01*
X174457483Y-137094091D01*
X174524907Y-137068943D01*
X174592329Y-137043797D01*
X174592329Y-137043796D01*
X174592331Y-137043796D01*
X174707546Y-136957546D01*
X174793796Y-136842331D01*
X174844091Y-136707483D01*
X174850500Y-136647873D01*
X174850499Y-135352128D01*
X174844091Y-135292517D01*
X174841323Y-135285096D01*
X174793797Y-135157670D01*
X174707549Y-135042458D01*
X174707548Y-135042457D01*
X174707546Y-135042454D01*
X174707541Y-135042450D01*
X174592329Y-134956202D01*
X174457488Y-134905910D01*
X174457483Y-134905909D01*
X174457481Y-134905908D01*
X174457477Y-134905908D01*
X174426249Y-134902550D01*
X174397873Y-134899500D01*
X174397870Y-134899500D01*
X172802133Y-134899500D01*
X172802129Y-134899500D01*
X172802128Y-134899501D01*
X172794949Y-134900272D01*
X172742519Y-134905908D01*
X172742514Y-134905909D01*
X172607670Y-134956202D01*
X172492458Y-135042450D01*
X172492450Y-135042458D01*
X172406202Y-135157670D01*
X172358677Y-135285096D01*
X172320627Y-135333011D01*
X172265919Y-135349500D01*
X172235930Y-135349500D01*
X172222714Y-135352129D01*
X172110256Y-135374499D01*
X172110255Y-135374499D01*
X172110252Y-135374500D01*
X171991874Y-135423534D01*
X171991866Y-135423538D01*
X171885331Y-135494724D01*
X171885327Y-135494727D01*
X171794727Y-135585327D01*
X171794724Y-135585331D01*
X171723538Y-135691866D01*
X171723534Y-135691874D01*
X171674500Y-135810252D01*
X171674499Y-135810255D01*
X171674499Y-135810256D01*
X171649500Y-135935931D01*
X159717913Y-135935931D01*
X148195367Y-124413385D01*
X172349500Y-124413385D01*
X172349500Y-124586614D01*
X172376597Y-124757702D01*
X172376598Y-124757706D01*
X172430123Y-124922438D01*
X172430125Y-124922441D01*
X172507041Y-125073400D01*
X172508768Y-125076788D01*
X172610586Y-125216928D01*
X172733072Y-125339414D01*
X172873212Y-125441232D01*
X173027555Y-125519873D01*
X173027557Y-125519873D01*
X173027558Y-125519874D01*
X173027561Y-125519876D01*
X173192293Y-125573401D01*
X173192297Y-125573402D01*
X173363386Y-125600500D01*
X173363389Y-125600500D01*
X173836614Y-125600500D01*
X174007702Y-125573402D01*
X174007706Y-125573401D01*
X174172438Y-125519876D01*
X174172440Y-125519874D01*
X174172445Y-125519873D01*
X174326788Y-125441232D01*
X174466928Y-125339414D01*
X174589414Y-125216928D01*
X174691232Y-125076788D01*
X174769873Y-124922445D01*
X174769874Y-124922440D01*
X174769876Y-124922438D01*
X174823401Y-124757706D01*
X174823402Y-124757702D01*
X174850500Y-124586614D01*
X174850500Y-124413385D01*
X174823402Y-124242297D01*
X174823401Y-124242293D01*
X174769876Y-124077561D01*
X174769874Y-124077558D01*
X174769873Y-124077557D01*
X174769873Y-124077555D01*
X174691232Y-123923212D01*
X174589414Y-123783072D01*
X174466928Y-123660586D01*
X174326788Y-123558768D01*
X174326787Y-123558767D01*
X174326785Y-123558766D01*
X174172441Y-123480125D01*
X174172438Y-123480123D01*
X174007706Y-123426598D01*
X174007702Y-123426597D01*
X173836614Y-123399500D01*
X173836611Y-123399500D01*
X173363389Y-123399500D01*
X173363386Y-123399500D01*
X173192297Y-123426597D01*
X173192293Y-123426598D01*
X173027561Y-123480123D01*
X173027558Y-123480125D01*
X172873214Y-123558766D01*
X172733073Y-123660585D01*
X172610585Y-123783073D01*
X172508766Y-123923214D01*
X172430125Y-124077558D01*
X172430123Y-124077561D01*
X172376598Y-124242293D01*
X172376597Y-124242297D01*
X172349500Y-124413385D01*
X148195367Y-124413385D01*
X145738796Y-121956814D01*
X145728156Y-121935931D01*
X171649500Y-121935931D01*
X171649500Y-122064069D01*
X171672460Y-122179496D01*
X171674499Y-122189742D01*
X171674500Y-122189747D01*
X171723534Y-122308125D01*
X171723538Y-122308133D01*
X171761401Y-122364797D01*
X171794724Y-122414669D01*
X171885331Y-122505276D01*
X171948848Y-122547717D01*
X171991866Y-122576461D01*
X171991870Y-122576463D01*
X171991873Y-122576465D01*
X172110256Y-122625501D01*
X172235931Y-122650500D01*
X172265918Y-122650500D01*
X172324109Y-122669407D01*
X172358676Y-122714903D01*
X172406203Y-122842330D01*
X172474907Y-122934107D01*
X172492454Y-122957546D01*
X172492457Y-122957548D01*
X172492458Y-122957549D01*
X172607670Y-123043797D01*
X172742511Y-123094089D01*
X172742512Y-123094089D01*
X172742517Y-123094091D01*
X172802127Y-123100500D01*
X174397872Y-123100499D01*
X174457483Y-123094091D01*
X174555527Y-123057523D01*
X174592329Y-123043797D01*
X174592329Y-123043796D01*
X174592331Y-123043796D01*
X174707546Y-122957546D01*
X174793796Y-122842331D01*
X174794334Y-122840890D01*
X174834096Y-122734282D01*
X174844091Y-122707483D01*
X174850500Y-122647873D01*
X174850499Y-121352128D01*
X174844091Y-121292517D01*
X174839713Y-121280778D01*
X174793797Y-121157670D01*
X174707549Y-121042458D01*
X174707548Y-121042457D01*
X174707546Y-121042454D01*
X174645103Y-120995709D01*
X174592329Y-120956202D01*
X174457488Y-120905910D01*
X174457483Y-120905909D01*
X174457481Y-120905908D01*
X174457477Y-120905908D01*
X174426249Y-120902550D01*
X174397873Y-120899500D01*
X174397870Y-120899500D01*
X172802133Y-120899500D01*
X172802129Y-120899500D01*
X172802128Y-120899501D01*
X172794949Y-120900272D01*
X172742519Y-120905908D01*
X172742514Y-120905909D01*
X172607670Y-120956202D01*
X172492458Y-121042450D01*
X172492450Y-121042458D01*
X172406202Y-121157670D01*
X172368566Y-121258582D01*
X172359069Y-121284046D01*
X172358677Y-121285096D01*
X172320627Y-121333011D01*
X172265919Y-121349500D01*
X172235930Y-121349500D01*
X172222714Y-121352129D01*
X172110256Y-121374499D01*
X172110255Y-121374499D01*
X172110252Y-121374500D01*
X171991874Y-121423534D01*
X171991866Y-121423538D01*
X171885331Y-121494724D01*
X171885327Y-121494727D01*
X171794727Y-121585327D01*
X171794724Y-121585331D01*
X171723538Y-121691866D01*
X171723534Y-121691874D01*
X171674500Y-121810252D01*
X171674499Y-121810255D01*
X171674499Y-121810256D01*
X171649500Y-121935931D01*
X145728156Y-121935931D01*
X145711019Y-121902297D01*
X145709800Y-121886810D01*
X145709800Y-121800525D01*
X145672284Y-121660515D01*
X145672282Y-121660512D01*
X145672282Y-121660510D01*
X145599812Y-121534989D01*
X145599810Y-121534987D01*
X145599809Y-121534985D01*
X145497315Y-121432491D01*
X145497312Y-121432489D01*
X145497310Y-121432487D01*
X145371788Y-121360017D01*
X145371789Y-121360017D01*
X145332539Y-121349500D01*
X145231775Y-121322500D01*
X145086825Y-121322500D01*
X145047598Y-121333011D01*
X144946810Y-121360017D01*
X144821289Y-121432487D01*
X144718787Y-121534989D01*
X144646317Y-121660510D01*
X144637913Y-121691874D01*
X144608800Y-121800525D01*
X140903257Y-121800525D01*
X143106786Y-119596996D01*
X143161303Y-119569219D01*
X143176790Y-119568000D01*
X155554742Y-119568000D01*
X155554744Y-119568000D01*
X155643888Y-119544114D01*
X155723812Y-119497970D01*
X159646455Y-115575327D01*
X160649500Y-115575327D01*
X160649500Y-117624672D01*
X160649501Y-117624684D01*
X160664033Y-117697736D01*
X160664035Y-117697742D01*
X160719397Y-117780599D01*
X160719400Y-117780602D01*
X160793431Y-117830067D01*
X160802260Y-117835966D01*
X160857808Y-117847015D01*
X160875315Y-117850498D01*
X160875320Y-117850498D01*
X160875326Y-117850500D01*
X160875327Y-117850500D01*
X164124673Y-117850500D01*
X164124674Y-117850500D01*
X164197740Y-117835966D01*
X164280601Y-117780601D01*
X164335966Y-117697740D01*
X164350500Y-117624674D01*
X164350500Y-115575326D01*
X164335966Y-115502260D01*
X164323838Y-115484109D01*
X164280602Y-115419400D01*
X164280599Y-115419397D01*
X164197742Y-115364035D01*
X164197740Y-115364034D01*
X164197737Y-115364033D01*
X164197736Y-115364033D01*
X164124684Y-115349501D01*
X164124674Y-115349500D01*
X160875326Y-115349500D01*
X160875325Y-115349500D01*
X160875315Y-115349501D01*
X160802263Y-115364033D01*
X160802257Y-115364035D01*
X160719400Y-115419397D01*
X160719397Y-115419400D01*
X160664035Y-115502257D01*
X160664033Y-115502263D01*
X160649501Y-115575315D01*
X160649500Y-115575327D01*
X159646455Y-115575327D01*
X161820203Y-113401579D01*
X168249500Y-113401579D01*
X168249500Y-113598420D01*
X168280289Y-113792821D01*
X168341116Y-113980025D01*
X168425628Y-114145892D01*
X168430476Y-114155405D01*
X168546172Y-114314646D01*
X168685354Y-114453828D01*
X168844595Y-114569524D01*
X169019975Y-114658884D01*
X169207174Y-114719709D01*
X169207175Y-114719709D01*
X169207178Y-114719710D01*
X169401580Y-114750500D01*
X169401583Y-114750500D01*
X169598420Y-114750500D01*
X169792821Y-114719710D01*
X169792822Y-114719709D01*
X169792826Y-114719709D01*
X169980025Y-114658884D01*
X170155405Y-114569524D01*
X170314646Y-114453828D01*
X170453828Y-114314646D01*
X170569524Y-114155405D01*
X170658884Y-113980025D01*
X170719709Y-113792826D01*
X170735490Y-113693190D01*
X170750500Y-113598420D01*
X170750500Y-113401579D01*
X170719710Y-113207178D01*
X170719709Y-113207174D01*
X170658884Y-113019975D01*
X170569524Y-112844595D01*
X170453828Y-112685354D01*
X170314646Y-112546172D01*
X170155405Y-112430476D01*
X170155404Y-112430475D01*
X170155402Y-112430474D01*
X169980025Y-112341116D01*
X169792821Y-112280289D01*
X169598420Y-112249500D01*
X169598417Y-112249500D01*
X169401583Y-112249500D01*
X169401580Y-112249500D01*
X169207178Y-112280289D01*
X169019974Y-112341116D01*
X168844597Y-112430474D01*
X168685355Y-112546171D01*
X168546171Y-112685355D01*
X168430474Y-112844597D01*
X168341116Y-113019974D01*
X168280289Y-113207178D01*
X168249500Y-113401579D01*
X161820203Y-113401579D01*
X163587674Y-111634108D01*
X166974500Y-111634108D01*
X166974500Y-111765892D01*
X166982973Y-111797513D01*
X167008609Y-111893190D01*
X167074496Y-112007309D01*
X167074498Y-112007311D01*
X167074500Y-112007314D01*
X167167686Y-112100500D01*
X167167688Y-112100501D01*
X167167690Y-112100503D01*
X167281810Y-112166390D01*
X167281808Y-112166390D01*
X167281812Y-112166391D01*
X167281814Y-112166392D01*
X167409108Y-112200500D01*
X167409110Y-112200500D01*
X167540890Y-112200500D01*
X167540892Y-112200500D01*
X167668186Y-112166392D01*
X167668188Y-112166390D01*
X167668190Y-112166390D01*
X167782309Y-112100503D01*
X167782309Y-112100502D01*
X167782314Y-112100500D01*
X167875500Y-112007314D01*
X167941392Y-111893186D01*
X167975500Y-111765892D01*
X167975500Y-111634108D01*
X167941392Y-111506814D01*
X167941390Y-111506811D01*
X167941390Y-111506809D01*
X167875503Y-111392690D01*
X167875501Y-111392688D01*
X167875500Y-111392686D01*
X167782314Y-111299500D01*
X167782311Y-111299498D01*
X167782309Y-111299496D01*
X167668189Y-111233609D01*
X167668191Y-111233609D01*
X167618799Y-111220375D01*
X167540892Y-111199500D01*
X167409108Y-111199500D01*
X167331200Y-111220375D01*
X167281809Y-111233609D01*
X167167690Y-111299496D01*
X167074496Y-111392690D01*
X167008609Y-111506809D01*
X167008608Y-111506814D01*
X166974500Y-111634108D01*
X163587674Y-111634108D01*
X166831968Y-108389814D01*
X168100000Y-108389814D01*
X168100000Y-108610185D01*
X168134471Y-108827829D01*
X168202569Y-109037413D01*
X168302609Y-109233753D01*
X168348932Y-109297512D01*
X169017036Y-108629407D01*
X169034075Y-108692993D01*
X169099901Y-108807007D01*
X169192993Y-108900099D01*
X169307007Y-108965925D01*
X169370589Y-108982962D01*
X168702485Y-109651067D01*
X168766241Y-109697387D01*
X168962586Y-109797430D01*
X169172170Y-109865528D01*
X169389815Y-109900000D01*
X169610185Y-109900000D01*
X169827829Y-109865528D01*
X170037413Y-109797430D01*
X170233757Y-109697388D01*
X170297513Y-109651067D01*
X169629408Y-108982962D01*
X169692993Y-108965925D01*
X169807007Y-108900099D01*
X169900099Y-108807007D01*
X169965925Y-108692993D01*
X169982962Y-108629408D01*
X170651067Y-109297513D01*
X170697388Y-109233757D01*
X170797430Y-109037413D01*
X170865528Y-108827829D01*
X170900000Y-108610185D01*
X170900000Y-108389814D01*
X170865528Y-108172170D01*
X170797430Y-107962586D01*
X170697387Y-107766241D01*
X170651067Y-107702485D01*
X169982962Y-108370589D01*
X169965925Y-108307007D01*
X169900099Y-108192993D01*
X169807007Y-108099901D01*
X169692993Y-108034075D01*
X169629407Y-108017036D01*
X170297512Y-107348932D01*
X170233753Y-107302609D01*
X170037413Y-107202569D01*
X169827829Y-107134471D01*
X169610185Y-107100000D01*
X169389815Y-107100000D01*
X169172170Y-107134471D01*
X168962586Y-107202569D01*
X168766239Y-107302613D01*
X168702485Y-107348931D01*
X169370591Y-108017037D01*
X169307007Y-108034075D01*
X169192993Y-108099901D01*
X169099901Y-108192993D01*
X169034075Y-108307007D01*
X169017037Y-108370591D01*
X168348931Y-107702485D01*
X168302613Y-107766239D01*
X168202569Y-107962586D01*
X168134471Y-108172170D01*
X168100000Y-108389814D01*
X166831968Y-108389814D01*
X172421686Y-102800096D01*
X172476203Y-102772319D01*
X172491690Y-102771100D01*
X172577974Y-102771100D01*
X172577975Y-102771100D01*
X172717985Y-102733584D01*
X172717987Y-102733582D01*
X172717989Y-102733582D01*
X172843510Y-102661112D01*
X172843510Y-102661111D01*
X172843515Y-102661109D01*
X172946009Y-102558615D01*
X172946012Y-102558610D01*
X173018482Y-102433089D01*
X173018482Y-102433087D01*
X173018484Y-102433085D01*
X173056000Y-102293075D01*
X173056000Y-102148125D01*
X173018484Y-102008115D01*
X173018482Y-102008112D01*
X173018482Y-102008110D01*
X172946012Y-101882589D01*
X172946010Y-101882587D01*
X172946009Y-101882585D01*
X172843515Y-101780091D01*
X172843512Y-101780089D01*
X172843510Y-101780087D01*
X172717988Y-101707617D01*
X172717989Y-101707617D01*
X172688396Y-101699687D01*
X172577975Y-101670100D01*
X172433025Y-101670100D01*
X172371290Y-101686641D01*
X172293010Y-101707617D01*
X172167489Y-101780087D01*
X172064987Y-101882589D01*
X171992517Y-102008110D01*
X171955000Y-102148125D01*
X171955000Y-102234410D01*
X171936093Y-102292601D01*
X171926004Y-102304414D01*
X155392414Y-118838004D01*
X155337897Y-118865781D01*
X155322410Y-118867000D01*
X143036744Y-118867000D01*
X142944456Y-118867000D01*
X142855312Y-118890886D01*
X142775388Y-118937030D01*
X140609301Y-121103116D01*
X140554784Y-121130893D01*
X140494352Y-121121322D01*
X140451087Y-121078057D01*
X140443672Y-121058741D01*
X140426784Y-120995715D01*
X140406491Y-120960566D01*
X140354312Y-120870189D01*
X140354310Y-120870187D01*
X140354309Y-120870185D01*
X140251815Y-120767691D01*
X140251812Y-120767689D01*
X140251810Y-120767687D01*
X140126288Y-120695217D01*
X140126289Y-120695217D01*
X140091954Y-120686017D01*
X139986275Y-120657700D01*
X139841325Y-120657700D01*
X139779590Y-120674241D01*
X139701310Y-120695217D01*
X139575789Y-120767687D01*
X139575784Y-120767691D01*
X139523971Y-120819504D01*
X139469454Y-120847281D01*
X139453968Y-120848500D01*
X133002132Y-120848500D01*
X132943941Y-120829593D01*
X132932129Y-120819504D01*
X132871115Y-120758491D01*
X132871110Y-120758487D01*
X132745588Y-120686017D01*
X132745584Y-120686015D01*
X132710797Y-120676694D01*
X132659483Y-120643370D01*
X132637557Y-120586248D01*
X132653393Y-120527148D01*
X132666413Y-120511068D01*
X134674329Y-118503151D01*
X134728844Y-118475376D01*
X134789276Y-118484947D01*
X134830067Y-118523656D01*
X134849497Y-118557309D01*
X134849500Y-118557314D01*
X134942686Y-118650500D01*
X134942688Y-118650501D01*
X134966525Y-118664264D01*
X135007465Y-118709734D01*
X135013860Y-118770584D01*
X134983267Y-118823572D01*
X134966525Y-118835736D01*
X134942688Y-118849498D01*
X134849496Y-118942690D01*
X134783609Y-119056809D01*
X134768419Y-119113500D01*
X134749500Y-119184108D01*
X134749500Y-119315892D01*
X134779579Y-119428151D01*
X134783609Y-119443190D01*
X134849496Y-119557309D01*
X134849498Y-119557311D01*
X134849500Y-119557314D01*
X134942686Y-119650500D01*
X134942688Y-119650501D01*
X134942690Y-119650503D01*
X135056810Y-119716390D01*
X135056808Y-119716390D01*
X135056812Y-119716391D01*
X135056814Y-119716392D01*
X135184108Y-119750500D01*
X135184110Y-119750500D01*
X135315890Y-119750500D01*
X135315892Y-119750500D01*
X135443186Y-119716392D01*
X135443188Y-119716390D01*
X135443190Y-119716390D01*
X135557309Y-119650503D01*
X135557309Y-119650502D01*
X135557314Y-119650500D01*
X135650500Y-119557314D01*
X135658122Y-119544113D01*
X135716390Y-119443190D01*
X135716390Y-119443188D01*
X135716392Y-119443186D01*
X135750500Y-119315892D01*
X135750500Y-119184108D01*
X135716392Y-119056814D01*
X135716390Y-119056811D01*
X135716390Y-119056809D01*
X135650503Y-118942690D01*
X135650501Y-118942688D01*
X135650500Y-118942686D01*
X135557314Y-118849500D01*
X135533474Y-118835735D01*
X135492534Y-118790267D01*
X135486138Y-118729417D01*
X135516731Y-118676429D01*
X135533474Y-118664264D01*
X135557314Y-118650500D01*
X135650500Y-118557314D01*
X135650503Y-118557309D01*
X135716390Y-118443190D01*
X135716390Y-118443188D01*
X135716392Y-118443186D01*
X135750500Y-118315892D01*
X135750500Y-118184108D01*
X135716392Y-118056814D01*
X135716390Y-118056811D01*
X135716390Y-118056809D01*
X135650503Y-117942690D01*
X135650501Y-117942688D01*
X135650500Y-117942686D01*
X135557314Y-117849500D01*
X135557311Y-117849498D01*
X135523656Y-117830067D01*
X135482716Y-117784597D01*
X135476321Y-117723747D01*
X135503151Y-117674329D01*
X136241549Y-116935931D01*
X143029500Y-116935931D01*
X143029500Y-117064069D01*
X143054169Y-117188086D01*
X143054499Y-117189742D01*
X143054500Y-117189747D01*
X143103534Y-117308125D01*
X143103538Y-117308133D01*
X143134090Y-117353856D01*
X143174724Y-117414669D01*
X143265331Y-117505276D01*
X143328848Y-117547717D01*
X143371866Y-117576461D01*
X143371870Y-117576463D01*
X143371873Y-117576465D01*
X143490256Y-117625501D01*
X143615931Y-117650500D01*
X143615932Y-117650500D01*
X143744068Y-117650500D01*
X143744069Y-117650500D01*
X143869744Y-117625501D01*
X143988127Y-117576465D01*
X144074999Y-117518418D01*
X144133886Y-117501810D01*
X144184999Y-117518418D01*
X144229932Y-117548441D01*
X144271866Y-117576461D01*
X144271870Y-117576463D01*
X144271873Y-117576465D01*
X144390256Y-117625501D01*
X144515931Y-117650500D01*
X144515932Y-117650500D01*
X144644068Y-117650500D01*
X144644069Y-117650500D01*
X144769744Y-117625501D01*
X144888127Y-117576465D01*
X144994669Y-117505276D01*
X145085276Y-117414669D01*
X145156465Y-117308127D01*
X145205501Y-117189744D01*
X145230500Y-117064069D01*
X145230500Y-116935931D01*
X145205501Y-116810256D01*
X145156465Y-116691873D01*
X145156463Y-116691870D01*
X145156461Y-116691866D01*
X145119932Y-116637197D01*
X145085276Y-116585331D01*
X144994669Y-116494724D01*
X144916789Y-116442686D01*
X144888133Y-116423538D01*
X144888125Y-116423534D01*
X144769747Y-116374500D01*
X144769745Y-116374499D01*
X144769744Y-116374499D01*
X144644069Y-116349500D01*
X144515931Y-116349500D01*
X144515930Y-116349500D01*
X144453093Y-116361999D01*
X144390256Y-116374499D01*
X144390255Y-116374499D01*
X144390252Y-116374500D01*
X144271874Y-116423534D01*
X144271865Y-116423538D01*
X144185002Y-116481580D01*
X144126114Y-116498189D01*
X144074998Y-116481580D01*
X143988134Y-116423538D01*
X143988125Y-116423534D01*
X143869747Y-116374500D01*
X143869745Y-116374499D01*
X143869744Y-116374499D01*
X143744069Y-116349500D01*
X143615931Y-116349500D01*
X143615930Y-116349500D01*
X143553093Y-116361999D01*
X143490256Y-116374499D01*
X143490255Y-116374499D01*
X143490252Y-116374500D01*
X143371874Y-116423534D01*
X143371866Y-116423538D01*
X143265331Y-116494724D01*
X143265327Y-116494727D01*
X143174727Y-116585327D01*
X143174724Y-116585331D01*
X143103538Y-116691866D01*
X143103534Y-116691874D01*
X143054500Y-116810252D01*
X143054499Y-116810255D01*
X143054499Y-116810256D01*
X143029500Y-116935931D01*
X136241549Y-116935931D01*
X139163373Y-114014108D01*
X152134500Y-114014108D01*
X152134500Y-114145892D01*
X152164579Y-114258151D01*
X152168609Y-114273190D01*
X152234496Y-114387309D01*
X152234498Y-114387311D01*
X152234500Y-114387314D01*
X152327686Y-114480500D01*
X152327688Y-114480501D01*
X152327690Y-114480503D01*
X152441810Y-114546390D01*
X152441808Y-114546390D01*
X152441812Y-114546391D01*
X152441814Y-114546392D01*
X152569108Y-114580500D01*
X152569110Y-114580500D01*
X152700890Y-114580500D01*
X152700892Y-114580500D01*
X152828186Y-114546392D01*
X152828188Y-114546390D01*
X152828190Y-114546390D01*
X152942309Y-114480503D01*
X152942309Y-114480502D01*
X152942314Y-114480500D01*
X153035500Y-114387314D01*
X153101392Y-114273186D01*
X153135500Y-114145892D01*
X153135500Y-114014108D01*
X153101392Y-113886814D01*
X153101390Y-113886811D01*
X153101390Y-113886809D01*
X153035503Y-113772690D01*
X153035501Y-113772688D01*
X153035500Y-113772686D01*
X152942314Y-113679500D01*
X152942311Y-113679498D01*
X152942309Y-113679496D01*
X152828189Y-113613609D01*
X152828191Y-113613609D01*
X152778799Y-113600375D01*
X152700892Y-113579500D01*
X152569108Y-113579500D01*
X152491200Y-113600375D01*
X152441809Y-113613609D01*
X152327690Y-113679496D01*
X152234496Y-113772690D01*
X152168609Y-113886809D01*
X152168608Y-113886814D01*
X152134500Y-114014108D01*
X139163373Y-114014108D01*
X140266373Y-112911108D01*
X149444500Y-112911108D01*
X149444500Y-113042892D01*
X149467879Y-113130145D01*
X149478609Y-113170190D01*
X149544496Y-113284309D01*
X149544498Y-113284311D01*
X149544500Y-113284314D01*
X149637686Y-113377500D01*
X149637688Y-113377501D01*
X149637690Y-113377503D01*
X149751810Y-113443390D01*
X149751808Y-113443390D01*
X149751812Y-113443391D01*
X149751814Y-113443392D01*
X149879108Y-113477500D01*
X149879110Y-113477500D01*
X150010890Y-113477500D01*
X150010892Y-113477500D01*
X150138186Y-113443392D01*
X150138188Y-113443390D01*
X150138190Y-113443390D01*
X150252309Y-113377503D01*
X150252309Y-113377502D01*
X150252314Y-113377500D01*
X150345500Y-113284314D01*
X150394470Y-113199496D01*
X150411390Y-113170190D01*
X150411390Y-113170188D01*
X150411392Y-113170186D01*
X150445500Y-113042892D01*
X150445500Y-112911108D01*
X150411392Y-112783814D01*
X150411390Y-112783811D01*
X150411390Y-112783809D01*
X150345503Y-112669690D01*
X150345501Y-112669688D01*
X150345500Y-112669686D01*
X150252314Y-112576500D01*
X150252311Y-112576498D01*
X150252309Y-112576496D01*
X150138189Y-112510609D01*
X150138191Y-112510609D01*
X150088799Y-112497375D01*
X150010892Y-112476500D01*
X149879108Y-112476500D01*
X149801200Y-112497375D01*
X149751809Y-112510609D01*
X149637690Y-112576496D01*
X149544496Y-112669690D01*
X149478609Y-112783809D01*
X149478608Y-112783814D01*
X149444500Y-112911108D01*
X140266373Y-112911108D01*
X142719670Y-110457812D01*
X142765814Y-110377888D01*
X142789700Y-110288744D01*
X142789700Y-110196456D01*
X142789700Y-109385689D01*
X142808607Y-109327498D01*
X142818690Y-109315691D01*
X142986695Y-109147686D01*
X143041211Y-109119910D01*
X143101643Y-109129481D01*
X143144908Y-109172746D01*
X143154479Y-109233178D01*
X143152325Y-109243313D01*
X143149500Y-109253856D01*
X143149500Y-110101678D01*
X143130593Y-110159869D01*
X143120505Y-110171680D01*
X143099501Y-110192684D01*
X143099496Y-110192690D01*
X143033609Y-110306809D01*
X143019118Y-110360892D01*
X142999500Y-110434108D01*
X142999500Y-110565892D01*
X143015093Y-110624085D01*
X143033609Y-110693190D01*
X143099496Y-110807309D01*
X143099498Y-110807311D01*
X143099500Y-110807314D01*
X143192686Y-110900500D01*
X143192688Y-110900501D01*
X143192690Y-110900503D01*
X143306810Y-110966390D01*
X143306808Y-110966390D01*
X143306812Y-110966391D01*
X143306814Y-110966392D01*
X143434108Y-111000500D01*
X143434110Y-111000500D01*
X143565890Y-111000500D01*
X143565892Y-111000500D01*
X143693186Y-110966392D01*
X143693188Y-110966390D01*
X143693190Y-110966390D01*
X143807309Y-110900503D01*
X143807309Y-110900502D01*
X143807314Y-110900500D01*
X143818000Y-110889814D01*
X153600000Y-110889814D01*
X153600000Y-111110185D01*
X153634471Y-111327829D01*
X153702569Y-111537413D01*
X153802609Y-111733753D01*
X153848932Y-111797512D01*
X154517036Y-111129407D01*
X154534075Y-111192993D01*
X154599901Y-111307007D01*
X154692993Y-111400099D01*
X154807007Y-111465925D01*
X154870589Y-111482962D01*
X154202485Y-112151067D01*
X154266241Y-112197387D01*
X154361027Y-112245683D01*
X154404291Y-112288948D01*
X154413863Y-112349380D01*
X154386086Y-112403896D01*
X154361029Y-112422102D01*
X154344597Y-112430474D01*
X154185355Y-112546171D01*
X154046171Y-112685355D01*
X153930474Y-112844597D01*
X153841116Y-113019974D01*
X153780289Y-113207178D01*
X153749500Y-113401579D01*
X153749500Y-113598420D01*
X153780289Y-113792821D01*
X153841116Y-113980025D01*
X153925628Y-114145892D01*
X153930476Y-114155405D01*
X154046172Y-114314646D01*
X154185354Y-114453828D01*
X154344595Y-114569524D01*
X154519975Y-114658884D01*
X154707174Y-114719709D01*
X154707175Y-114719709D01*
X154707178Y-114719710D01*
X154901580Y-114750500D01*
X154901583Y-114750500D01*
X155098420Y-114750500D01*
X155292821Y-114719710D01*
X155292822Y-114719709D01*
X155292826Y-114719709D01*
X155480025Y-114658884D01*
X155655405Y-114569524D01*
X155814646Y-114453828D01*
X155953828Y-114314646D01*
X156069524Y-114155405D01*
X156158884Y-113980025D01*
X156219709Y-113792826D01*
X156235490Y-113693190D01*
X156250500Y-113598420D01*
X156250500Y-113401579D01*
X156219710Y-113207178D01*
X156219709Y-113207174D01*
X156158884Y-113019975D01*
X156069524Y-112844595D01*
X155953828Y-112685354D01*
X155814646Y-112546172D01*
X155655405Y-112430476D01*
X155655404Y-112430475D01*
X155655402Y-112430474D01*
X155638972Y-112422103D01*
X155595707Y-112378838D01*
X155586136Y-112318406D01*
X155613913Y-112263890D01*
X155638973Y-112245683D01*
X155733754Y-112197390D01*
X155733756Y-112197389D01*
X155797513Y-112151067D01*
X155129408Y-111482962D01*
X155192993Y-111465925D01*
X155307007Y-111400099D01*
X155400099Y-111307007D01*
X155465925Y-111192993D01*
X155482962Y-111129408D01*
X156151067Y-111797513D01*
X156197388Y-111733757D01*
X156297430Y-111537413D01*
X156365528Y-111327829D01*
X156400000Y-111110185D01*
X156400000Y-110889814D01*
X156365528Y-110672170D01*
X156297430Y-110462586D01*
X156197387Y-110266241D01*
X156151067Y-110202485D01*
X155482962Y-110870589D01*
X155465925Y-110807007D01*
X155400099Y-110692993D01*
X155307007Y-110599901D01*
X155192993Y-110534075D01*
X155129407Y-110517036D01*
X155801010Y-109845434D01*
X155812453Y-109797773D01*
X155858979Y-109758036D01*
X155896865Y-109750500D01*
X156024673Y-109750500D01*
X156024674Y-109750500D01*
X156097740Y-109735966D01*
X156180601Y-109680601D01*
X156235966Y-109597740D01*
X156250500Y-109524674D01*
X156250500Y-107475326D01*
X156235966Y-107402260D01*
X156232898Y-107397669D01*
X156180602Y-107319400D01*
X156180599Y-107319397D01*
X156097742Y-107264035D01*
X156097740Y-107264034D01*
X156097737Y-107264033D01*
X156097736Y-107264033D01*
X156024684Y-107249501D01*
X156024674Y-107249500D01*
X153975326Y-107249500D01*
X153975325Y-107249500D01*
X153975315Y-107249501D01*
X153902263Y-107264033D01*
X153902257Y-107264035D01*
X153819400Y-107319397D01*
X153819397Y-107319400D01*
X153764035Y-107402257D01*
X153764033Y-107402263D01*
X153749501Y-107475315D01*
X153749500Y-107475327D01*
X153749500Y-109524672D01*
X153749501Y-109524684D01*
X153764033Y-109597736D01*
X153764035Y-109597742D01*
X153819397Y-109680599D01*
X153819399Y-109680601D01*
X153902260Y-109735966D01*
X153957808Y-109747015D01*
X153975315Y-109750498D01*
X153975320Y-109750498D01*
X153975326Y-109750500D01*
X153975327Y-109750500D01*
X154103134Y-109750500D01*
X154161325Y-109769407D01*
X154197289Y-109818907D01*
X154200621Y-109847067D01*
X154870591Y-110517037D01*
X154807007Y-110534075D01*
X154692993Y-110599901D01*
X154599901Y-110692993D01*
X154534075Y-110807007D01*
X154517037Y-110870591D01*
X153848931Y-110202485D01*
X153802613Y-110266239D01*
X153702569Y-110462586D01*
X153634471Y-110672170D01*
X153600000Y-110889814D01*
X143818000Y-110889814D01*
X143900500Y-110807314D01*
X143924755Y-110765304D01*
X143966390Y-110693190D01*
X143966390Y-110693188D01*
X143966392Y-110693186D01*
X144000500Y-110565892D01*
X144000500Y-110434108D01*
X143966392Y-110306814D01*
X143966390Y-110306811D01*
X143966390Y-110306809D01*
X143900503Y-110192690D01*
X143900498Y-110192684D01*
X143879495Y-110171680D01*
X143851719Y-110117163D01*
X143850500Y-110101678D01*
X143850500Y-109749500D01*
X143869407Y-109691309D01*
X143918907Y-109655345D01*
X143949500Y-109650500D01*
X145946142Y-109650500D01*
X145946144Y-109650500D01*
X146035288Y-109626614D01*
X146115212Y-109580469D01*
X146180469Y-109515212D01*
X146226614Y-109435288D01*
X146250500Y-109346144D01*
X146250500Y-108953856D01*
X146250500Y-108653856D01*
X146250500Y-108353856D01*
X146250500Y-108053856D01*
X146250500Y-107753856D01*
X146250500Y-107453856D01*
X146250500Y-107153856D01*
X146250500Y-106853856D01*
X146250500Y-106725297D01*
X146269407Y-106667106D01*
X146318907Y-106631142D01*
X146323832Y-106629683D01*
X146335288Y-106626614D01*
X146415212Y-106580469D01*
X146480469Y-106515212D01*
X146526614Y-106435288D01*
X146534786Y-106404788D01*
X146568108Y-106353475D01*
X146604787Y-106334786D01*
X146635288Y-106326614D01*
X146715212Y-106280469D01*
X146780469Y-106215212D01*
X146826614Y-106135288D01*
X146834786Y-106104788D01*
X146868108Y-106053475D01*
X146904787Y-106034786D01*
X146935288Y-106026614D01*
X147015212Y-105980469D01*
X147080469Y-105915212D01*
X147126614Y-105835288D01*
X147134786Y-105804788D01*
X147168108Y-105753475D01*
X147204787Y-105734786D01*
X147235288Y-105726614D01*
X147315212Y-105680469D01*
X147380469Y-105615212D01*
X147426614Y-105535288D01*
X147429671Y-105523875D01*
X147462995Y-105472563D01*
X147520116Y-105450636D01*
X147525298Y-105450500D01*
X148046142Y-105450500D01*
X148046144Y-105450500D01*
X148135288Y-105426614D01*
X148215212Y-105380469D01*
X148280469Y-105315212D01*
X148326614Y-105235288D01*
X148329671Y-105223875D01*
X148362995Y-105172563D01*
X148420116Y-105150636D01*
X148425298Y-105150500D01*
X148553856Y-105150500D01*
X148853856Y-105150500D01*
X149153856Y-105150500D01*
X149453856Y-105150500D01*
X149753856Y-105150500D01*
X150053856Y-105150500D01*
X150353856Y-105150500D01*
X150653856Y-105150500D01*
X150901679Y-105150500D01*
X150959870Y-105169407D01*
X150971676Y-105179490D01*
X150992686Y-105200500D01*
X150992688Y-105200501D01*
X150992690Y-105200503D01*
X151106810Y-105266390D01*
X151106808Y-105266390D01*
X151106812Y-105266391D01*
X151106814Y-105266392D01*
X151234108Y-105300500D01*
X151234110Y-105300500D01*
X151365890Y-105300500D01*
X151365892Y-105300500D01*
X151493186Y-105266392D01*
X151493188Y-105266390D01*
X151493190Y-105266390D01*
X151607309Y-105200503D01*
X151607309Y-105200502D01*
X151607314Y-105200500D01*
X151700500Y-105107314D01*
X151766392Y-104993186D01*
X151800500Y-104865892D01*
X151800500Y-104734108D01*
X151766392Y-104606814D01*
X151766390Y-104606811D01*
X151766390Y-104606809D01*
X151700503Y-104492690D01*
X151700501Y-104492688D01*
X151700500Y-104492686D01*
X151607314Y-104399500D01*
X151607311Y-104399498D01*
X151607309Y-104399496D01*
X151565447Y-104375327D01*
X160649500Y-104375327D01*
X160649500Y-106424672D01*
X160649501Y-106424684D01*
X160664033Y-106497736D01*
X160664035Y-106497742D01*
X160719397Y-106580599D01*
X160719400Y-106580602D01*
X160792836Y-106629669D01*
X160802260Y-106635966D01*
X160857808Y-106647015D01*
X160875315Y-106650498D01*
X160875320Y-106650498D01*
X160875326Y-106650500D01*
X160875327Y-106650500D01*
X164124673Y-106650500D01*
X164124674Y-106650500D01*
X164197740Y-106635966D01*
X164280601Y-106580601D01*
X164335966Y-106497740D01*
X164350500Y-106424674D01*
X164350500Y-104375326D01*
X164349896Y-104372292D01*
X164342202Y-104333609D01*
X164335966Y-104302260D01*
X164280601Y-104219399D01*
X164280599Y-104219397D01*
X164197742Y-104164035D01*
X164197740Y-104164034D01*
X164197737Y-104164033D01*
X164197736Y-104164033D01*
X164124684Y-104149501D01*
X164124674Y-104149500D01*
X160875326Y-104149500D01*
X160875325Y-104149500D01*
X160875315Y-104149501D01*
X160802263Y-104164033D01*
X160802257Y-104164035D01*
X160719400Y-104219397D01*
X160719397Y-104219400D01*
X160664035Y-104302257D01*
X160664033Y-104302263D01*
X160649501Y-104375315D01*
X160649500Y-104375327D01*
X151565447Y-104375327D01*
X151493189Y-104333609D01*
X151493191Y-104333609D01*
X151443799Y-104320375D01*
X151365892Y-104299500D01*
X151234108Y-104299500D01*
X151156200Y-104320375D01*
X151106809Y-104333609D01*
X150992690Y-104399496D01*
X150992689Y-104399497D01*
X150992686Y-104399499D01*
X150992686Y-104399500D01*
X150971680Y-104420505D01*
X150917166Y-104448281D01*
X150901679Y-104449500D01*
X148089526Y-104449500D01*
X148031335Y-104430593D01*
X147995371Y-104381093D01*
X147993899Y-104324877D01*
X147996978Y-104313385D01*
X148014800Y-104246875D01*
X148014800Y-104101925D01*
X148008878Y-104079824D01*
X148012079Y-104018723D01*
X148050583Y-103971173D01*
X148104504Y-103955200D01*
X149728868Y-103955200D01*
X149787059Y-103974107D01*
X149798871Y-103984196D01*
X149859884Y-104045208D01*
X149859889Y-104045212D01*
X149985411Y-104117682D01*
X149985412Y-104117682D01*
X149985415Y-104117684D01*
X150125425Y-104155200D01*
X150125426Y-104155200D01*
X150270374Y-104155200D01*
X150270375Y-104155200D01*
X150410385Y-104117684D01*
X150410387Y-104117682D01*
X150410389Y-104117682D01*
X150535910Y-104045212D01*
X150535910Y-104045211D01*
X150535915Y-104045209D01*
X150638409Y-103942715D01*
X150679068Y-103872292D01*
X150710882Y-103817189D01*
X150710882Y-103817187D01*
X150710884Y-103817185D01*
X150748400Y-103677175D01*
X150748400Y-103532225D01*
X150710884Y-103392215D01*
X150710882Y-103392212D01*
X150710882Y-103392210D01*
X150638412Y-103266689D01*
X150638410Y-103266687D01*
X150638409Y-103266685D01*
X150535915Y-103164191D01*
X150535912Y-103164189D01*
X150535910Y-103164187D01*
X150410388Y-103091717D01*
X150410389Y-103091717D01*
X150380796Y-103083787D01*
X150270375Y-103054200D01*
X150125425Y-103054200D01*
X150063690Y-103070741D01*
X149985410Y-103091717D01*
X149859889Y-103164187D01*
X149859884Y-103164191D01*
X149798871Y-103225204D01*
X149744354Y-103252981D01*
X149728868Y-103254200D01*
X141607756Y-103254200D01*
X141553197Y-103268818D01*
X141518607Y-103278087D01*
X141438691Y-103324227D01*
X138277129Y-106485789D01*
X138257542Y-106519713D01*
X138257543Y-106519714D01*
X138230986Y-106565710D01*
X138207100Y-106654857D01*
X138207100Y-107213110D01*
X138188193Y-107271301D01*
X138178103Y-107283114D01*
X137826226Y-107634990D01*
X137771710Y-107662767D01*
X137711278Y-107653196D01*
X137670193Y-107612111D01*
X137669637Y-107612433D01*
X137668437Y-107610355D01*
X137668013Y-107609931D01*
X137667303Y-107608390D01*
X137600503Y-107492690D01*
X137600501Y-107492688D01*
X137600500Y-107492686D01*
X137507314Y-107399500D01*
X137507311Y-107399498D01*
X137507309Y-107399496D01*
X137393189Y-107333609D01*
X137393191Y-107333609D01*
X137341635Y-107319795D01*
X137265892Y-107299500D01*
X137134108Y-107299500D01*
X137058365Y-107319795D01*
X137006809Y-107333609D01*
X136892690Y-107399496D01*
X136892689Y-107399497D01*
X136892686Y-107399499D01*
X136892686Y-107399500D01*
X136871680Y-107420505D01*
X136817166Y-107448281D01*
X136801679Y-107449500D01*
X135709272Y-107449500D01*
X135651081Y-107430593D01*
X135615117Y-107381093D01*
X135615117Y-107319907D01*
X135651081Y-107270407D01*
X135659765Y-107264766D01*
X135724314Y-107227500D01*
X135817500Y-107134314D01*
X135883392Y-107020186D01*
X135917500Y-106892892D01*
X135917500Y-106761108D01*
X135883392Y-106633814D01*
X135883390Y-106633811D01*
X135883390Y-106633809D01*
X135817503Y-106519690D01*
X135817501Y-106519688D01*
X135817500Y-106519686D01*
X135724314Y-106426500D01*
X135724311Y-106426498D01*
X135724309Y-106426496D01*
X135610189Y-106360609D01*
X135610191Y-106360609D01*
X135526863Y-106338282D01*
X135482892Y-106326500D01*
X135351108Y-106326500D01*
X135307137Y-106338282D01*
X135223809Y-106360609D01*
X135109690Y-106426496D01*
X135016496Y-106519690D01*
X134950609Y-106633809D01*
X134931539Y-106704978D01*
X134916500Y-106761108D01*
X134916500Y-106892892D01*
X134923821Y-106920213D01*
X134950609Y-107020190D01*
X135016496Y-107134309D01*
X135016498Y-107134311D01*
X135016500Y-107134314D01*
X135109686Y-107227500D01*
X135174228Y-107264763D01*
X135215169Y-107310233D01*
X135221565Y-107371083D01*
X135190972Y-107424071D01*
X135135076Y-107448958D01*
X135124728Y-107449500D01*
X134846144Y-107449500D01*
X134546144Y-107449500D01*
X134246143Y-107449500D01*
X133946144Y-107449500D01*
X133853856Y-107449500D01*
X133764712Y-107473386D01*
X133764711Y-107473386D01*
X133764709Y-107473387D01*
X133684790Y-107519529D01*
X133619529Y-107584790D01*
X133573385Y-107664712D01*
X133565213Y-107695211D01*
X133531889Y-107746525D01*
X133495211Y-107765213D01*
X133464712Y-107773385D01*
X133384790Y-107819529D01*
X133319529Y-107884790D01*
X133273385Y-107964712D01*
X133265213Y-107995211D01*
X133231889Y-108046525D01*
X133195211Y-108065213D01*
X133164712Y-108073385D01*
X133084790Y-108119529D01*
X133019529Y-108184790D01*
X132973387Y-108264709D01*
X132973386Y-108264711D01*
X132973386Y-108264712D01*
X132970328Y-108276124D01*
X132937005Y-108327437D01*
X132879884Y-108349364D01*
X132874702Y-108349500D01*
X132746143Y-108349500D01*
X132446144Y-108349500D01*
X132146144Y-108349500D01*
X131846144Y-108349500D01*
X131546144Y-108349500D01*
X131246143Y-108349500D01*
X130946144Y-108349500D01*
X130646144Y-108349500D01*
X130346144Y-108349500D01*
X130046144Y-108349500D01*
X129746143Y-108349500D01*
X129446144Y-108349500D01*
X129146144Y-108349500D01*
X128846144Y-108349500D01*
X128546144Y-108349500D01*
X128246143Y-108349500D01*
X127946144Y-108349500D01*
X127646144Y-108349500D01*
X127346144Y-108349500D01*
X127046144Y-108349500D01*
X126746144Y-108349500D01*
X126446144Y-108349500D01*
X126146144Y-108349500D01*
X125846144Y-108349500D01*
X125546144Y-108349500D01*
X125246144Y-108349500D01*
X124946144Y-108349500D01*
X124646144Y-108349500D01*
X124346144Y-108349500D01*
X124253856Y-108349500D01*
X124199297Y-108364118D01*
X124164707Y-108373387D01*
X124127300Y-108394985D01*
X124067452Y-108407707D01*
X124011556Y-108382820D01*
X123980963Y-108329832D01*
X123978800Y-108309249D01*
X123978800Y-106853385D01*
X126169500Y-106853385D01*
X126169500Y-107026614D01*
X126196597Y-107197702D01*
X126196598Y-107197706D01*
X126250123Y-107362438D01*
X126250125Y-107362441D01*
X126316489Y-107492690D01*
X126328768Y-107516788D01*
X126430586Y-107656928D01*
X126553072Y-107779414D01*
X126693212Y-107881232D01*
X126847555Y-107959873D01*
X126847557Y-107959873D01*
X126847558Y-107959874D01*
X126847561Y-107959876D01*
X127012293Y-108013401D01*
X127012297Y-108013402D01*
X127183386Y-108040500D01*
X127183389Y-108040500D01*
X127356614Y-108040500D01*
X127527702Y-108013402D01*
X127527706Y-108013401D01*
X127692438Y-107959876D01*
X127692440Y-107959874D01*
X127692445Y-107959873D01*
X127846788Y-107881232D01*
X127986928Y-107779414D01*
X128109414Y-107656928D01*
X128211232Y-107516788D01*
X128289873Y-107362445D01*
X128289874Y-107362440D01*
X128289876Y-107362438D01*
X128343401Y-107197706D01*
X128343402Y-107197702D01*
X128370500Y-107026614D01*
X128370500Y-106853385D01*
X128709500Y-106853385D01*
X128709500Y-107026614D01*
X128736597Y-107197702D01*
X128736598Y-107197706D01*
X128790123Y-107362438D01*
X128790125Y-107362441D01*
X128856489Y-107492690D01*
X128868768Y-107516788D01*
X128970586Y-107656928D01*
X129093072Y-107779414D01*
X129233212Y-107881232D01*
X129387555Y-107959873D01*
X129387557Y-107959873D01*
X129387558Y-107959874D01*
X129387561Y-107959876D01*
X129552293Y-108013401D01*
X129552297Y-108013402D01*
X129723386Y-108040500D01*
X129723389Y-108040500D01*
X129896614Y-108040500D01*
X130067702Y-108013402D01*
X130067706Y-108013401D01*
X130232438Y-107959876D01*
X130232440Y-107959874D01*
X130232445Y-107959873D01*
X130386788Y-107881232D01*
X130526928Y-107779414D01*
X130649414Y-107656928D01*
X130751232Y-107516788D01*
X130829873Y-107362445D01*
X130829874Y-107362440D01*
X130829876Y-107362438D01*
X130883401Y-107197706D01*
X130883402Y-107197702D01*
X130910500Y-107026614D01*
X130910500Y-106853385D01*
X131249500Y-106853385D01*
X131249500Y-107026614D01*
X131276597Y-107197702D01*
X131276598Y-107197706D01*
X131330123Y-107362438D01*
X131330125Y-107362441D01*
X131396489Y-107492690D01*
X131408768Y-107516788D01*
X131510586Y-107656928D01*
X131633072Y-107779414D01*
X131773212Y-107881232D01*
X131927555Y-107959873D01*
X131927557Y-107959873D01*
X131927558Y-107959874D01*
X131927561Y-107959876D01*
X132092293Y-108013401D01*
X132092297Y-108013402D01*
X132263386Y-108040500D01*
X132263389Y-108040500D01*
X132436614Y-108040500D01*
X132607702Y-108013402D01*
X132607706Y-108013401D01*
X132772438Y-107959876D01*
X132772440Y-107959874D01*
X132772445Y-107959873D01*
X132926788Y-107881232D01*
X133066928Y-107779414D01*
X133189414Y-107656928D01*
X133291232Y-107516788D01*
X133369873Y-107362445D01*
X133369874Y-107362440D01*
X133369876Y-107362438D01*
X133423401Y-107197706D01*
X133423402Y-107197702D01*
X133450500Y-107026614D01*
X133450500Y-106853385D01*
X133423402Y-106682297D01*
X133423401Y-106682293D01*
X133369876Y-106517561D01*
X133369874Y-106517558D01*
X133369873Y-106517557D01*
X133369873Y-106517555D01*
X133291232Y-106363212D01*
X133189414Y-106223072D01*
X133066928Y-106100586D01*
X132926788Y-105998768D01*
X132926787Y-105998767D01*
X132926785Y-105998766D01*
X132772441Y-105920125D01*
X132772438Y-105920123D01*
X132607706Y-105866598D01*
X132607702Y-105866597D01*
X132436614Y-105839500D01*
X132436611Y-105839500D01*
X132263389Y-105839500D01*
X132263386Y-105839500D01*
X132092297Y-105866597D01*
X132092293Y-105866598D01*
X131927561Y-105920123D01*
X131927558Y-105920125D01*
X131773214Y-105998766D01*
X131633073Y-106100585D01*
X131510585Y-106223073D01*
X131408766Y-106363214D01*
X131330125Y-106517558D01*
X131330123Y-106517561D01*
X131276598Y-106682293D01*
X131276597Y-106682297D01*
X131249500Y-106853385D01*
X130910500Y-106853385D01*
X130883402Y-106682297D01*
X130883401Y-106682293D01*
X130829876Y-106517561D01*
X130829874Y-106517558D01*
X130829873Y-106517557D01*
X130829873Y-106517555D01*
X130751232Y-106363212D01*
X130649414Y-106223072D01*
X130526928Y-106100586D01*
X130386788Y-105998768D01*
X130386787Y-105998767D01*
X130386785Y-105998766D01*
X130232441Y-105920125D01*
X130232438Y-105920123D01*
X130067706Y-105866598D01*
X130067702Y-105866597D01*
X129896614Y-105839500D01*
X129896611Y-105839500D01*
X129723389Y-105839500D01*
X129723386Y-105839500D01*
X129552297Y-105866597D01*
X129552293Y-105866598D01*
X129387561Y-105920123D01*
X129387558Y-105920125D01*
X129233214Y-105998766D01*
X129093073Y-106100585D01*
X128970585Y-106223073D01*
X128868766Y-106363214D01*
X128790125Y-106517558D01*
X128790123Y-106517561D01*
X128736598Y-106682293D01*
X128736597Y-106682297D01*
X128709500Y-106853385D01*
X128370500Y-106853385D01*
X128343402Y-106682297D01*
X128343401Y-106682293D01*
X128289876Y-106517561D01*
X128289874Y-106517558D01*
X128289873Y-106517557D01*
X128289873Y-106517555D01*
X128211232Y-106363212D01*
X128109414Y-106223072D01*
X127986928Y-106100586D01*
X127846788Y-105998768D01*
X127846787Y-105998767D01*
X127846785Y-105998766D01*
X127692441Y-105920125D01*
X127692438Y-105920123D01*
X127527706Y-105866598D01*
X127527702Y-105866597D01*
X127356614Y-105839500D01*
X127356611Y-105839500D01*
X127183389Y-105839500D01*
X127183386Y-105839500D01*
X127012297Y-105866597D01*
X127012293Y-105866598D01*
X126847561Y-105920123D01*
X126847558Y-105920125D01*
X126693214Y-105998766D01*
X126553073Y-106100585D01*
X126430585Y-106223073D01*
X126328766Y-106363214D01*
X126250125Y-106517558D01*
X126250123Y-106517561D01*
X126196598Y-106682293D01*
X126196597Y-106682297D01*
X126169500Y-106853385D01*
X123978800Y-106853385D01*
X123978800Y-106146957D01*
X123975674Y-106135290D01*
X123954914Y-106057812D01*
X123944821Y-106040331D01*
X123908770Y-105977888D01*
X123851005Y-105920123D01*
X123786796Y-105855913D01*
X123759019Y-105801397D01*
X123757800Y-105785910D01*
X123757800Y-105699625D01*
X123742791Y-105643611D01*
X123720284Y-105559615D01*
X123720282Y-105559612D01*
X123720282Y-105559610D01*
X123647812Y-105434089D01*
X123647810Y-105434087D01*
X123647809Y-105434085D01*
X123545315Y-105331591D01*
X123545312Y-105331589D01*
X123545310Y-105331587D01*
X123419788Y-105259117D01*
X123419789Y-105259117D01*
X123330866Y-105235290D01*
X123279775Y-105221600D01*
X123147664Y-105221600D01*
X123089473Y-105202693D01*
X123053509Y-105153193D01*
X123053509Y-105092007D01*
X123067571Y-105064409D01*
X123131232Y-104976788D01*
X123209873Y-104822445D01*
X123209874Y-104822440D01*
X123209876Y-104822438D01*
X123263401Y-104657706D01*
X123263402Y-104657702D01*
X123290500Y-104486614D01*
X123290500Y-104313385D01*
X123629500Y-104313385D01*
X123629500Y-104486614D01*
X123656597Y-104657702D01*
X123656598Y-104657706D01*
X123710123Y-104822438D01*
X123710125Y-104822441D01*
X123784080Y-104967589D01*
X123788768Y-104976788D01*
X123890586Y-105116928D01*
X124013072Y-105239414D01*
X124153212Y-105341232D01*
X124307555Y-105419873D01*
X124307557Y-105419873D01*
X124307558Y-105419874D01*
X124307561Y-105419876D01*
X124472293Y-105473401D01*
X124472297Y-105473402D01*
X124643386Y-105500500D01*
X124643389Y-105500500D01*
X124816614Y-105500500D01*
X124987702Y-105473402D01*
X124987706Y-105473401D01*
X125152438Y-105419876D01*
X125152440Y-105419874D01*
X125152445Y-105419873D01*
X125306788Y-105341232D01*
X125446928Y-105239414D01*
X125569414Y-105116928D01*
X125671232Y-104976788D01*
X125749873Y-104822445D01*
X125749874Y-104822440D01*
X125749876Y-104822438D01*
X125803401Y-104657706D01*
X125803402Y-104657702D01*
X125830500Y-104486614D01*
X125830500Y-104313385D01*
X126169500Y-104313385D01*
X126169500Y-104486614D01*
X126196597Y-104657702D01*
X126196598Y-104657706D01*
X126250123Y-104822438D01*
X126250125Y-104822441D01*
X126324080Y-104967589D01*
X126328768Y-104976788D01*
X126430586Y-105116928D01*
X126553072Y-105239414D01*
X126693212Y-105341232D01*
X126847555Y-105419873D01*
X126847557Y-105419873D01*
X126847558Y-105419874D01*
X126847561Y-105419876D01*
X127012293Y-105473401D01*
X127012297Y-105473402D01*
X127183386Y-105500500D01*
X127183389Y-105500500D01*
X127356614Y-105500500D01*
X127527702Y-105473402D01*
X127527706Y-105473401D01*
X127692438Y-105419876D01*
X127692440Y-105419874D01*
X127692445Y-105419873D01*
X127846788Y-105341232D01*
X127986928Y-105239414D01*
X128109414Y-105116928D01*
X128211232Y-104976788D01*
X128289873Y-104822445D01*
X128289874Y-104822440D01*
X128289876Y-104822438D01*
X128343401Y-104657706D01*
X128343402Y-104657702D01*
X128370500Y-104486614D01*
X128370500Y-104313385D01*
X131249500Y-104313385D01*
X131249500Y-104486614D01*
X131276597Y-104657702D01*
X131276598Y-104657706D01*
X131330123Y-104822438D01*
X131330125Y-104822441D01*
X131404080Y-104967589D01*
X131408768Y-104976788D01*
X131510586Y-105116928D01*
X131633072Y-105239414D01*
X131773212Y-105341232D01*
X131927555Y-105419873D01*
X131927557Y-105419873D01*
X131927558Y-105419874D01*
X131927561Y-105419876D01*
X132092293Y-105473401D01*
X132092297Y-105473402D01*
X132263386Y-105500500D01*
X132263389Y-105500500D01*
X132436614Y-105500500D01*
X132607702Y-105473402D01*
X132607706Y-105473401D01*
X132772438Y-105419876D01*
X132772440Y-105419874D01*
X132772445Y-105419873D01*
X132926788Y-105341232D01*
X133066928Y-105239414D01*
X133189414Y-105116928D01*
X133291232Y-104976788D01*
X133369873Y-104822445D01*
X133369874Y-104822440D01*
X133369876Y-104822438D01*
X133423401Y-104657706D01*
X133423402Y-104657702D01*
X133450500Y-104486614D01*
X133450500Y-104313385D01*
X133423402Y-104142297D01*
X133423401Y-104142293D01*
X133369876Y-103977561D01*
X133369874Y-103977558D01*
X133369873Y-103977557D01*
X133369873Y-103977555D01*
X133291232Y-103823212D01*
X133189414Y-103683072D01*
X133066928Y-103560586D01*
X132926788Y-103458768D01*
X132926787Y-103458767D01*
X132926785Y-103458766D01*
X132772441Y-103380125D01*
X132772438Y-103380123D01*
X132607706Y-103326598D01*
X132607702Y-103326597D01*
X132436614Y-103299500D01*
X132436611Y-103299500D01*
X132263389Y-103299500D01*
X132263386Y-103299500D01*
X132092297Y-103326597D01*
X132092293Y-103326598D01*
X131927561Y-103380123D01*
X131927558Y-103380125D01*
X131773214Y-103458766D01*
X131633073Y-103560585D01*
X131510585Y-103683073D01*
X131408766Y-103823214D01*
X131330125Y-103977558D01*
X131330123Y-103977561D01*
X131276598Y-104142293D01*
X131276597Y-104142297D01*
X131249500Y-104313385D01*
X128370500Y-104313385D01*
X128343402Y-104142297D01*
X128343401Y-104142293D01*
X128289876Y-103977561D01*
X128289874Y-103977558D01*
X128289873Y-103977557D01*
X128289873Y-103977555D01*
X128211232Y-103823212D01*
X128109414Y-103683072D01*
X127986928Y-103560586D01*
X127846788Y-103458768D01*
X127846787Y-103458767D01*
X127846785Y-103458766D01*
X127692441Y-103380125D01*
X127692438Y-103380123D01*
X127527706Y-103326598D01*
X127527702Y-103326597D01*
X127356614Y-103299500D01*
X127356611Y-103299500D01*
X127183389Y-103299500D01*
X127183386Y-103299500D01*
X127012297Y-103326597D01*
X127012293Y-103326598D01*
X126847561Y-103380123D01*
X126847558Y-103380125D01*
X126693214Y-103458766D01*
X126553073Y-103560585D01*
X126430585Y-103683073D01*
X126328766Y-103823214D01*
X126250125Y-103977558D01*
X126250123Y-103977561D01*
X126196598Y-104142293D01*
X126196597Y-104142297D01*
X126169500Y-104313385D01*
X125830500Y-104313385D01*
X125803402Y-104142297D01*
X125803401Y-104142293D01*
X125749876Y-103977561D01*
X125749874Y-103977558D01*
X125749873Y-103977557D01*
X125749873Y-103977555D01*
X125671232Y-103823212D01*
X125569414Y-103683072D01*
X125446928Y-103560586D01*
X125306788Y-103458768D01*
X125306787Y-103458767D01*
X125306785Y-103458766D01*
X125152441Y-103380125D01*
X125152438Y-103380123D01*
X124987706Y-103326598D01*
X124987702Y-103326597D01*
X124816614Y-103299500D01*
X124816611Y-103299500D01*
X124643389Y-103299500D01*
X124643386Y-103299500D01*
X124472297Y-103326597D01*
X124472293Y-103326598D01*
X124307561Y-103380123D01*
X124307558Y-103380125D01*
X124153214Y-103458766D01*
X124013073Y-103560585D01*
X123890585Y-103683073D01*
X123788766Y-103823214D01*
X123710125Y-103977558D01*
X123710123Y-103977561D01*
X123656598Y-104142293D01*
X123656597Y-104142297D01*
X123629500Y-104313385D01*
X123290500Y-104313385D01*
X123263402Y-104142297D01*
X123263401Y-104142293D01*
X123209876Y-103977561D01*
X123209874Y-103977558D01*
X123209873Y-103977557D01*
X123209873Y-103977555D01*
X123131232Y-103823212D01*
X123029414Y-103683072D01*
X122906928Y-103560586D01*
X122766788Y-103458768D01*
X122766787Y-103458767D01*
X122766785Y-103458766D01*
X122612441Y-103380125D01*
X122612438Y-103380123D01*
X122447706Y-103326598D01*
X122447702Y-103326597D01*
X122276614Y-103299500D01*
X122276611Y-103299500D01*
X122103389Y-103299500D01*
X122103386Y-103299500D01*
X121932297Y-103326597D01*
X121932293Y-103326598D01*
X121767561Y-103380123D01*
X121767558Y-103380125D01*
X121613214Y-103458766D01*
X121473073Y-103560585D01*
X121350585Y-103683073D01*
X121248766Y-103823214D01*
X121170126Y-103977555D01*
X121155874Y-104021420D01*
X121144607Y-104056093D01*
X121108645Y-104105592D01*
X121050454Y-104124500D01*
X121049435Y-104124500D01*
X120950565Y-104124500D01*
X120875121Y-104144714D01*
X120814021Y-104141512D01*
X120766472Y-104103007D01*
X120750500Y-104049088D01*
X120750500Y-103525327D01*
X120750498Y-103525315D01*
X120747015Y-103507808D01*
X120735966Y-103452260D01*
X120687768Y-103380125D01*
X120680602Y-103369400D01*
X120680599Y-103369397D01*
X120597742Y-103314035D01*
X120597740Y-103314034D01*
X120597737Y-103314033D01*
X120597736Y-103314033D01*
X120524684Y-103299501D01*
X120524674Y-103299500D01*
X118775326Y-103299500D01*
X118775325Y-103299500D01*
X118775315Y-103299501D01*
X118702263Y-103314033D01*
X118702257Y-103314035D01*
X118619400Y-103369397D01*
X118619397Y-103369400D01*
X118564035Y-103452257D01*
X118564033Y-103452263D01*
X118549501Y-103525315D01*
X118549500Y-103525327D01*
X118549500Y-105274672D01*
X118549501Y-105274684D01*
X118564033Y-105347736D01*
X118564035Y-105347742D01*
X118619397Y-105430599D01*
X118619400Y-105430602D01*
X118624613Y-105434085D01*
X118702260Y-105485966D01*
X118757808Y-105497015D01*
X118775315Y-105500498D01*
X118775320Y-105500498D01*
X118775326Y-105500500D01*
X118775327Y-105500500D01*
X120525500Y-105500500D01*
X120583691Y-105519407D01*
X120619655Y-105568907D01*
X120624500Y-105599500D01*
X120624500Y-106119151D01*
X120605593Y-106177342D01*
X120556093Y-106213306D01*
X120494907Y-106213306D01*
X120455498Y-106189156D01*
X120366928Y-106100586D01*
X120226788Y-105998768D01*
X120226787Y-105998767D01*
X120226785Y-105998766D01*
X120072441Y-105920125D01*
X120072438Y-105920123D01*
X119907706Y-105866598D01*
X119907702Y-105866597D01*
X119736614Y-105839500D01*
X119736611Y-105839500D01*
X119563389Y-105839500D01*
X119563386Y-105839500D01*
X119392297Y-105866597D01*
X119392293Y-105866598D01*
X119227561Y-105920123D01*
X119227558Y-105920125D01*
X119073214Y-105998766D01*
X118933073Y-106100585D01*
X118810585Y-106223073D01*
X118708766Y-106363214D01*
X118630125Y-106517558D01*
X118630123Y-106517561D01*
X118576598Y-106682293D01*
X118576597Y-106682297D01*
X118549500Y-106853385D01*
X118549500Y-107026614D01*
X118576597Y-107197702D01*
X118576598Y-107197706D01*
X118630123Y-107362438D01*
X118630125Y-107362441D01*
X118696489Y-107492690D01*
X118708768Y-107516788D01*
X118810586Y-107656928D01*
X118933072Y-107779414D01*
X119073212Y-107881232D01*
X119227555Y-107959873D01*
X119227557Y-107959873D01*
X119227558Y-107959874D01*
X119227561Y-107959876D01*
X119392293Y-108013401D01*
X119392297Y-108013402D01*
X119563386Y-108040500D01*
X119563389Y-108040500D01*
X119736614Y-108040500D01*
X119907702Y-108013402D01*
X119907706Y-108013401D01*
X120072438Y-107959876D01*
X120072440Y-107959874D01*
X120072445Y-107959873D01*
X120226788Y-107881232D01*
X120366928Y-107779414D01*
X120455498Y-107690843D01*
X120510013Y-107663068D01*
X120570445Y-107672639D01*
X120613710Y-107715904D01*
X120624500Y-107760849D01*
X120624500Y-118212148D01*
X120605593Y-118270339D01*
X120556093Y-118306303D01*
X120494907Y-118306303D01*
X120476000Y-118297884D01*
X120387189Y-118246609D01*
X120387191Y-118246609D01*
X120337799Y-118233375D01*
X120259892Y-118212500D01*
X120128108Y-118212500D01*
X120050200Y-118233375D01*
X120000809Y-118246609D01*
X119886690Y-118312496D01*
X119793496Y-118405690D01*
X119758836Y-118465724D01*
X119713367Y-118506665D01*
X119652516Y-118513061D01*
X119599528Y-118482468D01*
X119574642Y-118426572D01*
X119574100Y-118416224D01*
X119574100Y-116232761D01*
X119593007Y-116174570D01*
X119626806Y-116147932D01*
X119625765Y-116146128D01*
X119631382Y-116142884D01*
X119631385Y-116142884D01*
X119756915Y-116070409D01*
X119859409Y-115967915D01*
X119931884Y-115842385D01*
X119969400Y-115702375D01*
X119969400Y-115557425D01*
X119931884Y-115417415D01*
X119931882Y-115417412D01*
X119931882Y-115417410D01*
X119859412Y-115291889D01*
X119859410Y-115291887D01*
X119859409Y-115291885D01*
X119756915Y-115189391D01*
X119756912Y-115189389D01*
X119756910Y-115189387D01*
X119631388Y-115116917D01*
X119631389Y-115116917D01*
X119586131Y-115104790D01*
X119491375Y-115079400D01*
X119346425Y-115079400D01*
X119284690Y-115095941D01*
X119206410Y-115116917D01*
X119080889Y-115189387D01*
X118978387Y-115291889D01*
X118905917Y-115417410D01*
X118883181Y-115502263D01*
X118868400Y-115557425D01*
X118868400Y-115702375D01*
X118874158Y-115723864D01*
X118874159Y-115775103D01*
X118873100Y-115779054D01*
X118873100Y-122251242D01*
X118854193Y-122309433D01*
X118804693Y-122345397D01*
X118748477Y-122346868D01*
X118726575Y-122341000D01*
X118581625Y-122341000D01*
X118536307Y-122353143D01*
X118441610Y-122378517D01*
X118316089Y-122450987D01*
X118213587Y-122553489D01*
X118141117Y-122679010D01*
X118126307Y-122734282D01*
X118103600Y-122819025D01*
X118103600Y-122963975D01*
X118125255Y-123044793D01*
X118141117Y-123103989D01*
X118213587Y-123229510D01*
X118213589Y-123229512D01*
X118213591Y-123229515D01*
X118274605Y-123290529D01*
X118302381Y-123345044D01*
X118303600Y-123360531D01*
X118303600Y-123599087D01*
X118284693Y-123657278D01*
X118235193Y-123693242D01*
X118174007Y-123693242D01*
X118155102Y-123684824D01*
X118135293Y-123673388D01*
X118135293Y-123673387D01*
X118100702Y-123664118D01*
X118046144Y-123649500D01*
X118046142Y-123649500D01*
X117249500Y-123649500D01*
X117191309Y-123630593D01*
X117155345Y-123581093D01*
X117150500Y-123550500D01*
X117150500Y-123353857D01*
X117150500Y-123353856D01*
X117126614Y-123264712D01*
X117080469Y-123184788D01*
X117015212Y-123119531D01*
X116993186Y-123106814D01*
X116935287Y-123073385D01*
X116923872Y-123070326D01*
X116872560Y-123037000D01*
X116850635Y-122979877D01*
X116850500Y-122974701D01*
X116850500Y-121165770D01*
X116853873Y-121140147D01*
X116858917Y-121121322D01*
X116875500Y-121059435D01*
X116875500Y-120960565D01*
X116853873Y-120879850D01*
X116850500Y-120854228D01*
X116850500Y-118721108D01*
X117190500Y-118721108D01*
X117190500Y-118852892D01*
X117216944Y-118951582D01*
X117224609Y-118980190D01*
X117290496Y-119094309D01*
X117290498Y-119094311D01*
X117290500Y-119094314D01*
X117383686Y-119187500D01*
X117383688Y-119187501D01*
X117383690Y-119187503D01*
X117497810Y-119253390D01*
X117497808Y-119253390D01*
X117497812Y-119253391D01*
X117497814Y-119253392D01*
X117625108Y-119287500D01*
X117625110Y-119287500D01*
X117756890Y-119287500D01*
X117756892Y-119287500D01*
X117884186Y-119253392D01*
X117884188Y-119253390D01*
X117884190Y-119253390D01*
X117998309Y-119187503D01*
X117998309Y-119187502D01*
X117998314Y-119187500D01*
X118091500Y-119094314D01*
X118101805Y-119076465D01*
X118157390Y-118980190D01*
X118157390Y-118980188D01*
X118157392Y-118980186D01*
X118191500Y-118852892D01*
X118191500Y-118721108D01*
X118157392Y-118593814D01*
X118157390Y-118593811D01*
X118157390Y-118593809D01*
X118091503Y-118479690D01*
X118091501Y-118479688D01*
X118091500Y-118479686D01*
X117998314Y-118386500D01*
X117998311Y-118386498D01*
X117998309Y-118386496D01*
X117884189Y-118320609D01*
X117884191Y-118320609D01*
X117834799Y-118307375D01*
X117756892Y-118286500D01*
X117625108Y-118286500D01*
X117547200Y-118307375D01*
X117497809Y-118320609D01*
X117383690Y-118386496D01*
X117290496Y-118479690D01*
X117224609Y-118593809D01*
X117224608Y-118593814D01*
X117190500Y-118721108D01*
X116850500Y-118721108D01*
X116850500Y-115449500D01*
X116869407Y-115391309D01*
X116918907Y-115355345D01*
X116949500Y-115350500D01*
X117446142Y-115350500D01*
X117446144Y-115350500D01*
X117535288Y-115326614D01*
X117615212Y-115280469D01*
X117680469Y-115215212D01*
X117726614Y-115135288D01*
X117734786Y-115104788D01*
X117768108Y-115053475D01*
X117804787Y-115034786D01*
X117835288Y-115026614D01*
X117915212Y-114980469D01*
X117980469Y-114915212D01*
X118026614Y-114835288D01*
X118034786Y-114804788D01*
X118068108Y-114753475D01*
X118104787Y-114734786D01*
X118135288Y-114726614D01*
X118215212Y-114680469D01*
X118280469Y-114615212D01*
X118326614Y-114535288D01*
X118350500Y-114446144D01*
X118350500Y-114080589D01*
X118369407Y-114022398D01*
X118418907Y-113986434D01*
X118423847Y-113984970D01*
X118493186Y-113966392D01*
X118595512Y-113907314D01*
X118607309Y-113900503D01*
X118607309Y-113900502D01*
X118607314Y-113900500D01*
X118700500Y-113807314D01*
X118766392Y-113693186D01*
X118800500Y-113565892D01*
X118800500Y-113434108D01*
X118766392Y-113306814D01*
X118766390Y-113306811D01*
X118766390Y-113306809D01*
X118700503Y-113192690D01*
X118700501Y-113192688D01*
X118700500Y-113192686D01*
X118607314Y-113099500D01*
X118607311Y-113099498D01*
X118607309Y-113099496D01*
X118493189Y-113033609D01*
X118493191Y-113033609D01*
X118442303Y-113019974D01*
X118365892Y-112999500D01*
X118234108Y-112999500D01*
X118157697Y-113019974D01*
X118106809Y-113033609D01*
X117992685Y-113099499D01*
X117957352Y-113134832D01*
X117912975Y-113160453D01*
X117864711Y-113173386D01*
X117784790Y-113219529D01*
X117719529Y-113284790D01*
X117673387Y-113364709D01*
X117673386Y-113364711D01*
X117673386Y-113364712D01*
X117652305Y-113443390D01*
X117649500Y-113453857D01*
X117649500Y-113974701D01*
X117630593Y-114032892D01*
X117581093Y-114068856D01*
X117576128Y-114070326D01*
X117564713Y-114073385D01*
X117564712Y-114073385D01*
X117484790Y-114119529D01*
X117419529Y-114184790D01*
X117373385Y-114264712D01*
X117365213Y-114295211D01*
X117331889Y-114346525D01*
X117295211Y-114365213D01*
X117264712Y-114373385D01*
X117184790Y-114419529D01*
X117119529Y-114484790D01*
X117073387Y-114564709D01*
X117073386Y-114564711D01*
X117073386Y-114564712D01*
X117070328Y-114576124D01*
X117037005Y-114627437D01*
X116979884Y-114649364D01*
X116974702Y-114649500D01*
X116846144Y-114649500D01*
X116546144Y-114649500D01*
X116453856Y-114649500D01*
X116364712Y-114673386D01*
X116364711Y-114673386D01*
X116364709Y-114673387D01*
X116284790Y-114719529D01*
X116219529Y-114784790D01*
X116173387Y-114864709D01*
X116173386Y-114864711D01*
X116173386Y-114864712D01*
X116159856Y-114915209D01*
X116149500Y-114953857D01*
X116149500Y-120535500D01*
X116130593Y-120593691D01*
X116081093Y-120629655D01*
X116050500Y-120634500D01*
X115473321Y-120634500D01*
X115415130Y-120615593D01*
X115412523Y-120613366D01*
X115412460Y-120613449D01*
X115407309Y-120609496D01*
X115293189Y-120543609D01*
X115293191Y-120543609D01*
X115231756Y-120527148D01*
X115165892Y-120509500D01*
X115034108Y-120509500D01*
X114968244Y-120527148D01*
X114906809Y-120543609D01*
X114792690Y-120609496D01*
X114699496Y-120702690D01*
X114633609Y-120816809D01*
X114625118Y-120848500D01*
X114599500Y-120944108D01*
X114599500Y-121075892D01*
X114629579Y-121188151D01*
X114633609Y-121203190D01*
X114699496Y-121317309D01*
X114699498Y-121317311D01*
X114699500Y-121317314D01*
X114792686Y-121410500D01*
X114792688Y-121410501D01*
X114792690Y-121410503D01*
X114906810Y-121476390D01*
X114906808Y-121476390D01*
X114906812Y-121476391D01*
X114906814Y-121476392D01*
X115034108Y-121510500D01*
X115034110Y-121510500D01*
X115165890Y-121510500D01*
X115165892Y-121510500D01*
X115293186Y-121476392D01*
X115293188Y-121476390D01*
X115293190Y-121476390D01*
X115407309Y-121410503D01*
X115407309Y-121410502D01*
X115407314Y-121410500D01*
X115407317Y-121410496D01*
X115412460Y-121406551D01*
X115414273Y-121408913D01*
X115457834Y-121386719D01*
X115473321Y-121385500D01*
X116050500Y-121385500D01*
X116108691Y-121404407D01*
X116144655Y-121453907D01*
X116149500Y-121484500D01*
X116149500Y-121553856D01*
X116149500Y-121853856D01*
X116149500Y-122153856D01*
X116149500Y-122453856D01*
X116149500Y-122753856D01*
X116149500Y-123053856D01*
X116149500Y-123446144D01*
X116173386Y-123535288D01*
X116219531Y-123615212D01*
X116284788Y-123680469D01*
X116364712Y-123726614D01*
X116376122Y-123729671D01*
X116427435Y-123762991D01*
X116449364Y-123820112D01*
X116449500Y-123825297D01*
X116449500Y-124046144D01*
X116473386Y-124135288D01*
X116473387Y-124135290D01*
X116487838Y-124160320D01*
X116519531Y-124215212D01*
X116584788Y-124280469D01*
X116664712Y-124326614D01*
X116753856Y-124350500D01*
X116846144Y-124350500D01*
X117053856Y-124350500D01*
X117353856Y-124350500D01*
X117419678Y-124350500D01*
X117477869Y-124369407D01*
X117513833Y-124418907D01*
X117515305Y-124475122D01*
X117512763Y-124484608D01*
X117499500Y-124534108D01*
X117499500Y-124665892D01*
X117521445Y-124747791D01*
X117533609Y-124793190D01*
X117599496Y-124907309D01*
X117599498Y-124907311D01*
X117599500Y-124907314D01*
X117692686Y-125000500D01*
X117692688Y-125000501D01*
X117692690Y-125000503D01*
X117806810Y-125066390D01*
X117806808Y-125066390D01*
X117806812Y-125066391D01*
X117806814Y-125066392D01*
X117934108Y-125100500D01*
X117934110Y-125100500D01*
X118065890Y-125100500D01*
X118065892Y-125100500D01*
X118178980Y-125070198D01*
X118240078Y-125073400D01*
X118287628Y-125111905D01*
X118303600Y-125165825D01*
X118303600Y-127693310D01*
X118284693Y-127751501D01*
X118274604Y-127763314D01*
X113342514Y-132695404D01*
X113287997Y-132723181D01*
X113272510Y-132724400D01*
X113186225Y-132724400D01*
X113124490Y-132740941D01*
X113046210Y-132761917D01*
X112920689Y-132834387D01*
X112818187Y-132936889D01*
X112745717Y-133062410D01*
X112708200Y-133202425D01*
X103394400Y-133202425D01*
X103529833Y-133158419D01*
X103629327Y-133107726D01*
X103705142Y-133069096D01*
X103705148Y-133069092D01*
X103864314Y-132953450D01*
X104003450Y-132814314D01*
X104119092Y-132655148D01*
X104119096Y-132655142D01*
X104208419Y-132479833D01*
X104269222Y-132292704D01*
X104275985Y-132250000D01*
X103333012Y-132250000D01*
X103365925Y-132192993D01*
X103400000Y-132065826D01*
X103400000Y-131934174D01*
X103365925Y-131807007D01*
X103333012Y-131750000D01*
X104275985Y-131750000D01*
X104275985Y-131749999D01*
X104269222Y-131707295D01*
X104208419Y-131520166D01*
X104119096Y-131344857D01*
X104119092Y-131344851D01*
X104003450Y-131185685D01*
X103864314Y-131046549D01*
X103705148Y-130930907D01*
X103705142Y-130930903D01*
X103529829Y-130841578D01*
X103529826Y-130841576D01*
X103342714Y-130780779D01*
X103342710Y-130780778D01*
X103150000Y-130750256D01*
X103150000Y-131566988D01*
X103092993Y-131534075D01*
X102965826Y-131500000D01*
X102834174Y-131500000D01*
X102707007Y-131534075D01*
X102650000Y-131566988D01*
X102650000Y-130750256D01*
X102457289Y-130780778D01*
X102457285Y-130780779D01*
X102270173Y-130841576D01*
X102270170Y-130841578D01*
X102094857Y-130930903D01*
X102094851Y-130930907D01*
X101935685Y-131046549D01*
X101796549Y-131185685D01*
X101680907Y-131344851D01*
X101680903Y-131344857D01*
X101591580Y-131520166D01*
X101530777Y-131707295D01*
X101524014Y-131749999D01*
X100500000Y-131749999D01*
X100500000Y-122249999D01*
X101524014Y-122249999D01*
X101524015Y-122250000D01*
X102466988Y-122250000D01*
X102434075Y-122307007D01*
X102400000Y-122434174D01*
X102400000Y-122565826D01*
X102434075Y-122692993D01*
X102466988Y-122750000D01*
X101524015Y-122750000D01*
X101530777Y-122792704D01*
X101591580Y-122979833D01*
X101680903Y-123155142D01*
X101680907Y-123155148D01*
X101796549Y-123314314D01*
X101935685Y-123453450D01*
X102094851Y-123569092D01*
X102094857Y-123569096D01*
X102270166Y-123658419D01*
X102417665Y-123706345D01*
X102467165Y-123742309D01*
X102486072Y-123800500D01*
X102467165Y-123858691D01*
X102417665Y-123894655D01*
X102387072Y-123899500D01*
X102102133Y-123899500D01*
X102102129Y-123899500D01*
X102102128Y-123899501D01*
X102094949Y-123900272D01*
X102042519Y-123905908D01*
X102042514Y-123905909D01*
X101907670Y-123956202D01*
X101792458Y-124042450D01*
X101792450Y-124042458D01*
X101706202Y-124157670D01*
X101655910Y-124292511D01*
X101655908Y-124292522D01*
X101653707Y-124313000D01*
X101651277Y-124335604D01*
X101649500Y-124352129D01*
X101649500Y-125647866D01*
X101649501Y-125647870D01*
X101655908Y-125707480D01*
X101655909Y-125707485D01*
X101706202Y-125842329D01*
X101770721Y-125928515D01*
X101792454Y-125957546D01*
X101792457Y-125957548D01*
X101792458Y-125957549D01*
X101907670Y-126043797D01*
X102042511Y-126094089D01*
X102042512Y-126094089D01*
X102042517Y-126094091D01*
X102102127Y-126100500D01*
X103697872Y-126100499D01*
X103757483Y-126094091D01*
X103826144Y-126068482D01*
X103892329Y-126043797D01*
X103892329Y-126043796D01*
X103892331Y-126043796D01*
X104007546Y-125957546D01*
X104093796Y-125842331D01*
X104119242Y-125774108D01*
X110691500Y-125774108D01*
X110691500Y-125905892D01*
X110709953Y-125974760D01*
X110725609Y-126033190D01*
X110791496Y-126147309D01*
X110791498Y-126147311D01*
X110791500Y-126147314D01*
X110884686Y-126240500D01*
X110884688Y-126240501D01*
X110884690Y-126240503D01*
X110998810Y-126306390D01*
X110998808Y-126306390D01*
X110998812Y-126306391D01*
X110998814Y-126306392D01*
X111126108Y-126340500D01*
X111126110Y-126340500D01*
X111257890Y-126340500D01*
X111257892Y-126340500D01*
X111385186Y-126306392D01*
X111385188Y-126306390D01*
X111385190Y-126306390D01*
X111499309Y-126240503D01*
X111499309Y-126240502D01*
X111499314Y-126240500D01*
X111592500Y-126147314D01*
X111619529Y-126100498D01*
X111658390Y-126033190D01*
X111658390Y-126033188D01*
X111658392Y-126033186D01*
X111692500Y-125905892D01*
X111692500Y-125774108D01*
X111658392Y-125646814D01*
X111658390Y-125646811D01*
X111658390Y-125646809D01*
X111592503Y-125532690D01*
X111592501Y-125532688D01*
X111592500Y-125532686D01*
X111499314Y-125439500D01*
X111499311Y-125439498D01*
X111499309Y-125439496D01*
X111385189Y-125373609D01*
X111385191Y-125373609D01*
X111335799Y-125360375D01*
X111257892Y-125339500D01*
X111126108Y-125339500D01*
X111048200Y-125360375D01*
X110998809Y-125373609D01*
X110884690Y-125439496D01*
X110791496Y-125532690D01*
X110725609Y-125646809D01*
X110711390Y-125699876D01*
X110691500Y-125774108D01*
X104119242Y-125774108D01*
X104144091Y-125707483D01*
X104150500Y-125647873D01*
X104150499Y-124352128D01*
X104145180Y-124302653D01*
X104147905Y-124289681D01*
X104145832Y-124276587D01*
X104154041Y-124260475D01*
X104157759Y-124242779D01*
X104173610Y-124222071D01*
X104253686Y-124141996D01*
X104308203Y-124114219D01*
X104323689Y-124113000D01*
X110421668Y-124113000D01*
X110479859Y-124131907D01*
X110491671Y-124141996D01*
X110552684Y-124203008D01*
X110552689Y-124203012D01*
X110678211Y-124275482D01*
X110678212Y-124275482D01*
X110678215Y-124275484D01*
X110818225Y-124313000D01*
X110818226Y-124313000D01*
X110963174Y-124313000D01*
X110963175Y-124313000D01*
X111103185Y-124275484D01*
X111103187Y-124275482D01*
X111103189Y-124275482D01*
X111228710Y-124203012D01*
X111228710Y-124203011D01*
X111228715Y-124203009D01*
X111331209Y-124100515D01*
X111344465Y-124077555D01*
X111403682Y-123974989D01*
X111403682Y-123974987D01*
X111403684Y-123974985D01*
X111441200Y-123834975D01*
X111441200Y-123690025D01*
X111403684Y-123550015D01*
X111403682Y-123550012D01*
X111403682Y-123550010D01*
X111331212Y-123424489D01*
X111331210Y-123424487D01*
X111331209Y-123424485D01*
X111228715Y-123321991D01*
X111228712Y-123321989D01*
X111228710Y-123321987D01*
X111103188Y-123249517D01*
X111103189Y-123249517D01*
X111028522Y-123229510D01*
X110963175Y-123212000D01*
X110818225Y-123212000D01*
X110767261Y-123225656D01*
X110678210Y-123249517D01*
X110552689Y-123321987D01*
X110552684Y-123321991D01*
X110491671Y-123383004D01*
X110437154Y-123410781D01*
X110421668Y-123412000D01*
X104126776Y-123412000D01*
X104068585Y-123393093D01*
X104032621Y-123343593D01*
X104032621Y-123282407D01*
X104046684Y-123254809D01*
X104119092Y-123155148D01*
X104119096Y-123155142D01*
X104208419Y-122979833D01*
X104269222Y-122792704D01*
X104275985Y-122750000D01*
X103333012Y-122750000D01*
X103365925Y-122692993D01*
X103400000Y-122565826D01*
X103400000Y-122434174D01*
X103365925Y-122307007D01*
X103333012Y-122250000D01*
X104275985Y-122250000D01*
X104275985Y-122249999D01*
X104269222Y-122207295D01*
X104208419Y-122020166D01*
X104119096Y-121844857D01*
X104119092Y-121844851D01*
X104003450Y-121685685D01*
X103864314Y-121546549D01*
X103705148Y-121430907D01*
X103705142Y-121430903D01*
X103529829Y-121341578D01*
X103529826Y-121341576D01*
X103342714Y-121280779D01*
X103342710Y-121280778D01*
X103150000Y-121250256D01*
X103150000Y-122066988D01*
X103092993Y-122034075D01*
X102965826Y-122000000D01*
X102834174Y-122000000D01*
X102707007Y-122034075D01*
X102650000Y-122066988D01*
X102650000Y-121250256D01*
X102457289Y-121280778D01*
X102457285Y-121280779D01*
X102270173Y-121341576D01*
X102270170Y-121341578D01*
X102094857Y-121430903D01*
X102094851Y-121430907D01*
X101935685Y-121546549D01*
X101796549Y-121685685D01*
X101680907Y-121844851D01*
X101680903Y-121844857D01*
X101591580Y-122020166D01*
X101530777Y-122207295D01*
X101524014Y-122249999D01*
X100500000Y-122249999D01*
X100500000Y-118435931D01*
X110149500Y-118435931D01*
X110149500Y-118564069D01*
X110171850Y-118676429D01*
X110174499Y-118689742D01*
X110174500Y-118689747D01*
X110223534Y-118808125D01*
X110223538Y-118808133D01*
X110253446Y-118852892D01*
X110294724Y-118914669D01*
X110385331Y-119005276D01*
X110433835Y-119037685D01*
X110491866Y-119076461D01*
X110491870Y-119076463D01*
X110491873Y-119076465D01*
X110610256Y-119125501D01*
X110735931Y-119150500D01*
X110735932Y-119150500D01*
X110864068Y-119150500D01*
X110864069Y-119150500D01*
X110989744Y-119125501D01*
X111108127Y-119076465D01*
X111194999Y-119018418D01*
X111253886Y-119001810D01*
X111304999Y-119018418D01*
X111333835Y-119037685D01*
X111391866Y-119076461D01*
X111391870Y-119076463D01*
X111391873Y-119076465D01*
X111510256Y-119125501D01*
X111635931Y-119150500D01*
X111635932Y-119150500D01*
X111764068Y-119150500D01*
X111764069Y-119150500D01*
X111889744Y-119125501D01*
X112008127Y-119076465D01*
X112114669Y-119005276D01*
X112205276Y-118914669D01*
X112276465Y-118808127D01*
X112325501Y-118689744D01*
X112350500Y-118564069D01*
X112350500Y-118435931D01*
X112325501Y-118310256D01*
X112276465Y-118191873D01*
X112276463Y-118191870D01*
X112276461Y-118191866D01*
X112237534Y-118133609D01*
X112205276Y-118085331D01*
X112114669Y-117994724D01*
X112053506Y-117953856D01*
X112008133Y-117923538D01*
X112008125Y-117923534D01*
X111889747Y-117874500D01*
X111889745Y-117874499D01*
X111889744Y-117874499D01*
X111764069Y-117849500D01*
X111635931Y-117849500D01*
X111635930Y-117849500D01*
X111615842Y-117853496D01*
X111510256Y-117874499D01*
X111510255Y-117874499D01*
X111510252Y-117874500D01*
X111391874Y-117923534D01*
X111391865Y-117923538D01*
X111305002Y-117981580D01*
X111246114Y-117998189D01*
X111194998Y-117981580D01*
X111108134Y-117923538D01*
X111108125Y-117923534D01*
X110989747Y-117874500D01*
X110989745Y-117874499D01*
X110989744Y-117874499D01*
X110864069Y-117849500D01*
X110735931Y-117849500D01*
X110735930Y-117849500D01*
X110715842Y-117853496D01*
X110610256Y-117874499D01*
X110610255Y-117874499D01*
X110610252Y-117874500D01*
X110491874Y-117923534D01*
X110491866Y-117923538D01*
X110385331Y-117994724D01*
X110385327Y-117994727D01*
X110294727Y-118085327D01*
X110294724Y-118085331D01*
X110223538Y-118191866D01*
X110223534Y-118191874D01*
X110174500Y-118310252D01*
X110174499Y-118310255D01*
X110174499Y-118310256D01*
X110174053Y-118312500D01*
X110155360Y-118406474D01*
X110149500Y-118435931D01*
X100500000Y-118435931D01*
X100500000Y-117439108D01*
X104586500Y-117439108D01*
X104586500Y-117570892D01*
X104607831Y-117650500D01*
X104620609Y-117698190D01*
X104686496Y-117812309D01*
X104686498Y-117812311D01*
X104686500Y-117812314D01*
X104779686Y-117905500D01*
X104779688Y-117905501D01*
X104779690Y-117905503D01*
X104893810Y-117971390D01*
X104893808Y-117971390D01*
X104893812Y-117971391D01*
X104893814Y-117971392D01*
X105021108Y-118005500D01*
X105021110Y-118005500D01*
X105152890Y-118005500D01*
X105152892Y-118005500D01*
X105280186Y-117971392D01*
X105280188Y-117971390D01*
X105280190Y-117971390D01*
X105394309Y-117905503D01*
X105394309Y-117905502D01*
X105394314Y-117905500D01*
X105487500Y-117812314D01*
X105487503Y-117812309D01*
X105553390Y-117698190D01*
X105553390Y-117698188D01*
X105553392Y-117698186D01*
X105587500Y-117570892D01*
X105587500Y-117439108D01*
X105553392Y-117311814D01*
X105553390Y-117311811D01*
X105553390Y-117311809D01*
X105487503Y-117197690D01*
X105487501Y-117197688D01*
X105487500Y-117197686D01*
X105394314Y-117104500D01*
X105394311Y-117104498D01*
X105394309Y-117104496D01*
X105280189Y-117038609D01*
X105280191Y-117038609D01*
X105230799Y-117025375D01*
X105152892Y-117004500D01*
X105021108Y-117004500D01*
X104943200Y-117025375D01*
X104893809Y-117038609D01*
X104779690Y-117104496D01*
X104686496Y-117197690D01*
X104620609Y-117311809D01*
X104620608Y-117311814D01*
X104586500Y-117439108D01*
X100500000Y-117439108D01*
X100500000Y-114581931D01*
X106680500Y-114581931D01*
X106680500Y-114710069D01*
X106705408Y-114835288D01*
X106705499Y-114835742D01*
X106705500Y-114835747D01*
X106754534Y-114954125D01*
X106754538Y-114954133D01*
X106790070Y-115007309D01*
X106825724Y-115060669D01*
X106916331Y-115151276D01*
X106973368Y-115189387D01*
X107022866Y-115222461D01*
X107022870Y-115222463D01*
X107022873Y-115222465D01*
X107141256Y-115271501D01*
X107266931Y-115296500D01*
X107266932Y-115296500D01*
X107395068Y-115296500D01*
X107395069Y-115296500D01*
X107520744Y-115271501D01*
X107639127Y-115222465D01*
X107725999Y-115164418D01*
X107784886Y-115147810D01*
X107835999Y-115164418D01*
X107873368Y-115189387D01*
X107922866Y-115222461D01*
X107922870Y-115222463D01*
X107922873Y-115222465D01*
X108041256Y-115271501D01*
X108166931Y-115296500D01*
X108166932Y-115296500D01*
X108295068Y-115296500D01*
X108295069Y-115296500D01*
X108420744Y-115271501D01*
X108539127Y-115222465D01*
X108645669Y-115151276D01*
X108736276Y-115060669D01*
X108807465Y-114954127D01*
X108856501Y-114835744D01*
X108881500Y-114710069D01*
X108881500Y-114634108D01*
X112074500Y-114634108D01*
X112074500Y-114765892D01*
X112104579Y-114878151D01*
X112108609Y-114893190D01*
X112174496Y-115007309D01*
X112174498Y-115007311D01*
X112174500Y-115007314D01*
X112267686Y-115100500D01*
X112267688Y-115100501D01*
X112267690Y-115100503D01*
X112381810Y-115166390D01*
X112381808Y-115166390D01*
X112381812Y-115166391D01*
X112381814Y-115166392D01*
X112509108Y-115200500D01*
X112509110Y-115200500D01*
X112640890Y-115200500D01*
X112640892Y-115200500D01*
X112768186Y-115166392D01*
X112768188Y-115166390D01*
X112768190Y-115166390D01*
X112882309Y-115100503D01*
X112882309Y-115100502D01*
X112882314Y-115100500D01*
X112975500Y-115007314D01*
X112980818Y-114998103D01*
X113041390Y-114893190D01*
X113041390Y-114893188D01*
X113041392Y-114893186D01*
X113075500Y-114765892D01*
X113075500Y-114634108D01*
X113041392Y-114506814D01*
X113041390Y-114506811D01*
X113041390Y-114506809D01*
X112975503Y-114392690D01*
X112975501Y-114392688D01*
X112975500Y-114392686D01*
X112882314Y-114299500D01*
X112882311Y-114299498D01*
X112882309Y-114299496D01*
X112768189Y-114233609D01*
X112768191Y-114233609D01*
X112718799Y-114220375D01*
X112640892Y-114199500D01*
X112509108Y-114199500D01*
X112431200Y-114220375D01*
X112381809Y-114233609D01*
X112267690Y-114299496D01*
X112174496Y-114392690D01*
X112108609Y-114506809D01*
X112108608Y-114506814D01*
X112074500Y-114634108D01*
X108881500Y-114634108D01*
X108881500Y-114581931D01*
X108856501Y-114456256D01*
X108807465Y-114337873D01*
X108807463Y-114337870D01*
X108807461Y-114337866D01*
X108764245Y-114273190D01*
X108736276Y-114231331D01*
X108645669Y-114140724D01*
X108603226Y-114112365D01*
X108539133Y-114069538D01*
X108539125Y-114069534D01*
X108420747Y-114020500D01*
X108420745Y-114020499D01*
X108420744Y-114020499D01*
X108295069Y-113995500D01*
X108166931Y-113995500D01*
X108166930Y-113995500D01*
X108104093Y-114007999D01*
X108041256Y-114020499D01*
X108041255Y-114020499D01*
X108041252Y-114020500D01*
X107922874Y-114069534D01*
X107922865Y-114069538D01*
X107836002Y-114127580D01*
X107777114Y-114144189D01*
X107725998Y-114127580D01*
X107639134Y-114069538D01*
X107639125Y-114069534D01*
X107520747Y-114020500D01*
X107520745Y-114020499D01*
X107520744Y-114020499D01*
X107395069Y-113995500D01*
X107266931Y-113995500D01*
X107266930Y-113995500D01*
X107204093Y-114007999D01*
X107141256Y-114020499D01*
X107141255Y-114020499D01*
X107141252Y-114020500D01*
X107022874Y-114069534D01*
X107022866Y-114069538D01*
X106916331Y-114140724D01*
X106916327Y-114140727D01*
X106825727Y-114231327D01*
X106825724Y-114231331D01*
X106754538Y-114337866D01*
X106754534Y-114337874D01*
X106705500Y-114456252D01*
X106705499Y-114456255D01*
X106705499Y-114456256D01*
X106699823Y-114484790D01*
X106680785Y-114580500D01*
X106680500Y-114581931D01*
X100500000Y-114581931D01*
X100500000Y-109984108D01*
X112937500Y-109984108D01*
X112937500Y-110115892D01*
X112952448Y-110171680D01*
X112971609Y-110243190D01*
X113037496Y-110357309D01*
X113037498Y-110357311D01*
X113037500Y-110357314D01*
X113130686Y-110450500D01*
X113130688Y-110450501D01*
X113130690Y-110450503D01*
X113244810Y-110516390D01*
X113244808Y-110516390D01*
X113244812Y-110516391D01*
X113244814Y-110516392D01*
X113372108Y-110550500D01*
X113372110Y-110550500D01*
X113503890Y-110550500D01*
X113503892Y-110550500D01*
X113631186Y-110516392D01*
X113631188Y-110516390D01*
X113631190Y-110516390D01*
X113745309Y-110450503D01*
X113745309Y-110450502D01*
X113745314Y-110450500D01*
X113838500Y-110357314D01*
X113891081Y-110266241D01*
X113904390Y-110243190D01*
X113904390Y-110243188D01*
X113904392Y-110243186D01*
X113938500Y-110115892D01*
X113938500Y-109984108D01*
X113904392Y-109856814D01*
X113904390Y-109856811D01*
X113904390Y-109856809D01*
X113838503Y-109742690D01*
X113838501Y-109742688D01*
X113838500Y-109742686D01*
X113745314Y-109649500D01*
X113745311Y-109649498D01*
X113745309Y-109649496D01*
X113631189Y-109583609D01*
X113631191Y-109583609D01*
X113581799Y-109570375D01*
X113503892Y-109549500D01*
X113372108Y-109549500D01*
X113294200Y-109570375D01*
X113244809Y-109583609D01*
X113130690Y-109649496D01*
X113037496Y-109742690D01*
X112971609Y-109856809D01*
X112971608Y-109856814D01*
X112937500Y-109984108D01*
X100500000Y-109984108D01*
X100500000Y-102873720D01*
X101395500Y-102873720D01*
X101395500Y-103126279D01*
X101435007Y-103375716D01*
X101513052Y-103615914D01*
X101618676Y-103823214D01*
X101627709Y-103840941D01*
X101776156Y-104045261D01*
X101954739Y-104223844D01*
X102159059Y-104372291D01*
X102384086Y-104486948D01*
X102624279Y-104564991D01*
X102624280Y-104564991D01*
X102624283Y-104564992D01*
X102873720Y-104604500D01*
X102873723Y-104604500D01*
X103126280Y-104604500D01*
X103375716Y-104564992D01*
X103375717Y-104564991D01*
X103375721Y-104564991D01*
X103615914Y-104486948D01*
X103840941Y-104372291D01*
X104045261Y-104223844D01*
X104223844Y-104045261D01*
X104251564Y-104007108D01*
X111464500Y-104007108D01*
X111464500Y-104138892D01*
X111485821Y-104218463D01*
X111498609Y-104266190D01*
X111564496Y-104380309D01*
X111564498Y-104380311D01*
X111564500Y-104380314D01*
X111657686Y-104473500D01*
X111657688Y-104473501D01*
X111657690Y-104473503D01*
X111771810Y-104539390D01*
X111771808Y-104539390D01*
X111771812Y-104539391D01*
X111771814Y-104539392D01*
X111899108Y-104573500D01*
X111899110Y-104573500D01*
X112030890Y-104573500D01*
X112030892Y-104573500D01*
X112158186Y-104539392D01*
X112158188Y-104539390D01*
X112158190Y-104539390D01*
X112272309Y-104473503D01*
X112272309Y-104473502D01*
X112272314Y-104473500D01*
X112365500Y-104380314D01*
X112410565Y-104302260D01*
X112431390Y-104266190D01*
X112431390Y-104266188D01*
X112431392Y-104266186D01*
X112465500Y-104138892D01*
X112465500Y-104007108D01*
X112431392Y-103879814D01*
X112431390Y-103879811D01*
X112431390Y-103879809D01*
X112365503Y-103765690D01*
X112365501Y-103765688D01*
X112365500Y-103765686D01*
X112272314Y-103672500D01*
X112272311Y-103672498D01*
X112272309Y-103672496D01*
X112158189Y-103606609D01*
X112158191Y-103606609D01*
X112108799Y-103593375D01*
X112030892Y-103572500D01*
X111899108Y-103572500D01*
X111821200Y-103593375D01*
X111771809Y-103606609D01*
X111657690Y-103672496D01*
X111564496Y-103765690D01*
X111498609Y-103879809D01*
X111498608Y-103879814D01*
X111464500Y-104007108D01*
X104251564Y-104007108D01*
X104372291Y-103840941D01*
X104486948Y-103615914D01*
X104564991Y-103375721D01*
X104565992Y-103369400D01*
X104604500Y-103126279D01*
X104604500Y-102873720D01*
X104564992Y-102624283D01*
X104543655Y-102558615D01*
X104486948Y-102384086D01*
X104481666Y-102373720D01*
X137895500Y-102373720D01*
X137895500Y-102626279D01*
X137935007Y-102875716D01*
X138013052Y-103115914D01*
X138120400Y-103326598D01*
X138127709Y-103340941D01*
X138276156Y-103545261D01*
X138454739Y-103723844D01*
X138659059Y-103872291D01*
X138884086Y-103986948D01*
X139124279Y-104064991D01*
X139124280Y-104064991D01*
X139124283Y-104064992D01*
X139373720Y-104104500D01*
X139373723Y-104104500D01*
X139626280Y-104104500D01*
X139875716Y-104064992D01*
X139875717Y-104064991D01*
X139875721Y-104064991D01*
X140115914Y-103986948D01*
X140340941Y-103872291D01*
X140545261Y-103723844D01*
X140723844Y-103545261D01*
X140872291Y-103340941D01*
X140986948Y-103115914D01*
X141064991Y-102875721D01*
X141064992Y-102875716D01*
X141104500Y-102626279D01*
X141104500Y-102373721D01*
X141093157Y-102302107D01*
X141093157Y-102302106D01*
X141091732Y-102293108D01*
X168074500Y-102293108D01*
X168074500Y-102424892D01*
X168104579Y-102537151D01*
X168108609Y-102552190D01*
X168174496Y-102666309D01*
X168174498Y-102666311D01*
X168174500Y-102666314D01*
X168267686Y-102759500D01*
X168267688Y-102759501D01*
X168267690Y-102759503D01*
X168381810Y-102825390D01*
X168381808Y-102825390D01*
X168381812Y-102825391D01*
X168381814Y-102825392D01*
X168509108Y-102859500D01*
X168509110Y-102859500D01*
X168640890Y-102859500D01*
X168640892Y-102859500D01*
X168768186Y-102825392D01*
X168768188Y-102825390D01*
X168768190Y-102825390D01*
X168882309Y-102759503D01*
X168882309Y-102759502D01*
X168882314Y-102759500D01*
X168975500Y-102666314D01*
X168975503Y-102666309D01*
X169041390Y-102552190D01*
X169041390Y-102552188D01*
X169041392Y-102552186D01*
X169075500Y-102424892D01*
X169075500Y-102293108D01*
X169041392Y-102165814D01*
X169041390Y-102165811D01*
X169041390Y-102165809D01*
X168975503Y-102051690D01*
X168975501Y-102051688D01*
X168975500Y-102051686D01*
X168882314Y-101958500D01*
X168882311Y-101958498D01*
X168882309Y-101958496D01*
X168768189Y-101892609D01*
X168768191Y-101892609D01*
X168718799Y-101879375D01*
X168640892Y-101858500D01*
X168509108Y-101858500D01*
X168431200Y-101879375D01*
X168381809Y-101892609D01*
X168267690Y-101958496D01*
X168174496Y-102051690D01*
X168108609Y-102165809D01*
X168108608Y-102165814D01*
X168074500Y-102293108D01*
X141091732Y-102293108D01*
X141064992Y-102124283D01*
X141064991Y-102124279D01*
X140986948Y-101884086D01*
X140872291Y-101659059D01*
X140723844Y-101454739D01*
X140545261Y-101276156D01*
X140340941Y-101127709D01*
X140340940Y-101127708D01*
X140340938Y-101127707D01*
X140115914Y-101013052D01*
X139875716Y-100935007D01*
X139626280Y-100895500D01*
X139626277Y-100895500D01*
X139373723Y-100895500D01*
X139373720Y-100895500D01*
X139124283Y-100935007D01*
X138884085Y-101013052D01*
X138659061Y-101127707D01*
X138454740Y-101276155D01*
X138276155Y-101454740D01*
X138127707Y-101659061D01*
X138013052Y-101884085D01*
X137935007Y-102124283D01*
X137895500Y-102373720D01*
X104481666Y-102373720D01*
X104372291Y-102159059D01*
X104223844Y-101954739D01*
X104045261Y-101776156D01*
X103840941Y-101627709D01*
X103840940Y-101627708D01*
X103840938Y-101627707D01*
X103615914Y-101513052D01*
X103375716Y-101435007D01*
X103126280Y-101395500D01*
X103126277Y-101395500D01*
X102873723Y-101395500D01*
X102873720Y-101395500D01*
X102624283Y-101435007D01*
X102384085Y-101513052D01*
X102159061Y-101627707D01*
X101954740Y-101776155D01*
X101776155Y-101954740D01*
X101627707Y-102159061D01*
X101513052Y-102384085D01*
X101435007Y-102624283D01*
X101395500Y-102873720D01*
X100500000Y-102873720D01*
X100500000Y-100599000D01*
X100518907Y-100540809D01*
X100568407Y-100504845D01*
X100599000Y-100500000D01*
X175401000Y-100500000D01*
X175459191Y-100518907D01*
G37*
%TD.AperFunction*%
%TD*%
M02*
