%TF.GenerationSoftware,KiCad,Pcbnew,9.0.3+dfsg-1*%
%TF.CreationDate,2026-07-17T04:04:37+00:00*%
%TF.ProjectId,wigglecam,77696767-6c65-4636-916d-2e6b69636164,rev?*%
%TF.SameCoordinates,Original*%
%TF.FileFunction,Soldermask,Top*%
%TF.FilePolarity,Negative*%
%FSLAX46Y46*%
G04 Gerber Fmt 4.6, Leading zero omitted, Abs format (unit mm)*
G04 Created by KiCad (PCBNEW 9.0.3+dfsg-1) date 2026-07-17 04:04:37*
%MOMM*%
%LPD*%
G01*
G04 APERTURE LIST*
G04 Aperture macros list*
%AMRoundRect*
0 Rectangle with rounded corners*
0 $1 Rounding radius*
0 $2 $3 $4 $5 $6 $7 $8 $9 X,Y pos of 4 corners*
0 Add a 4 corners polygon primitive as box body*
4,1,4,$2,$3,$4,$5,$6,$7,$8,$9,$2,$3,0*
0 Add four circle primitives for the rounded corners*
1,1,$1+$1,$2,$3*
1,1,$1+$1,$4,$5*
1,1,$1+$1,$6,$7*
1,1,$1+$1,$8,$9*
0 Add four rect primitives between the rounded corners*
20,1,$1+$1,$2,$3,$4,$5,0*
20,1,$1+$1,$4,$5,$6,$7,0*
20,1,$1+$1,$6,$7,$8,$9,0*
20,1,$1+$1,$8,$9,$2,$3,0*%
G04 Aperture macros list end*
%ADD10RoundRect,0.200000X-0.200000X-0.275000X0.200000X-0.275000X0.200000X0.275000X-0.200000X0.275000X0*%
%ADD11RoundRect,0.225000X-0.225000X-0.375000X0.225000X-0.375000X0.225000X0.375000X-0.225000X0.375000X0*%
%ADD12RoundRect,0.225000X0.225000X0.250000X-0.225000X0.250000X-0.225000X-0.250000X0.225000X-0.250000X0*%
%ADD13RoundRect,0.225000X-0.225000X-0.250000X0.225000X-0.250000X0.225000X0.250000X-0.225000X0.250000X0*%
%ADD14RoundRect,0.250000X-0.250000X-0.475000X0.250000X-0.475000X0.250000X0.475000X-0.250000X0.475000X0*%
%ADD15C,2.700000*%
%ADD16R,1.400000X1.200000*%
%ADD17RoundRect,0.250000X-0.785000X-1.045000X0.785000X-1.045000X0.785000X1.045000X-0.785000X1.045000X0*%
%ADD18R,2.000000X2.000000*%
%ADD19C,2.000000*%
%ADD20R,3.200000X2.000000*%
%ADD21RoundRect,0.150000X0.150000X-0.512500X0.150000X0.512500X-0.150000X0.512500X-0.150000X-0.512500X0*%
%ADD22RoundRect,0.225000X0.250000X-0.225000X0.250000X0.225000X-0.250000X0.225000X-0.250000X-0.225000X0*%
%ADD23RoundRect,0.250000X0.362500X1.425000X-0.362500X1.425000X-0.362500X-1.425000X0.362500X-1.425000X0*%
%ADD24RoundRect,0.112500X0.112500X-0.187500X0.112500X0.187500X-0.112500X0.187500X-0.112500X-0.187500X0*%
%ADD25RoundRect,0.250000X-1.450000X0.312500X-1.450000X-0.312500X1.450000X-0.312500X1.450000X0.312500X0*%
%ADD26RoundRect,0.225000X-0.250000X0.225000X-0.250000X-0.225000X0.250000X-0.225000X0.250000X0.225000X0*%
%ADD27RoundRect,0.250000X-0.362500X-1.425000X0.362500X-1.425000X0.362500X1.425000X-0.362500X1.425000X0*%
%ADD28RoundRect,0.218750X-0.218750X-0.256250X0.218750X-0.256250X0.218750X0.256250X-0.218750X0.256250X0*%
%ADD29RoundRect,0.200000X0.275000X-0.200000X0.275000X0.200000X-0.275000X0.200000X-0.275000X-0.200000X0*%
%ADD30RoundRect,0.250000X0.750000X-0.600000X0.750000X0.600000X-0.750000X0.600000X-0.750000X-0.600000X0*%
%ADD31O,2.000000X1.700000*%
%ADD32RoundRect,0.050000X-0.387500X-0.050000X0.387500X-0.050000X0.387500X0.050000X-0.387500X0.050000X0*%
%ADD33RoundRect,0.050000X-0.050000X-0.387500X0.050000X-0.387500X0.050000X0.387500X-0.050000X0.387500X0*%
%ADD34R,3.200000X3.200000*%
%ADD35RoundRect,0.150000X0.587500X0.150000X-0.587500X0.150000X-0.587500X-0.150000X0.587500X-0.150000X0*%
%ADD36RoundRect,0.250000X0.350000X-0.450000X0.350000X0.450000X-0.350000X0.450000X-0.350000X-0.450000X0*%
%ADD37R,1.700000X1.700000*%
%ADD38C,1.700000*%
%ADD39RoundRect,0.150000X-0.825000X-0.150000X0.825000X-0.150000X0.825000X0.150000X-0.825000X0.150000X0*%
%ADD40RoundRect,0.162500X-0.650000X-0.162500X0.650000X-0.162500X0.650000X0.162500X-0.650000X0.162500X0*%
%ADD41RoundRect,0.250000X0.650000X-1.000000X0.650000X1.000000X-0.650000X1.000000X-0.650000X-1.000000X0*%
%ADD42RoundRect,0.250000X-0.750000X0.600000X-0.750000X-0.600000X0.750000X-0.600000X0.750000X0.600000X0*%
%ADD43RoundRect,0.125000X-0.537500X-0.125000X0.537500X-0.125000X0.537500X0.125000X-0.537500X0.125000X0*%
%ADD44RoundRect,0.150000X-0.512500X-0.150000X0.512500X-0.150000X0.512500X0.150000X-0.512500X0.150000X0*%
%ADD45RoundRect,0.200000X0.200000X0.275000X-0.200000X0.275000X-0.200000X-0.275000X0.200000X-0.275000X0*%
%ADD46RoundRect,0.200000X-0.275000X0.200000X-0.275000X-0.200000X0.275000X-0.200000X0.275000X0.200000X0*%
%ADD47C,0.650000*%
%ADD48RoundRect,0.150000X-0.150000X-0.575000X0.150000X-0.575000X0.150000X0.575000X-0.150000X0.575000X0*%
%ADD49RoundRect,0.075000X-0.075000X-0.650000X0.075000X-0.650000X0.075000X0.650000X-0.075000X0.650000X0*%
%ADD50O,1.000000X2.100000*%
%ADD51O,1.000000X1.600000*%
%ADD52RoundRect,0.150000X-0.587500X-0.150000X0.587500X-0.150000X0.587500X0.150000X-0.587500X0.150000X0*%
%ADD53RoundRect,0.090000X-0.660000X-0.360000X0.660000X-0.360000X0.660000X0.360000X-0.660000X0.360000X0*%
G04 APERTURE END LIST*
D10*
%TO.C,R10*%
X141462600Y-129959300D03*
X143112600Y-129959300D03*
%TD*%
D11*
%TO.C,D5*%
X145350000Y-128000000D03*
X148650000Y-128000000D03*
%TD*%
D12*
%TO.C,C20*%
X120476900Y-127900000D03*
X118926900Y-127900000D03*
%TD*%
D13*
%TO.C,C13*%
X139033300Y-112547100D03*
X140583300Y-112547100D03*
%TD*%
D14*
%TO.C,C5*%
X112292500Y-125840100D03*
X114192500Y-125840100D03*
%TD*%
D15*
%TO.C,H1*%
X103000000Y-103000000D03*
%TD*%
D10*
%TO.C,R28*%
X165825200Y-102358700D03*
X167475200Y-102358700D03*
%TD*%
D13*
%TO.C,C33*%
X132666400Y-135948400D03*
X134216400Y-135948400D03*
%TD*%
D10*
%TO.C,R24*%
X150984700Y-112980200D03*
X152634700Y-112980200D03*
%TD*%
D16*
%TO.C,SW1*%
X120500000Y-142350000D03*
X120500000Y-146050000D03*
X126500000Y-142350000D03*
X126500000Y-146050000D03*
%TD*%
D14*
%TO.C,C18*%
X128851700Y-145169500D03*
X130751700Y-145169500D03*
%TD*%
D10*
%TO.C,R29*%
X169981200Y-102074400D03*
X171631200Y-102074400D03*
%TD*%
D17*
%TO.C,C27*%
X142880000Y-108500000D03*
X149120000Y-108500000D03*
%TD*%
D13*
%TO.C,C22*%
X128935300Y-142315800D03*
X130485300Y-142315800D03*
%TD*%
%TO.C,C14*%
X131966100Y-133586400D03*
X133516100Y-133586400D03*
%TD*%
D10*
%TO.C,R23*%
X116078200Y-125788200D03*
X117728200Y-125788200D03*
%TD*%
D12*
%TO.C,C7*%
X124103600Y-123043800D03*
X122553600Y-123043800D03*
%TD*%
D10*
%TO.C,R30*%
X141414200Y-125174900D03*
X143064200Y-125174900D03*
%TD*%
D18*
%TO.C,SW3*%
X155000000Y-108500000D03*
D19*
X155000000Y-113500000D03*
X155000000Y-111000000D03*
D20*
X162500000Y-105400000D03*
X162500000Y-116600000D03*
D19*
X169500000Y-113500000D03*
X169500000Y-108500000D03*
%TD*%
D21*
%TO.C,U4*%
X137050000Y-136137500D03*
X138000000Y-136137500D03*
X138950000Y-136137500D03*
X138950000Y-133862500D03*
X138000000Y-133862500D03*
X137050000Y-133862500D03*
%TD*%
D10*
%TO.C,R27*%
X150323900Y-102664000D03*
X151973900Y-102664000D03*
%TD*%
D13*
%TO.C,C12*%
X135017000Y-111380500D03*
X136567000Y-111380500D03*
%TD*%
D22*
%TO.C,C10*%
X133053300Y-113830000D03*
X133053300Y-112280000D03*
%TD*%
D13*
%TO.C,C16*%
X136516600Y-106826700D03*
X138066600Y-106826700D03*
%TD*%
D19*
%TO.C,FID3*%
X174000000Y-108000000D03*
%TD*%
D23*
%TO.C,R13*%
X162962500Y-124000000D03*
X157037500Y-124000000D03*
%TD*%
D19*
%TO.C,FID1*%
X102500000Y-112000000D03*
%TD*%
D10*
%TO.C,R4*%
X114941400Y-118787500D03*
X116591400Y-118787500D03*
%TD*%
%TO.C,R9*%
X141408500Y-127532400D03*
X143058500Y-127532400D03*
%TD*%
D19*
%TO.C,FID2*%
X168000000Y-147800000D03*
%TD*%
D14*
%TO.C,C3*%
X108630800Y-114646300D03*
X110530800Y-114646300D03*
%TD*%
%TO.C,C2*%
X114903600Y-128446400D03*
X116803600Y-128446400D03*
%TD*%
D10*
%TO.C,R33*%
X142892800Y-112559100D03*
X144542800Y-112559100D03*
%TD*%
D24*
%TO.C,D3*%
X108200000Y-127050000D03*
X108200000Y-124950000D03*
%TD*%
D25*
%TO.C,F1*%
X108500000Y-104862500D03*
X108500000Y-109137500D03*
%TD*%
D13*
%TO.C,C11*%
X135173500Y-113613600D03*
X136723500Y-113613600D03*
%TD*%
D26*
%TO.C,C19*%
X129950000Y-133522100D03*
X129950000Y-135072100D03*
%TD*%
D23*
%TO.C,R16*%
X162962500Y-136000000D03*
X157037500Y-136000000D03*
%TD*%
D17*
%TO.C,C28*%
X142380000Y-117000000D03*
X148620000Y-117000000D03*
%TD*%
D13*
%TO.C,C26*%
X154223100Y-130345400D03*
X155773100Y-130345400D03*
%TD*%
D15*
%TO.C,H3*%
X111000000Y-147000000D03*
%TD*%
D10*
%TO.C,R21*%
X118885900Y-123850500D03*
X120535900Y-123850500D03*
%TD*%
D22*
%TO.C,C9*%
X141350000Y-122775000D03*
X141350000Y-121225000D03*
%TD*%
D10*
%TO.C,R18*%
X157976200Y-128563700D03*
X159626200Y-128563700D03*
%TD*%
D14*
%TO.C,C29*%
X111964600Y-104072800D03*
X113864600Y-104072800D03*
%TD*%
D10*
%TO.C,R12*%
X152013200Y-132462700D03*
X153663200Y-132462700D03*
%TD*%
%TO.C,R31*%
X143600000Y-120923400D03*
X145250000Y-120923400D03*
%TD*%
%TO.C,R14*%
X145355500Y-123126600D03*
X147005500Y-123126600D03*
%TD*%
D27*
%TO.C,R19*%
X108537500Y-132000000D03*
X114462500Y-132000000D03*
%TD*%
D28*
%TO.C,D6*%
X165212500Y-145000000D03*
X166787500Y-145000000D03*
%TD*%
D29*
%TO.C,R7*%
X137050000Y-120825000D03*
X137050000Y-119175000D03*
%TD*%
D30*
%TO.C,J5*%
X102900000Y-134500000D03*
D31*
X102900000Y-132000000D03*
%TD*%
D10*
%TO.C,R20*%
X118815700Y-121443300D03*
X120465700Y-121443300D03*
%TD*%
D32*
%TO.C,U2*%
X126562500Y-118400000D03*
X126562500Y-118800000D03*
X126562500Y-119200000D03*
X126562500Y-119600000D03*
X126562500Y-120000000D03*
X126562500Y-120400000D03*
X126562500Y-120800000D03*
X126562500Y-121200000D03*
X126562500Y-121600000D03*
X126562500Y-122000000D03*
X126562500Y-122400000D03*
X126562500Y-122800000D03*
X126562500Y-123200000D03*
X126562500Y-123600000D03*
D33*
X127400000Y-124437500D03*
X127800000Y-124437500D03*
X128200000Y-124437500D03*
X128600000Y-124437500D03*
X129000000Y-124437500D03*
X129400000Y-124437500D03*
X129800000Y-124437500D03*
X130200000Y-124437500D03*
X130600000Y-124437500D03*
X131000000Y-124437500D03*
X131400000Y-124437500D03*
X131800000Y-124437500D03*
X132200000Y-124437500D03*
X132600000Y-124437500D03*
D32*
X133437500Y-123600000D03*
X133437500Y-123200000D03*
X133437500Y-122800000D03*
X133437500Y-122400000D03*
X133437500Y-122000000D03*
X133437500Y-121600000D03*
X133437500Y-121200000D03*
X133437500Y-120800000D03*
X133437500Y-120400000D03*
X133437500Y-120000000D03*
X133437500Y-119600000D03*
X133437500Y-119200000D03*
X133437500Y-118800000D03*
X133437500Y-118400000D03*
D33*
X132600000Y-117562500D03*
X132200000Y-117562500D03*
X131800000Y-117562500D03*
X131400000Y-117562500D03*
X131000000Y-117562500D03*
X130600000Y-117562500D03*
X130200000Y-117562500D03*
X129800000Y-117562500D03*
X129400000Y-117562500D03*
X129000000Y-117562500D03*
X128600000Y-117562500D03*
X128200000Y-117562500D03*
X127800000Y-117562500D03*
X127400000Y-117562500D03*
D34*
X130000000Y-121000000D03*
%TD*%
D16*
%TO.C,SW2*%
X120500000Y-134350000D03*
X120500000Y-138050000D03*
X126500000Y-134350000D03*
X126500000Y-138050000D03*
%TD*%
D15*
%TO.C,H2*%
X139500000Y-102500000D03*
%TD*%
D35*
%TO.C,Q1*%
X113437500Y-111950000D03*
X113437500Y-110050000D03*
X111562500Y-111000000D03*
%TD*%
D10*
%TO.C,R17*%
X154172600Y-128337600D03*
X155822600Y-128337600D03*
%TD*%
D13*
%TO.C,C32*%
X115097600Y-121006700D03*
X116647600Y-121006700D03*
%TD*%
D36*
%TO.C,Y1*%
X125350000Y-130100000D03*
X125350000Y-127900000D03*
X123650000Y-127900000D03*
X123650000Y-130100000D03*
%TD*%
D37*
%TO.C,J1*%
X148000000Y-146000000D03*
D38*
X150540000Y-146000000D03*
X153080000Y-146000000D03*
%TD*%
D10*
%TO.C,R32*%
X114456400Y-106416600D03*
X116106400Y-106416600D03*
%TD*%
%TO.C,R15*%
X154776600Y-119571600D03*
X156426600Y-119571600D03*
%TD*%
%TO.C,R6*%
X145236100Y-142099400D03*
X146886100Y-142099400D03*
%TD*%
D13*
%TO.C,C34*%
X129110300Y-137269200D03*
X130660300Y-137269200D03*
%TD*%
D37*
%TO.C,J8*%
X119650000Y-104400000D03*
D38*
X119650000Y-106940000D03*
X122190000Y-104400000D03*
X122190000Y-106940000D03*
X124730000Y-104400000D03*
X124730000Y-106940000D03*
X127270000Y-104400000D03*
X127270000Y-106940000D03*
X129810000Y-104400000D03*
X129810000Y-106940000D03*
X132350000Y-104400000D03*
X132350000Y-106940000D03*
%TD*%
D39*
%TO.C,U5*%
X149525000Y-122095000D03*
X149525000Y-123365000D03*
X149525000Y-124635000D03*
X149525000Y-125905000D03*
X154475000Y-125905000D03*
X154475000Y-124635000D03*
X154475000Y-123365000D03*
X154475000Y-122095000D03*
%TD*%
D13*
%TO.C,C17*%
X135906400Y-108951100D03*
X137456400Y-108951100D03*
%TD*%
D12*
%TO.C,C21*%
X120193900Y-117613100D03*
X118643900Y-117613100D03*
%TD*%
D40*
%TO.C,U3*%
X117112500Y-110295000D03*
X117112500Y-111565000D03*
X117112500Y-112835000D03*
X117112500Y-114105000D03*
X124287500Y-114105000D03*
X124287500Y-112835000D03*
X124287500Y-111565000D03*
X124287500Y-110295000D03*
%TD*%
D15*
%TO.C,H4*%
X173000000Y-147000000D03*
%TD*%
D30*
%TO.C,J7*%
X102900000Y-125000000D03*
D31*
X102900000Y-122500000D03*
%TD*%
D13*
%TO.C,C31*%
X114787500Y-123200000D03*
X116337500Y-123200000D03*
%TD*%
%TO.C,C23*%
X147270100Y-136061100D03*
X148820100Y-136061100D03*
%TD*%
D12*
%TO.C,C15*%
X124117800Y-120535800D03*
X122567800Y-120535800D03*
%TD*%
D14*
%TO.C,C1*%
X110696400Y-128446400D03*
X112596400Y-128446400D03*
%TD*%
D41*
%TO.C,D2*%
X109500000Y-122500000D03*
X109500000Y-118500000D03*
%TD*%
D42*
%TO.C,J4*%
X173600000Y-136000000D03*
D31*
X173600000Y-138500000D03*
%TD*%
D30*
%TO.C,J6*%
X102900000Y-144000000D03*
D31*
X102900000Y-141500000D03*
%TD*%
D43*
%TO.C,U6*%
X109862500Y-135025000D03*
X109862500Y-135675000D03*
X109862500Y-136325000D03*
X109862500Y-136975000D03*
X112137500Y-136975000D03*
X112137500Y-136325000D03*
X112137500Y-135675000D03*
X112137500Y-135025000D03*
%TD*%
D14*
%TO.C,C35*%
X154573900Y-141530900D03*
X156473900Y-141530900D03*
%TD*%
D10*
%TO.C,R34*%
X144025000Y-104400000D03*
X145675000Y-104400000D03*
%TD*%
D44*
%TO.C,U1*%
X116362500Y-131050000D03*
X116362500Y-132000000D03*
X116362500Y-132950000D03*
X118637500Y-132950000D03*
X118637500Y-131050000D03*
%TD*%
D45*
%TO.C,R3*%
X114225000Y-113600000D03*
X112575000Y-113600000D03*
%TD*%
D41*
%TO.C,D1*%
X144000000Y-139000000D03*
X144000000Y-135000000D03*
%TD*%
D46*
%TO.C,R1*%
X131600000Y-126175000D03*
X131600000Y-127825000D03*
%TD*%
D12*
%TO.C,C8*%
X124163500Y-125291000D03*
X122613500Y-125291000D03*
%TD*%
D13*
%TO.C,C4*%
X147225000Y-139000000D03*
X148775000Y-139000000D03*
%TD*%
D10*
%TO.C,R26*%
X147194600Y-112976900D03*
X148844600Y-112976900D03*
%TD*%
D12*
%TO.C,C6*%
X124090100Y-118253800D03*
X122540100Y-118253800D03*
%TD*%
D47*
%TO.C,J2*%
X135110000Y-145100000D03*
X140890000Y-145100000D03*
D48*
X134750000Y-143655000D03*
X135550000Y-143655000D03*
D49*
X136750000Y-143655000D03*
X137750000Y-143655000D03*
X138250000Y-143655000D03*
X139250000Y-143655000D03*
D48*
X140450000Y-143655000D03*
X141250000Y-143655000D03*
X141250000Y-143655000D03*
X140450000Y-143655000D03*
D49*
X139750000Y-143655000D03*
X138750000Y-143655000D03*
X137250000Y-143655000D03*
X136250000Y-143655000D03*
D48*
X135550000Y-143655000D03*
X134750000Y-143655000D03*
D50*
X133680000Y-144570000D03*
D51*
X133680000Y-148750000D03*
D50*
X142320000Y-144570000D03*
D51*
X142320000Y-148750000D03*
%TD*%
D52*
%TO.C,Q2*%
X159062500Y-119050000D03*
X159062500Y-120950000D03*
X160937500Y-120000000D03*
%TD*%
D29*
%TO.C,R8*%
X138950000Y-120825000D03*
X138950000Y-119175000D03*
%TD*%
D10*
%TO.C,R22*%
X102336700Y-117504600D03*
X103986700Y-117504600D03*
%TD*%
D45*
%TO.C,R2*%
X127825000Y-112600000D03*
X126175000Y-112600000D03*
%TD*%
D52*
%TO.C,Q3*%
X159062500Y-131050000D03*
X159062500Y-132950000D03*
X160937500Y-132000000D03*
%TD*%
D12*
%TO.C,C30*%
X110344000Y-139175700D03*
X108794000Y-139175700D03*
%TD*%
D13*
%TO.C,C24*%
X143587600Y-132124400D03*
X145137600Y-132124400D03*
%TD*%
D10*
%TO.C,R11*%
X147688200Y-131000200D03*
X149338200Y-131000200D03*
%TD*%
D42*
%TO.C,J3*%
X173600000Y-122000000D03*
D31*
X173600000Y-124500000D03*
%TD*%
D10*
%TO.C,R25*%
X150194500Y-104704600D03*
X151844500Y-104704600D03*
%TD*%
%TO.C,R5*%
X132209300Y-140309300D03*
X133859300Y-140309300D03*
%TD*%
D53*
%TO.C,D4*%
X156550000Y-144350000D03*
X156550000Y-147650000D03*
X161450000Y-147650000D03*
X161450000Y-144350000D03*
%TD*%
D10*
%TO.C,R35*%
X144210900Y-102322700D03*
X145860900Y-102322700D03*
%TD*%
D13*
%TO.C,C25*%
X145034300Y-125440700D03*
X146584300Y-125440700D03*
%TD*%
M02*
